<svg version="1.1" id="Ebene_1" xmlns="http://www.w3.org/2000/svg" xmlns:xlink="http://www.w3.org/1999/xlink" x="0px" y="0px" viewBox="0 0 464.4 130" style="enable-background:new 0 0 464.4 117.8;" xml:space="preserve">
<style type="text/css">
	.cp-logo-path{fill:#FEA101;}
</style>
                 <g class="cp-logo-bildmarke">
                     <path class="cp-logo-path" d="M16.7,0c0,23.4,0,46.8,0,70.2c0,0.6-0.1,0.8-0.7,0.8c-5.1,0-10.2,0-15.2,0c-0.2,0-0.5,0-0.7,0
                     C0,47.5,0,24,0,0.6C0,0.1,0.1,0,0.6,0C5.9,0,11.3,0,16.7,0z"></path>
                     <path class="cp-logo-path" d="M46.9,29.2c7.8,0,15.5,0,23.3,0c0.5,0,0.7,0.1,0.7,0.7c0,4.4,0,8.9,0,13.3c0,0.5-0.1,0.7-0.6,0.7
                     c-15.6,0-31.2,0-46.7,0c-0.5,0-0.6-0.1-0.6-0.6c0-4.5,0-9,0-13.4c0-0.5,0.1-0.6,0.6-0.6C31.3,29.2,39.1,29.2,46.9,29.2z"></path><path class="cp-logo-path" d="M70.9,0c0,4.6,0,9.2,0,13.8c0,0.9,0.1,0.8-0.8,0.8c-15.5,0-31,0-46.5,0c-0.6,0-0.7-0.2-0.7-0.7
                     c0-4.6,0-9.3,0-13.9C38.9,0,54.9,0,70.9,0z"></path>

                 </g>
                           <g class="cp-logo-wortmarke">
                               <path class="cp-logo-path" d="M131.4,118.2c-0.4-0.2-0.8-0.2-1.2-0.3c-3.5-0.9-5.8-3.6-6.1-7.3c-0.1-0.9-0.1-1.7-0.1-2.6
                     c0-6.5,0-12.9,0-19.4c0-0.5,0.1-0.7,0.7-0.7c0.5,0,1,0,1.5,0c0.4,0,0.5,0.1,0.5,0.5c0,1.3,0,2.6,0,3.8c0,5.4,0,10.8,0,16.2
                                        c0,1.2,0.2,2.4,0.6,3.6c0.7,1.9,2,3,4,3.4c1.3,0.2,2.6,0.2,3.9,0c2.4-0.5,3.9-2,4.4-4.5c0.2-1,0.3-1.9,0.3-2.9c0-6.5,0-12.9,0-19.4
                     c0-0.5,0.1-0.7,0.7-0.7c0.5,0,1,0,1.4,0c0.5,0,0.6,0.1,0.5,0.6c0,1.2,0,2.3,0,3.5c0,5.7,0,11.4,0,17.2c0,1.4-0.2,2.8-0.8,4.2
                     c-1.2,2.9-3.5,4.2-6.5,4.7c-0.1,0-0.3,0-0.4,0.1C133.7,118.2,132.5,118.2,131.4,118.2z"></path><path class="cp-logo-path" d="M306.6,118.2c0,0-0.1-0.1-0.1-0.1c-2.4-0.4-3.8-1.9-4.7-4.1c-1-2.7-1.1-5.5-0.9-8.3c0.2-2,0.6-3.9,1.6-5.6
                     c1.7-2.9,4.8-4.1,7.8-3c1.5,0.6,2.6,1.7,3.2,3.2c0.1,0.1,0.1,0.3,0.1,0.4c0,0,0,0,0.1,0c0-0.2,0-0.5,0-0.7c0-3.8,0-7.6,0-11.5
                     c0-0.5,0.1-0.7,0.6-0.6c0.5,0.1,1.2-0.1,1.4,0.1c0.3,0.3,0.1,1,0.1,1.5c0,9.1,0,18.3,0,27.4c0,0.6-0.2,0.8-0.7,0.7
                     c-0.5-0.1-1.1,0.2-1.4-0.1c-0.3-0.3-0.1-0.9-0.1-1.4c0-0.7,0-1.4,0-2.3c-0.2,0.5-0.3,0.8-0.5,1.1c-0.7,1.5-1.9,2.5-3.6,3
                     c-0.2,0.1-0.5,0-0.7,0.2C308.3,118.2,307.5,118.2,306.6,118.2z M303.5,108c0,0.3,0,0.6,0,0.8c0.1,1.8,0.2,3.5,1.1,5.2
                     c1,1.8,2.9,2.6,4.8,2c1.5-0.4,2.4-1.5,3.1-2.8c1.3-2.5,1.6-5.1,1.1-7.8c-0.3-1.6-0.7-3.1-1.7-4.4c-1.7-2.5-5.5-3.1-7.3,0.6
                     C303.7,103.5,303.5,105.7,303.5,108z"></path>
                               <path class="cp-logo-path" d="M266.1,118.2c-0.9-0.3-1.8-0.6-2.6-1.3c-2-1.8-2.5-6.6,0.7-8.7c1.6-1,3.3-1.5,5.1-1.8c1.2-0.2,2.5-0.2,3.8-0.3
                     c0.4,0,0.5-0.1,0.5-0.5c0-1.2,0-2.4-0.2-3.6c-0.4-2-1.5-3-3.4-3.1c-0.6-0.1-1.1,0-1.7,0c-1.7,0.2-2.8,1.1-3.2,2.8
                     c-0.1,0.4-0.3,0.5-0.7,0.5c-0.5,0-1.1,0-1.6,0c-0.5,0-0.5-0.2-0.5-0.6c0.2-2,1.4-3.3,3.2-4.1c2.2-1,4.5-1,6.8-0.4
                     c2.1,0.6,3.2,2.2,3.4,4.7c0.1,1.3,0.1,2.7,0.1,4c0,3.8,0,7.5,0,11.3c0,0.5-0.1,0.7-0.6,0.6c-0.5-0.1-1.2,0.2-1.5-0.1
                     c-0.2-0.3-0.1-1-0.1-1.5c0-0.4,0-0.8,0-1.2c-0.3,0.1-0.3,0.3-0.4,0.4c-1.2,1.4-2.6,2.4-4.5,2.7c-0.1,0-0.2,0-0.2,0.1
                     C267.7,118.2,266.9,118.2,266.1,118.2z M271.9,108.3c-1.8,0-3.5,0.2-5.2,1c-1,0.5-1.8,1.3-2.1,2.4c-0.5,1.8,0.3,3.4,2,3.8
                     c2.2,0.4,4-0.4,5.4-2c1.2-1.4,1.4-3.2,1.5-4.9c0-0.3-0.1-0.3-0.3-0.3C272.8,108.3,272.4,108.3,271.9,108.3z"></path>
                               <path class="cp-logo-path" d="M329.2,118.2c-0.4-0.2-0.8-0.2-1.3-0.3c-2.8-0.7-4.8-2.4-5.8-5c-1.5-3.8-1.5-7.7-0.2-11.5
                     c1.5-4.2,6.5-6,10.4-3.8c2.2,1.3,3.1,3.3,3.3,5.8c0,0.6,0.2,1.4-0.1,1.7c-0.3,0.4-1.1,0.1-1.7,0.1c-3.2,0-6.4,0-9.7,0
                     c-0.5,0-0.6,0.2-0.6,0.6c0,1.9,0,3.7,0.6,5.5c1,2.8,3,4.3,5.9,4.7c1.6,0.2,3.1,0,4.6-0.4c0.4-0.1,0.5,0,0.4,0.3c0,0.2,0,0.4,0,0.5
                     c0,1.2,0,1.2-1.3,1.4c-0.4,0.1-0.9,0-1.3,0.2C331.5,118.2,330.3,118.2,329.2,118.2z M328.5,103.1c1.3,0,2.7,0,4,0
                     c0.4,0,0.5-0.2,0.5-0.6c-0.1-0.9-0.5-1.7-1.1-2.4c-1.4-1.4-3-1.6-4.8-1.1c-1.8,0.5-2.6,1.9-3.1,3.6c-0.1,0.4,0.1,0.4,0.4,0.4
                     C325.8,103.1,327.1,103.1,328.5,103.1z"></path>
                               <path class="cp-logo-path" d="M458.9,118.2c-0.4-0.2-0.8-0.2-1.3-0.3c-2.8-0.7-4.8-2.4-5.9-5.1c-1.4-3.8-1.5-7.6-0.2-11.4
                     c1.3-3.6,4.2-4.9,7.6-4.6c3.3,0.3,5.4,2.3,6,5.6c0,0.1,0,0.2,0.1,0.3c0,0.8,0,1.7,0,2.5c-0.6,0-1.3,0-1.9,0c-3.2,0-6.4,0-9.5,0
                     c-0.3,0-0.6-0.1-0.6,0.4c0,1.5-0.1,3,0.3,4.5c0.6,3,2.2,5,5.3,5.8c1.5,0.4,3,0.3,4.6,0c0.5-0.1,1.2-0.5,1.4-0.2
                     c0.3,0.3,0,1,0.1,1.5c0.1,0.5-0.2,0.6-0.6,0.6c-0.7,0.2-1.4,0.1-2,0.4C461.2,118.2,460.1,118.2,458.9,118.2z M458.2,103.1
                     c1.4,0,2.7,0,4.1,0c0.4,0,0.5-0.1,0.4-0.5c-0.2-1.5-0.9-2.6-2.2-3.3c-2.8-1.5-6.2,0.2-6.8,3.3c-0.1,0.4,0.1,0.4,0.4,0.4
                     C455.5,103.1,456.9,103.1,458.2,103.1z"></path>
                               <path class="cp-logo-path" d="M202.3,118.2c-0.4-0.2-0.8-0.2-1.2-0.3c-3.2-0.8-5.3-2.9-6.2-6c-1-3.4-1-6.8,0-10.1c1.5-4.7,7.2-6.6,11.1-3.9
                     c1.8,1.3,2.6,3.1,2.8,5.3c0,0.5,0,1,0,1.5c0,0.4-0.1,0.5-0.5,0.5c-2.2,0-4.4,0-6.7,0c-1.5,0-2.9,0-4.4,0c-0.2,0-0.4,0-0.5,0.3
                     c0,2.1-0.1,4.2,0.7,6.1c1.1,2.7,3.1,4,5.9,4.4c1.7,0.2,3.3-0.1,5-0.5c0,0.6,0,1.2,0,1.8c0,0.4-0.3,0.4-0.5,0.4
                     c-0.7,0.1-1.4,0.3-2.2,0.4C204.7,118.2,203.5,118.2,202.3,118.2z M201.7,103.1c1.4,0,2.7,0,4.1,0c0.4,0,0.5-0.1,0.4-0.5
                     c-0.1-1.2-0.7-2.2-1.6-2.9c-2.7-2-6.9-0.3-7.4,3c-0.1,0.4,0.2,0.4,0.4,0.4C199,103.1,200.3,103.1,201.7,103.1z"></path>
                               <path class="cp-logo-path" d="M386.1,118.2c-0.3-0.3-0.8-0.3-1.1-0.4c-1.9-0.8-2.9-2.3-3.2-4.4c-0.1-0.6-0.1-1.1-0.1-1.7c0-4.6,0-9.2,0-13.8
                     c0-0.5,0.1-0.7,0.7-0.7c1.6,0,1.6,0,1.6,1.6c0,4.2,0,8.5,0,12.7c0,0.6,0.1,1.3,0.2,1.9c0.6,2.4,2.7,3.4,4.9,2.4
                     c1.5-0.7,2.4-1.9,3.1-3.3c1.3-2.4,1.7-4.9,1.8-7.6c0-2.4,0-4.7,0-7.1c0-0.4,0.1-0.6,0.6-0.6c0.5,0.1,1.2-0.2,1.5,0.1
                     c0.3,0.3,0.1,1,0.1,1.5c0,6.1,0,12.2,0,18.3c0,0.5-0.1,0.7-0.6,0.6c-1.6,0-1.6,0-1.6-1.5c0-1.1,0-2.1,0-3.2c0,0,0-0.1,0-0.2
                     c-0.3,0.1-0.3,0.4-0.3,0.6c-0.7,1.8-1.7,3.4-3.5,4.2c-0.5,0.2-1.1,0.4-1.6,0.5C387.7,118.2,386.9,118.2,386.1,118.2z"></path>
                               <path class="cp-logo-path" d="M425.5,118.2c-0.8-0.2-1.6-0.3-2.4-0.5c-1.3-0.3-1.3-0.3-1.3-1.5c0-1,0-1,1-0.7c2.1,0.6,4.2,1,6.3,0.5
                     c0.8-0.2,1.6-0.5,2.2-1.1c1.4-1.3,1.5-3.5,0.1-4.9c-1-1-2.4-1.5-3.7-2.1c-1.4-0.6-2.9-1.2-4.1-2.2c-2.6-2-1.9-5.8-0.2-7.4
                     c1.1-0.9,2.4-1.3,3.7-1.5c2.1-0.2,4.1,0.1,6.1,0.5c0.3,0.1,0.4,0.2,0.4,0.5c0,0.4,0,0.9,0,1.3c0,0.4-0.1,0.5-0.5,0.4
                     c-1.6-0.5-3.2-0.8-4.8-0.7c-0.8,0-1.7,0.2-2.4,0.6c-1.7,0.9-1.9,2.9-0.5,4.2c0.5,0.5,1.2,0.8,1.9,1.2c1.7,0.8,3.4,1.6,5,2.5
                     c1.4,0.8,2.4,1.9,2.6,3.5c0.5,3.6-1,6.2-4.9,7.1c-0.4,0.1-0.8,0-1.1,0.2C427.8,118.2,426.7,118.2,425.5,118.2z"></path>
                               <path class="cp-logo-path" d="M228.6,118.2c-0.9-0.2-1.9-0.4-2.8-0.6c-0.9-0.2-0.9-0.2-0.9-1.2c0-1.3,0-1.3,1.2-0.9c2,0.5,4,0.9,6.1,0.4
                     c1.4-0.3,2.6-0.9,3.1-2.4c0.5-1.5,0.1-2.9-1.3-3.9c-0.9-0.7-1.9-1.1-2.9-1.6c-1.3-0.6-2.6-1.1-3.7-1.9c-1.7-1.1-2.5-2.6-2.3-4.7
                     c0.3-2.2,1.5-3.6,3.6-4.2c2-0.6,4-0.5,6-0.2c0.6,0.1,1.1,0.2,1.7,0.3c0.3,0.1,0.4,0.2,0.4,0.5c0,0.6,0,1.2,0,1.8
                     c-1.2-0.4-2.4-0.7-3.5-0.8c-1.4-0.1-2.8-0.1-4.1,0.6c-1.8,0.9-2,3-0.5,4.3c0.5,0.5,1.2,0.8,1.8,1.1c1.5,0.7,3,1.4,4.4,2.2
                     c2.6,1.4,3.5,3,3.2,5.9c-0.3,2.4-1.9,4.2-4.5,4.8c-0.5,0.1-1.1,0.2-1.6,0.4C230.9,118.2,229.7,118.2,228.6,118.2z"></path>
                               <path class="cp-logo-path" d="M286.7,118.2c0-0.1-0.1-0.1-0.2-0.1c-2.6-0.5-3.6-2.2-3.6-4.7c0-4.4,0-8.8,0-13.3c0-0.6-0.1-0.8-0.7-0.8
                     c-0.7,0.1-1.4,0-2.2,0c-0.3,0-0.4-0.1-0.4-0.4c0,0,0-0.1,0-0.1c0-1.6,0-1.6,1.6-1.6c0.5,0,1.2,0.2,1.6-0.1c0.4-0.3,0.1-1.1,0.1-1.6
                     c0-0.9,0-1.7,0-2.6c0-0.3,0.1-0.5,0.4-0.7c0.6-0.4,1.1-0.7,1.7-1.1c0.2,0.1,0.1,0.3,0.1,0.4c0,1.7,0,3.4,0,5.1
                     c0,0.4,0.1,0.5,0.5,0.5c1.5,0,2.9,0,4.4,0c0.4,0,0.6,0.1,0.5,0.5c-0.1,0.5,0.2,1.2-0.1,1.5c-0.3,0.3-1,0.1-1.5,0.1
                     c-1.1,0-2.3,0-3.4,0c-0.3,0-0.5,0.1-0.5,0.4c0,4.4,0,8.8,0.1,13.2c0,2.2,1.3,3.3,3.5,3.1c0.5,0,1-0.1,1.4-0.2
                     c0.4-0.1,0.5-0.1,0.5,0.3c0,0.5,0,0.9,0,1.4c0,0.3-0.1,0.5-0.4,0.6C289,118.2,287.9,118.2,286.7,118.2z"></path>
                               <path class="cp-logo-path" d="M255,118.2c-0.1-0.2-0.4-0.1-0.5-0.2c-2.1-0.5-3.2-1.8-3.3-3.9c0-0.7-0.1-1.3-0.1-2c0-4,0-8,0-12.1
                     c0-0.6-0.2-0.7-0.7-0.7c-0.7,0-1.4,0-2,0c-0.4,0-0.5-0.1-0.5-0.5c0-1.7-0.1-1.7,1.6-1.7c0.5,0,1.2,0.2,1.5-0.1
                     c0.4-0.3,0.1-1,0.1-1.5c0-0.9,0-1.7,0-2.6c0-0.3,0.1-0.6,0.4-0.7c0.6-0.4,1.2-0.8,1.8-1.2c0,1.6,0,3.2,0,4.7c0,1.5,0,1.5,1.4,1.5
                     c1.2,0,2.4,0,3.5,0c0.4,0,0.5,0.1,0.5,0.5c-0.1,0.5,0.2,1.2-0.1,1.6c-0.3,0.3-1,0.1-1.5,0.1c-1.1,0-2.2,0-3.4,0
                     c-0.3,0-0.5,0.1-0.5,0.5c0,4.3,0,8.7,0,13c0,0.4,0.1,0.8,0.1,1.1c0.3,1.2,1,1.9,2.2,2.1c0.8,0.1,1.7,0.1,2.5-0.2
                     c0.5-0.2,0.6,0,0.6,0.5c0,0.4,0,0.8,0,1.1c0,0.4-0.1,0.6-0.4,0.7C257.3,118.2,256.1,118.2,255,118.2z"></path>
                               <path class="cp-logo-path" d="M444.6,118.2c0,0-0.1-0.1-0.1-0.1c-2.7-0.4-3.8-2.2-3.8-4.8c0-4.4,0-8.9,0-13.3c0-0.5-0.1-0.7-0.7-0.7
                     c-0.7,0.1-1.5,0-2.2,0c-0.3,0-0.4-0.1-0.4-0.4c0,0,0,0,0-0.1c-0.1-1.7-0.1-1.7,1.6-1.7c0.5,0,1.2,0.2,1.5-0.1
                     c0.3-0.3,0.1-1,0.1-1.5c0-0.9,0-1.8,0-2.6c0-0.3,0.1-0.5,0.4-0.7c0.6-0.3,1.1-0.7,1.8-1.2c0,0.7,0,1.2,0,1.8c0,1.3,0,2.6,0,3.9
                     c0,0.4,0.1,0.5,0.5,0.5c1.5,0,3,0,4.4,0c0.4,0,0.6,0.1,0.6,0.5c0,1.6,0,1.6-1.6,1.6c-1.2,0-2.3,0-3.5,0c-0.3,0-0.4,0-0.4,0.4
                     c0,4.4,0,8.7,0,13.1c0,3,2.1,3.7,4.6,3.2c0.9-0.2,0.9-0.2,0.9,0.7c0,0.2,0,0.4,0,0.6c0.1,0.5,0,0.8-0.6,0.9
                     C446.7,118.2,445.7,118.2,444.6,118.2z"></path>

                               <path class="cp-logo-path" d="M290.9,76c0.9,0.4,1.7,0.8,2.5,1.1c2,0.8,4,1.1,6.1,0.9c3.1-0.3,4.8-2,5.2-5.2c0.2-1.9,0-3.7,0.1-5.7
                     c-0.4,0.5-0.6,0.8-0.9,1.1c-3,4-9.8,3.7-12.3-1.3c-0.9-1.9-1.4-3.9-1.6-5.9c-0.3-3.3-0.2-6.5,1-9.6c0.7-2,1.9-3.7,3.8-4.7
                     c3.2-1.8,7.3-0.8,9.5,2.1c0.1,0.2,0.2,0.3,0.4,0.6c0-0.9,0-1.7,0-2.4c0-0.4,0.1-0.6,0.5-0.5c1.5,0,3,0,4.4,0c0.5,0,0.6,0.1,0.6,0.6
                     c0,3.9,0,7.8,0,11.8c0,4.7,0,9.5,0,14.2c0,1.3-0.2,2.6-0.6,3.8c-0.9,2.7-2.9,4.3-5.5,5.1c-2.4,0.7-4.9,0.8-7.4,0.7
                     c-1.8-0.1-3.5-0.4-5.3-0.8c-0.5-0.1-0.6-0.3-0.6-0.7C290.9,79.3,290.9,77.7,290.9,76z M304.8,58.1c0-0.7,0-1.3-0.1-2
                     c-0.2-1.7-0.6-3.3-1.7-4.6c-1.5-1.7-4.1-1.6-5.5,0.2c-0.5,0.6-0.8,1.4-0.9,2.1c-0.6,2.6-0.6,5.3-0.2,8c0.2,1.1,0.5,2.2,1.1,3.2
                     c1.3,1.9,3.9,2,5.3,0.2c0.4-0.5,0.7-1,0.9-1.5C304.5,61.9,304.8,60,304.8,58.1z"></path>
                               <path class="cp-logo-path" d="M222.4,55.2c-0.7,2.3-1.3,4.4-2,6.5c-0.9,2.9-1.7,5.8-2.6,8.7c-0.1,0.4-0.3,0.5-0.7,0.5c-1.6,0-3.2,0-4.7,0
                     c-0.4,0-0.5-0.1-0.6-0.5c-1.8-7.8-3.5-15.7-5.3-23.5c-0.1-0.4-0.1-0.6,0.4-0.6c1.4,0,2.8,0,4.3,0c0.4,0,0.5,0.1,0.6,0.5
                     c1.1,5.2,2.2,10.4,3.3,15.6c0,0.2,0.1,0.4,0.3,0.6c0.3-0.9,0.5-1.8,0.8-2.7c1.4-4.5,2.7-9,4.1-13.5c0.1-0.4,0.3-0.5,0.7-0.5
                     c1,0,1.9,0,2.9,0c0.4,0,0.6,0.1,0.7,0.5c1.5,5.2,3.1,10.3,4.6,15.5c0.1,0.2,0.1,0.4,0.3,0.7c0.4-1.7,0.7-3.4,1.1-5
                     c0.8-3.7,1.6-7.5,2.4-11.2c0.1-0.4,0.2-0.4,0.5-0.4c1.4,0,2.8,0,4.2,0c0.5,0,0.6,0.1,0.5,0.6c-0.7,3-1.4,6-2,9
                     c-1.1,4.8-2.2,9.6-3.2,14.4c-0.1,0.4-0.2,0.6-0.7,0.5c-1.5,0-3.1,0-4.6,0c-0.5,0-0.7-0.2-0.8-0.6c-1.4-4.9-2.9-9.8-4.4-14.6
                     C222.6,55.6,222.5,55.5,222.4,55.2z"></path>
                               <path class="cp-logo-path" d="M189.7,55.7c0.9-1.1,1.8-2.1,2.6-3.1c1.6-1.9,3.2-3.8,4.9-5.8c0.2-0.2,0.3-0.4,0.7-0.4c2.1,0,4.3,0,6.4,0
                     c0.1,0.3-0.1,0.4-0.3,0.5c-2.8,3.2-5.5,6.5-8.3,9.7c-0.3,0.3-0.3,0.5,0,0.9c3,4.2,6.1,8.5,9.1,12.7c0.1,0.2,0.3,0.4,0.4,0.6
                     c-0.1,0.2-0.3,0.1-0.4,0.1c-2,0-3.9,0-5.9,0c-0.4,0-0.6-0.1-0.8-0.4c-2.6-3.8-5.3-7.5-7.9-11.3c-0.1-0.2-0.3-0.3-0.5-0.7
                     c0,0.4,0,0.6,0,0.8c0,3.7,0,7.3,0,11c0,0.5-0.1,0.7-0.6,0.6c-1.5,0-3.1,0-4.6,0c-0.4,0-0.5-0.1-0.5-0.5c0-11.5,0-23,0-34.5
                     c0-0.4,0.1-0.5,0.5-0.5c1.6,0,3.1,0,4.7,0c0.5,0,0.6,0.1,0.6,0.6c0,6.3,0,12.6,0,19C189.7,55.2,189.7,55.4,189.7,55.7z"></path>
                               <path class="cp-logo-path" d="M124.1,53.2c0-5.7,0-11.4,0-17.1c0-0.5,0.1-0.7,0.6-0.7c6.3,0,12.6,0,18.8,0c0.5,0,0.6,0.1,0.6,0.6
                     c0,1.1,0,2.3,0,3.4c0,0.5-0.1,0.6-0.6,0.6c-4.3,0-8.5,0-12.8,0c-0.6,0-0.7,0.2-0.7,0.8c0,3,0,5.9,0,8.9c0,0.5,0.2,0.6,0.6,0.6
                     c4,0,8,0,12,0c0.6,0,0.7,0.1,0.7,0.7c0,1.1,0,2.2,0,3.4c0,0.5-0.1,0.6-0.6,0.6c-4,0-8,0-12.1,0c-0.6,0-0.7,0.2-0.7,0.7
                     c0,4.9,0,9.8,0,14.8c0,0.6-0.2,0.7-0.7,0.7c-1.6,0-3.1,0-4.7,0c-0.6,0-0.7-0.2-0.7-0.7C124.1,64.6,124.1,58.9,124.1,53.2z"></path>
                               <path class="cp-logo-path" d="M271.6,50.8c0.6-1.1,1.3-2.2,2.2-3c2.1-2,5.6-2.5,8.2-1.2c1.7,0.9,2.6,2.4,3.1,4.1c0.3,0.9,0.4,1.9,0.4,2.8
                     c0,5.6,0,11.2,0,16.8c0,0.5-0.1,0.7-0.6,0.6c-1.5,0-3,0-4.4,0c-0.5,0-0.7-0.1-0.7-0.7c0-4.8,0-9.6,0-14.5c0-0.8,0-1.6-0.2-2.4
                     c-0.3-1.8-1.2-2.5-3-2.1c-1.3,0.3-2.3,1-3.1,2.1c-1.3,2-2,4.2-2,6.6c0,3.5,0,6.9,0,10.4c0,0.5-0.1,0.6-0.6,0.6c-1.6,0-3.1,0-4.7,0
                     c-0.4,0-0.5-0.1-0.5-0.5c0-7.8,0-15.7,0-23.5c0-0.4,0.1-0.5,0.5-0.5c1.6,0,3.2,0,4.7,0c0.4,0,0.5,0.1,0.5,0.5
                     C271.5,48.2,271.6,49.5,271.6,50.8z"></path>
                               <path class="cp-logo-path" d="M146,59.2c0-3.2,0.4-5.8,1.6-8.2c1.5-3,4-4.6,7.3-5.1c2.3-0.3,4.6-0.1,6.7,0.8c2.7,1.2,4.3,3.3,5.2,6.1
                     c1.2,4,1.2,8-0.1,11.9c-1.4,4.2-4.6,6.5-9,6.7c-2.3,0.1-4.6-0.2-6.6-1.4c-2.6-1.5-3.9-4-4.5-6.8C146.2,61.8,146,60.3,146,59.2z
                      M161.6,58.7c0-0.3,0-0.6,0-0.9c0-1.8-0.1-3.5-0.8-5.2c-0.7-1.8-2-2.7-3.9-2.7c-1.9,0-3.2,0.9-3.9,2.7c-0.2,0.5-0.4,1-0.5,1.5
                     c-0.5,2.4-0.4,4.7-0.3,7.1c0.1,1.4,0.3,2.8,0.9,4.1c0.9,1.8,2.7,2.6,4.7,2.2c1.8-0.4,2.7-1.7,3.1-3.4
                     C161.6,62.3,161.6,60.5,161.6,58.7z"></path>
                               <path class="cp-logo-path" d="M254.5,68.3c-0.9,1.3-2,2.4-3.5,2.8c-2.8,0.8-5.6,0.7-8-1.2c-1.6-1.3-2.2-3.1-2.2-5.1c0.1-4.2,2.9-6.2,6.6-7.2
                     c2.1-0.6,4.3-0.7,6.5-0.8c0.5,0,0.6-0.2,0.6-0.6c-0.1-1,0-2-0.1-2.9c-0.2-2.5-1.7-3.6-4.2-3.3c-1.8,0.3-2.8,1.4-2.9,3.2
                     c0,0.4-0.1,0.5-0.5,0.5c-1.5,0-3,0-4.6,0c-0.5,0-0.6-0.1-0.5-0.6c0.3-3.6,2.1-5.8,5.5-6.7c2.8-0.7,5.7-0.7,8.4,0.2
                     c2.7,0.9,4,3,4.2,5.7c0.1,0.7,0.1,1.4,0.1,2c0,5.3,0,10.6,0,16c0,0.5-0.1,0.7-0.7,0.7c-1.5,0-2.9,0-4.4,0c-0.4,0-0.5-0.1-0.5-0.5
                     C254.5,69.8,254.5,69,254.5,68.3z M248.7,67.5c2.2,0,3.4-0.6,4.3-1.8c1.1-1.5,1.4-3.3,1.6-5.1c0-0.3-0.2-0.4-0.4-0.3
                     c-0.8,0.1-1.6,0.1-2.3,0.2c-1.5,0.2-3,0.6-4.2,1.7c-1.1,0.9-1.4,2.4-0.9,3.8C247,66.9,247.9,67.5,248.7,67.5z"></path>
                               <path class="cp-logo-path" d="M172,53.1c0-5.7,0-11.4,0-17.1c0-0.5,0.1-0.7,0.7-0.7c1.5,0,3.1,0,4.6,0c0.4,0,0.5,0.1,0.5,0.5
                     c0,11.5,0,23,0,34.5c0,0.5-0.2,0.5-0.6,0.5c-1.5,0-3.1,0-4.6,0c-0.5,0-0.6-0.1-0.6-0.6C172,64.6,172,58.9,172,53.1z"></path>
                               <path class="cp-logo-path" d="M378.6,117.7c-1.1,0-2,0-3,0c-0.3,0-0.4-0.2-0.5-0.4c-3.8-4.6-7.5-9.2-11.3-13.8c-0.1-0.1-0.2-0.2-0.3-0.3
                     c-0.2,0.2-0.1,0.4-0.1,0.6c0,4.4,0,8.8,0,13.3c0,0.5-0.1,0.7-0.7,0.7c-0.5,0-1,0-1.6,0c-0.3,0-0.4-0.1-0.4-0.4c0-0.1,0-0.2,0-0.2
                     c0-9.5,0-18.9,0-28.4c0-0.5,0.1-0.7,0.6-0.7c0.4,0.1,0.8,0,1.3,0c0.6-0.1,0.7,0.1,0.7,0.7c0,4,0,8,0,12.1c0,0.2,0,0.4,0,0.7
                     c0.3,0,0.4-0.2,0.5-0.4c3.4-4.2,6.7-8.3,10.1-12.5c0.3-0.4,0.7-0.6,1.2-0.5c0.8,0,1.5,0,2.3,0c0.1,0.2-0.1,0.3-0.2,0.4
                     c-3.6,4.4-7.2,8.9-10.8,13.3c-0.4,0.5-0.3,0.7,0,1.1c3.9,4.7,7.8,9.5,11.6,14.2C378.3,117.3,378.4,117.5,378.6,117.7z"></path>
                               <path class="cp-logo-path" d="M150.8,102c0.5-1,0.9-1.9,1.5-2.8c2.1-3,6.9-3.4,9.3-0.8c1.2,1.2,1.4,2.8,1.4,4.4c0,4.8,0,9.6,0,14.4
                     c0,0.4-0.1,0.5-0.5,0.5c-0.4,0-0.8,0-1.1,0c-0.5,0.1-0.6-0.2-0.6-0.6c0-4.1,0-8.2,0-12.2c0-1.1,0-2.2-0.3-3.3
                     c-0.6-2.4-2.9-3.4-5.1-2.3c-1.4,0.7-2.3,1.9-2.9,3.3c-1.2,2.4-1.7,4.9-1.7,7.5c0,2.3,0,4.7,0,7c0,0.5-0.2,0.6-0.6,0.6
                     c-0.5-0.1-1.1,0.2-1.4-0.1c-0.3-0.3-0.1-1-0.1-1.5c0-6.1,0-12.2,0-18.3c0-0.5,0.1-0.7,0.7-0.7c1.5,0,1.5,0,1.5,1.5
                     C150.8,99.9,150.8,101,150.8,102z"></path>
                               <path class="cp-logo-path" d="M405,102.1c0.2-0.5,0.4-1,0.6-1.5c1.5-3.2,4.7-4.7,7.9-3.6c2.2,0.7,3.6,2.6,3.6,5c0,5.1,0,10.2,0,15.2
                     c0,0.3-0.1,0.5-0.4,0.4c-0.6,0-1.3,0.2-1.6-0.1c-0.3-0.3-0.1-1-0.1-1.6c0-4.1,0-8.1,0-12.2c0-0.7-0.1-1.4-0.2-2.1
                     c-0.5-2.6-3-3.7-5.3-2.4c-1.5,0.9-2.4,2.3-3.1,3.8c-1,2.1-1.4,4.4-1.4,6.7c0,2.4,0,4.8,0,7.2c0,0.5-0.1,0.6-0.6,0.6
                     c-0.5,0-1.2,0.2-1.4-0.1c-0.3-0.3-0.1-1-0.1-1.5c0-6.1,0-12.2,0-18.3c0-0.5,0.1-0.7,0.7-0.7c1.5,0,1.5,0,1.5,1.5
                     C404.9,99.9,404.9,101,405,102.1C404.9,102.1,405,102.1,405,102.1z"></path>
                               <path class="cp-logo-path" d="M192.3,97.2c-0.5,1.6-1,3-1.6,4.5c-1.8,5.1-3.5,10.2-5.3,15.3c-0.2,0.5-0.4,0.7-0.9,0.7
                     c-0.6-0.1-1.3,0.2-1.7-0.1c-0.4-0.3-0.5-1-0.7-1.5c-2.4-6.1-4.8-12.2-7.2-18.3c-0.2-0.5-0.1-0.6,0.4-0.6c0.6,0.1,1.3-0.2,1.7,0.1
                     c0.4,0.3,0.5,1,0.7,1.5c1.9,4.9,3.9,9.8,5.8,14.8c0.1,0.2,0.1,0.4,0.3,0.6c0.8-2.4,1.6-4.7,2.4-7.1c1.1-3.1,2.1-6.1,3.2-9.2
                     c0.2-0.6,0.5-0.8,1.1-0.7C191.2,97.3,191.8,97.2,192.3,97.2z"></path>
                               <path class="cp-logo-path" d="M216,101.2c0.5-0.9,1-1.8,1.7-2.6c1.2-1.3,2.7-1.8,4.4-1.9c0.4,0,0.5,0.1,0.5,0.5c0,0.6,0.2,1.2-0.1,1.7
                     c-0.2,0.5-0.9,0.3-1.4,0.4c-1.9,0.5-3.1,1.8-3.9,3.5c-0.9,2-1.2,4.2-1.2,6.4c0,2.7,0,5.4,0,8c0,0.5-0.1,0.6-0.6,0.6
                     c-0.5-0.1-1.2,0.2-1.5-0.1c-0.3-0.3-0.1-1-0.1-1.5c0-6.1,0-12.2,0-18.3c0-0.5,0.1-0.7,0.6-0.7c0.5,0.1,1.2-0.2,1.5,0.1
                     c0.3,0.3,0.1,1,0.1,1.5C216,99.6,216,100.4,216,101.2z"></path>
                               <path class="cp-logo-path" d="M342.9,101.2c0.3-0.7,0.6-1.2,0.9-1.7c1.2-1.8,3-2.6,5.1-2.7c0.3,0,0.5,0.1,0.4,0.4c0,0,0,0,0,0.1
                     c0,0.6,0.2,1.2-0.1,1.7c-0.2,0.5-1,0.2-1.4,0.4c-1.8,0.5-3,1.7-3.8,3.4c-0.9,2-1.2,4.2-1.3,6.4c0,2.7,0,5.4,0,8
                     c0,0.5-0.1,0.6-0.6,0.6c-0.5-0.1-1.2,0.2-1.5-0.1c-0.3-0.3-0.1-1-0.1-1.5c0-6.1,0-12.2,0-18.3c0-0.5,0.1-0.7,0.7-0.7
                     c0.5,0.1,1.1-0.2,1.4,0.1c0.3,0.3,0.1,0.9,0.1,1.4c0,0.7,0,1.5,0,2.2C342.8,101,342.8,101.1,342.9,101.2z"></path>
                               <path class="cp-logo-path" d="M242.4,107.5c0-3.2,0-6.4,0-9.7c0-0.5,0.1-0.6,0.6-0.6c0.5,0.1,1.2-0.2,1.5,0.1c0.3,0.3,0.1,1,0.1,1.5
                     c0,6.1,0,12.2,0,18.2c0,0.6-0.2,0.7-0.7,0.7c-1.5,0-1.5,0-1.5-1.5C242.4,113.4,242.4,110.4,242.4,107.5z"></path>
                               <path class="cp-logo-path" d="M169.4,107.5c0-3.2,0-6.4,0-9.6c0-0.5,0.1-0.7,0.6-0.7c1.5,0,1.6,0,1.6,1.6c0,6.1,0,12.2,0,18.3
                     c0,0.5-0.1,0.8-0.7,0.7c-0.5-0.1-1.1,0.2-1.4-0.1c-0.2-0.3-0.1-0.9-0.1-1.4C169.4,113.3,169.4,110.4,169.4,107.5z"></path>
                               <path class="cp-logo-path" d="M245.2,89.8c0,0.4,0,0.9,0,1.3c0,0.3-0.1,0.4-0.4,0.4c-0.8,0-1.6,0-2.5,0c-0.3,0-0.4-0.1-0.4-0.4
                     c0-0.9,0-1.8,0-2.8c0-0.3,0.1-0.4,0.4-0.4c0.8,0,1.7,0,2.5,0c0.3,0,0.4,0.1,0.4,0.4C245.1,88.9,245.2,89.4,245.2,89.8z"></path>
                               <path class="cp-logo-path" d="M168.9,89.7c0.1-0.5-0.3-1.2,0.1-1.6c0.3-0.3,1.1-0.1,1.6-0.1c0.5,0,1.1-0.2,1.4,0.1c0.3,0.3,0.1,0.9,0.1,1.4
                     c0,0.6,0.3,1.5-0.1,1.9c-0.4,0.3-1.2,0.1-1.8,0.1c-1.3,0-1.3,0-1.3-1.3C168.9,90.1,168.9,90,168.9,89.7z"></path>
                               <path class="cp-logo-path" d="M383.8,91.5c0-0.4,0-0.9,0-1.3c0-0.3,0.1-0.3,0.3-0.3c0.8,0,1.7,0,2.5,0c0.3,0,0.4,0.1,0.4,0.4
                     c0,0.9,0,1.8,0,2.7c0,0.3-0.1,0.3-0.4,0.3c-0.8,0-1.7,0-2.5,0c-0.3,0-0.4-0.1-0.3-0.3C383.8,92.5,383.8,92,383.8,91.5z"></path>
                               <path class="cp-logo-path" d="M274.8,91.6c-0.1,0.5,0.2,1.2-0.1,1.5c-0.3,0.3-1,0.1-1.6,0.1c-0.5,0-1.1,0.2-1.4-0.1c-0.3-0.3-0.1-1-0.1-1.4
                     c0-0.6-0.3-1.4,0.1-1.7c0.3-0.3,1.1-0.1,1.7-0.1c1.4,0,1.4,0,1.4,1.4C274.8,91.4,274.8,91.5,274.8,91.6z"></path>
                               <path class="cp-logo-path" d="M264.6,91.5c0.1-0.5-0.2-1.2,0.1-1.5c0.3-0.3,1-0.1,1.6-0.1c1.5,0,1.5,0,1.5,1.5c0,0.6,0.3,1.4-0.1,1.8
                     c-0.3,0.3-1.1,0.1-1.7,0.1c-1.3,0-1.3,0-1.3-1.3C264.6,91.8,264.6,91.7,264.6,91.5z"></path>
                               <path class="cp-logo-path" d="M390.8,91.5c0-0.4-0.2-1.1,0.1-1.5c0.4-0.4,1.1-0.1,1.6-0.1c1.5,0,1.5,0,1.5,1.5c0,0.5,0,1,0,1.4
                     c0,0.3,0,0.4-0.4,0.4c-0.8,0-1.6,0-2.5,0c-0.3,0-0.4-0.1-0.4-0.4C390.8,92.4,390.8,92,390.8,91.5z"></path>
                           </g>
                 </svg>
