<svg xmlns="http://www.w3.org/2000/svg" width="260" height="140"><path d="M140.45 70l-70-70-70 70 46.67 46.67 23.33-23.34L47.12 70l23.33-23.33L93.79 70 70.45 93.33l23.34 23.34zm-46.66 46.67H47.12L70.45 140zm88-45.36c0-7.94-6-10.43-12-10.43h-7.58v21H170c5.78 0 11.77-3.17 11.77-10.55zm-5.28 0c0 4.68-3.35 6.17-7 6.17h-2.4V65.2h2.52c3.49 0 6.84 1.4 6.84 6.11zm26.31-4c0-4.8-3.61-6.46-8.2-6.46h-7.71v21H192V74h2.52c4.39 0 8.32-1.75 8.32-6.61zm-5.06 0c0 2-1.75 2.55-3.65 2.55H192V65h2.22c1.81 0 3.56.38 3.56 2.4zm31.47 3.91c0-6.73-4.86-11-11.44-11s-11.41 4.23-11.41 11 4.86 11.14 11.41 11.14 11.44-4.5 11.44-11.14zm-5.42 0c0 3.79-2.49 6.52-6 6.52s-6-2.73-6-6.52 2.43-6.4 6-6.4 6 2.73 6 6.4zm29.83 10.58l-9.54-11.26 9-9.66h-6.3l-7.5 8.53h-.09v-8.53h-5v21h5V72.2h.06l7.8 9.66z"/></svg>