<svg id="Ebene_1" data-name="Ebene 1" xmlns="http://www.w3.org/2000/svg" viewBox="0 0 273 435.2"><defs><style>.cls-1{fill:#050709}</style></defs><path class="cls-1" d="M136.4 475.2h4v-7.5c0-.8-.1-1.8-.2-3a13.39 13.39 0 001.4 2.7l5.7 7.8h4V460h-4v7.5c0 .8.1 1.8.2 3a13.39 13.39 0 00-1.4-2.7l-5.7-7.8h-4zm-14.5 0h9.3v-3.4h-5.3v-2.6h5V466h-5v-2.6h5.3V460h-9.3zm-14.2-4.9l-1.9 3.1a7.32 7.32 0 005.4 2.2c3.6 0 5.8-2.2 5.8-5.4 0-2.8-1.5-3.8-4.2-4.5-1.4-.4-2.4-.6-2.4-1.7 0-.7.7-1.3 1.7-1.3a4.56 4.56 0 012.9 1.2l1.3-3a7.75 7.75 0 00-4.5-1.4c-3.2 0-5.2 2.1-5.2 4.9 0 2.4 1.3 3.5 4.1 4.2 1.7.4 2.6.8 2.6 2 0 .9-.7 1.6-1.9 1.6-1.3.2-2.5-.5-3.7-1.9m-14.8 0l-1.9 3.1a7.32 7.32 0 005.4 2.2c3.6 0 5.8-2.2 5.8-5.4 0-2.8-1.5-3.8-4.2-4.5-1.4-.4-2.4-.6-2.4-1.7 0-.7.7-1.3 1.7-1.3a4.56 4.56 0 012.9 1.2l1.3-3a7.75 7.75 0 00-4.5-1.4c-3.2 0-5.2 2.1-5.2 4.9 0 2.4 1.3 3.5 4.1 4.2 1.7.4 2.6.8 2.6 2 0 .9-.7 1.6-1.9 1.6-1.3.2-2.5-.5-3.7-1.9m-15.3 4.9h9.3v-3.4h-5.3v-2.6h5V466h-5v-2.6h5.3V460h-9.3zM322.2 441.8h9.3v-3.4h-5.3v-2.6h5v-3.2h-5V430h5.3v-3.3h-9.3zm-12 0h4.1v-11.6h3.4v-3.6h-10.9v3.6h3.4zm-16.4-4.9l-1.9 3.1a7.32 7.32 0 005.4 2.2c3.6 0 5.8-2.2 5.8-5.4 0-2.8-1.5-3.8-4.2-4.5-1.4-.4-2.4-.6-2.4-1.7 0-.7.7-1.3 1.7-1.3a4.56 4.56 0 012.9 1.2l1.3-3a7.75 7.75 0 00-4.5-1.4c-3.2 0-5.2 2.1-5.2 4.9 0 2.4 1.3 3.5 4.1 4.2 1.7.4 2.6.8 2.6 2 0 .9-.7 1.6-1.9 1.6-1.3.2-2.5-.5-3.7-1.9m-21.3 4.9h4v-7.5c0-.8-.1-1.8-.2-3a13.39 13.39 0 001.4 2.7l5.7 7.8h4v-15.2h-4v7.5c0 .8.1 1.8.2 3a13.39 13.39 0 00-1.4-2.7l-5.7-7.8h-4zm-19.1-15.2v8.2c0 2.4.1 4.2 1.3 5.5s2.9 1.8 5.4 1.8c4.8 0 6.8-2 6.8-6.6v-9h-4.1v7.3c0 3.3-.1 4.8-2.6 4.8-2.1 0-2.6-1.2-2.6-3.9v-8.2h-4.2zm7.3-3.5a1.54 1.54 0 001.5 1.5 1.47 1.47 0 001.5-1.5 1.54 1.54 0 00-1.5-1.5 1.47 1.47 0 00-1.5 1.5m-4.1 0a1.54 1.54 0 001.5 1.5 1.5 1.5 0 000-3 1.54 1.54 0 00-1.5 1.5m-21.1 18.7h4.1V435l5 6.8h5.2l-6.1-7.8 5.6-7.4h-4.8l-4.8 6.9v-6.9h-4.1v15.2zm-29.7 0h4v-7.5c0-.8-.1-1.8-.2-3a13.39 13.39 0 001.4 2.7l5.7 7.8h4v-15.2h-4v7.5c0 .8.1 1.8.2 3a13.39 13.39 0 00-1.4-2.7l-5.7-7.8h-4zm-14.6 0h9.3v-3.4h-5.3v-2.6h5v-3.2h-5V430h5.3v-3.3h-9.3zm-18.8 0h4.2c2.5 0 4.6-.1 6.5-1.4a8.08 8.08 0 000-12.4c-2-1.4-4.3-1.4-7.1-1.4h-3.7v15.2zm4.1-3.4V430h.7c3.1 0 4.7 1.2 4.7 4.2s-1.5 4.2-4.7 4.2zm-24.7 3.4h4v-7.5c0-.8-.1-1.8-.2-3a13.39 13.39 0 001.4 2.7l5.7 7.8h4v-15.2h-4v7.5c0 .8.1 1.8.2 3a13.39 13.39 0 00-1.4-2.7l-5.7-7.8h-4zm-14.5 0h9.3v-3.4h-5.3v-2.6h5v-3.2h-5V430h5.3v-3.3h-9.3zm-18.8 0h4.2c2.5 0 4.6-.1 6.5-1.4a8.08 8.08 0 000-12.4c-2-1.4-4.3-1.4-7.1-1.4h-3.7v15.2zm4.1-3.4V430h.7c3.1 0 4.7 1.2 4.7 4.2s-1.5 4.2-4.7 4.2zm-17.9 3.4h9.3v-3.5h-5.1v-11.6h-4.1v15.1zm-10.1 0h4.2v-15.2h-4.2zm-13.1-9.1v-3.1h.9c1.7 0 2.6.2 2.6 1.6s-.9 1.5-2.7 1.5zm-3.9 9.1h4.3c2.5 0 4.3 0 5.7-.8a3.89 3.89 0 002-3.6c0-2.3-1.3-3.7-3.4-3.8 1.9-.5 2.8-1.5 2.8-3.2a3.38 3.38 0 00-2.1-3.3 11.61 11.61 0 00-4.5-.5h-4.6v15.2zm3.9-3.1v-3.3H83c1.8 0 2.6.3 2.6 1.7s-.9 1.6-2.7 1.6zM293.5 408.4h3.9v-5.9l3.5 5.9h4.7l-4.1-6.1a4.06 4.06 0 003.4-4.3 4.39 4.39 0 00-1.7-3.7c-1.3-1-2.9-1-5-1h-4.6v15.1zm3.8-8v-4h.8c1.7 0 2.5.5 2.5 2.1 0 1.3-.8 1.9-2.6 1.9zm-18.4 8h9.3V405h-5.3v-2.6h5v-3.2h-5v-2.6h5.3v-3.3h-9.3zm-18.8 0h4.2c2.5 0 4.6-.1 6.5-1.4a8.08 8.08 0 000-12.4c-2-1.4-4.3-1.4-7.1-1.4H260v15.2zm4.1-3.4v-8.4h.7c3.1 0 4.7 1.2 4.7 4.2s-1.5 4.2-4.7 4.2zm-27.8 3.4h9.3V405h-5.3v-2.6h5v-3.2h-5v-2.6h5.3v-3.3h-9.3zm-13.8 0h9.3v-3.5h-5.1v-11.6h-4.1v15.1zm-19.2-15.2v8.2c0 2.4.1 4.2 1.3 5.5s2.9 1.8 5.4 1.8c4.8 0 6.8-2 6.8-6.6v-9h-4.1v7.3c0 3.3-.1 4.8-2.6 4.8-2.1 0-2.6-1.2-2.6-3.9v-8.2h-4.2zM184 408.4h4.1v-6.2h5.5v6.2h4.1v-15.2h-4.1v5.9h-5.5v-5.9H184zm-4.9-14.6a9.4 9.4 0 00-3.9-1c-4.5 0-7.7 3.4-7.7 8s3.2 8 7.7 8a7.82 7.82 0 003.9-1v-4.5a4.65 4.65 0 01-3.5 1.8 4 4 0 01-4-4.2c0-2.6 1.6-4.4 4-4.4a4.65 4.65 0 013.5 1.8zm-25.2 9.7l-1.9 3.1a7.48 7.48 0 005.4 2.2c3.6 0 5.8-2.2 5.8-5.4 0-2.8-1.5-3.8-4.2-4.5-1.4-.4-2.4-.6-2.4-1.7 0-.7.7-1.3 1.7-1.3a4.56 4.56 0 012.9 1.2l1.3-3a7.75 7.75 0 00-4.5-1.4c-3.2 0-5.2 2.1-5.2 4.9 0 2.4 1.3 3.5 4.1 4.2 1.7.4 2.6.8 2.6 2 0 .9-.7 1.6-1.9 1.6-1.3.2-2.4-.5-3.7-1.9m-20.2 4.9h4.1v-6.2h5.5v6.2h4.1v-15.2h-4.1v5.9h-5.5v-5.9h-4.1zm-4.8-14.6a9.4 9.4 0 00-3.9-1c-4.5 0-7.7 3.4-7.7 8s3.2 8 7.7 8a7.82 7.82 0 003.9-1v-4.5a4.65 4.65 0 01-3.5 1.8 4 4 0 01-4-4.2c0-2.6 1.6-4.4 4-4.4a4.65 4.65 0 013.5 1.8zm-16.1 7a7.57 7.57 0 00-2.4-5.6 8.34 8.34 0 00-11.5 0 8 8 0 00-2.4 5.6 7.44 7.44 0 003 6.1 8.22 8.22 0 005.2 1.8 8.52 8.52 0 005.8-2.3 7.94 7.94 0 002.3-5.6m-8.1 4.5c-2.4 0-4-2-4-4.5s1.6-4.5 4-4.5a4.2 4.2 0 014 4.5c-.1 2.5-1.7 4.5-4 4.5m-27.1 3.1h4.1v-6.2h5.5v6.2h4.1v-15.2h-4.1v5.9h-5.5v-5.9h-4.1zM245.9 343.3h29.7v-27.8a101.7 101.7 0 00-1.9-17.1h.9l27.3 44.9h29.7v-85.5h-29.7v25.6c0 7.3 1.4 14.6 2.6 21.8h-.9l-27.9-47.4h-29.8v85.5zM160.3 228.2a76.49 76.49 0 0032.9 7.8c18.5 0 37.1-10.1 37.1-30.5 0-14.5-9.5-21.5-22.7-24.5l-7-1.6c-2.4-.6-6.2-1-6.2-4.2 0-3.5 4-4.5 6.7-4.5 6.7 0 12.7 2.8 18 6.5l8.4-21.9a50.83 50.83 0 00-27.1-7.5c-18.6 0-37.1 11.3-37.1 31.6 0 13.4 10.2 20.5 22.3 22.7l6.2 1.1c2.8.6 6.9.9 6.9 4.8s-4.9 5.1-7.9 5.1c-7.1 0-13.8-3.5-19.4-7.8l-1.6-1.2z" transform="translate(-76.2 -40.4)"/><path class="cls-1" d="M1.4 108.8v85.5h62.9v-23.4H32.7v-8.4h28.4v-22.2H32.7v-8.2h30.7v-23.3h-62zM86.5 217.4v85.5h62.8v-23.3h-31.5v-8.4h28.4v-22.3h-28.4v-8.1h30.6v-23.4H86.5z"/><path class="cls-1" d="M76.2 336.8a76.49 76.49 0 0032.9 7.8c18.5 0 37.1-10.1 37.1-30.5 0-14.5-9.5-21.5-22.7-24.5l-7-1.6c-2.4-.6-6.2-1-6.2-4.2 0-3.5 4-4.5 6.7-4.5 6.7 0 12.7 2.8 18 6.5l8.4-21.9a50.83 50.83 0 00-27.1-7.5c-18.6 0-37.1 11.3-37.1 31.6 0 13.4 10.2 20.5 22.3 22.7l6.2 1.1c2.8.6 6.9.9 6.9 4.8s-4.9 5.1-7.9 5.1c-7.1 0-13.8-3.5-19.4-7.8l-1.6-1.2zM263 126h30.3l-.7-35.8h.7c.7 3.5 3.4 6.7 5.2 10l14.7 25.8h36l-29.6-43.9 26.8-41.6h-33.9l-15 27.4c-1.7 3.1-3.6 6.1-4.3 9.6h-.7l.7-37.1H263z" transform="translate(-76.2 -40.4)"/><path class="cls-1" d="M50.4.1v28.8H31.3V.1H1.4v85.5h29.9V55.9h19.1v29.7h29.9V.1H50.4z"/><path class="cls-1" d="M241.9 61.3a20.71 20.71 0 00-20.2-20.7h-43.1V126H223a23.17 23.17 0 006.2-45.5 20.86 20.86 0 0012.7-19.2" transform="translate(-76.2 -40.4)"/></svg>