<?xml version="1.0" encoding="utf-8"?>
<!-- Generator: Adobe Illustrator 24.0.1, SVG Export Plug-In . SVG Version: 6.00 Build 0)  -->
<svg version="1.1" id="Ebene_1" xmlns="http://www.w3.org/2000/svg" xmlns:xlink="http://www.w3.org/1999/xlink" x="0px" y="0px"
	 viewBox="0 0 183.3 92.2" style="enable-background:new 0 0 183.3 92.2;" xml:space="preserve">
<style type="text/css">
	.st0{clip-path:url(#SVGID_2_);}
	.st1{fill:#1D1D1B;}
</style>
<title>2Element 1</title>
<g id="Ebene_2_1_">
	<g id="Ebene_1-2">
		<g>
			<defs>
				<rect id="SVGID_1_" y="0" width="183.3" height="92.2"/>
			</defs>
			<clipPath id="SVGID_2_">
				<use xlink:href="#SVGID_1_"  style="overflow:visible;"/>
			</clipPath>
			<g class="st0">
				<path class="st1" d="M47.7,71.1c0-1.3-0.7-1.9-2.2-1.9h-1.9c-0.1,0-0.2,0.1-0.2,0.1c0,0,0,0,0,0v3.5c0,0.1,0,0.1,0.1,0.2
					c0,0,0,0,0,0h1.9C47,73,47.7,72.4,47.7,71.1 M48,78.4c0.1-1.1-0.7-2-1.8-2.1c-0.1,0-0.3,0-0.4,0h-2.1c-0.1,0-0.2,0.1-0.2,0.1
					c0,0,0,0,0,0v3.9c0,0.1,0,0.1,0.1,0.2c0,0,0,0,0,0h2.1c1,0.2,2-0.6,2.2-1.6C48,78.7,48,78.5,48,78.4 M67.2,71.6
					c0.1-1-0.7-1.9-1.8-2c-0.1,0-0.2,0-0.3,0h-2.5c-0.1,0-0.2,0.1-0.2,0.2v3.6c0,0.1,0,0.1,0.1,0.2c0,0,0,0,0,0h2.5
					c1,0.1,2-0.6,2.1-1.7C67.2,71.7,67.2,71.6,67.2,71.6 M176.2,49.1h-7c-0.3,0-0.5-0.1-0.6-0.4l-5.2-10.3l-2.9,3.9v6.4
					c0,0.2-0.1,0.4-0.4,0.4c0,0,0,0,0,0H154c-0.2,0-0.4-0.2-0.4-0.4c0,0,0,0,0,0V22.1c0-0.2,0.1-0.4,0.3-0.4c0,0,0,0,0,0h6.1
					c0.2,0,0.4,0.2,0.4,0.4c0,0,0,0,0,0v10.7l7.6-10.8c0.1-0.2,0.4-0.4,0.7-0.4h6.9c0.3,0,0.4,0.3,0.2,0.5l-8,10.6l8.4,15.9
					c0.1,0.1,0.1,0.3,0,0.4C176.3,49.1,176.2,49.1,176.2,49.1 M149.3,83.8c0,0.1-0.1,0.3-0.2,0.3c0,0,0,0,0,0h-3.9
					c-0.2,0-0.4-0.1-0.4-0.3l-5.4-10.5h-0.2v10.5c0,0.1-0.1,0.3-0.2,0.3c0,0,0,0,0,0h-3.7c-0.1,0-0.3-0.1-0.3-0.2c0,0,0,0,0,0v-18
					c0-0.1,0.1-0.3,0.2-0.3c0,0,0,0,0,0h3.9c0.2,0,0.4,0.1,0.4,0.3l5.5,10.5h0.1V65.8c0-0.1,0.1-0.3,0.2-0.3c0,0,0,0,0,0h3.7
					c0.1,0,0.3,0.1,0.3,0.2c0,0,0,0,0,0L149.3,83.8z M148.6,27.3c0,0.2-0.1,0.4-0.3,0.4c0,0,0,0,0,0h-10.7c-0.2,0-0.2,0.1-0.2,0.2
					v4.5c0,0.2,0.1,0.2,0.2,0.2h8.8c0.2,0,0.4,0.2,0.4,0.4c0,0,0,0,0,0v5.1c0,0.2-0.1,0.4-0.3,0.4c0,0,0,0,0,0h-8.8
					c-0.2,0-0.2,0.1-0.2,0.2v9.9c0,0.2-0.1,0.4-0.4,0.4c0,0,0,0,0,0h-6.1c-0.2,0-0.4-0.1-0.4-0.3c0,0,0,0,0-0.1V22.1
					c0-0.2,0.1-0.4,0.3-0.4c0,0,0,0,0,0h17.4c0.2,0,0.4,0.2,0.4,0.4c0,0,0,0,0,0L148.6,27.3z M129.9,83.8c0,0.1-0.1,0.3-0.2,0.3
					c0,0,0,0,0,0h-11.8c-0.1,0-0.3-0.1-0.3-0.2c0,0,0,0,0,0v-18c0-0.1,0.1-0.3,0.2-0.3c0,0,0,0,0,0h11.8c0.1,0,0.3,0.1,0.3,0.2
					c0,0,0,0,0,0v3.5c0,0.1-0.1,0.3-0.2,0.3c0,0,0,0,0,0h-7.3c-0.1,0-0.2,0.1-0.2,0.2v2.8c0,0.1,0,0.2,0.2,0.2h6
					c0.1,0,0.3,0.1,0.3,0.2c0,0,0,0,0,0v3.5c0,0.1-0.1,0.3-0.2,0.3c0,0,0,0,0,0h-6c-0.1,0-0.1,0-0.2,0.1c0,0,0,0,0,0v3
					c0,0.1,0,0.2,0.2,0.2h7.3c0.1,0,0.3,0.1,0.3,0.2c0,0,0,0,0,0V83.8z M123,48.7c0,0.2-0.1,0.4-0.4,0.4c0,0,0,0,0,0h-6.1
					c-0.2,0-0.4-0.2-0.4-0.4c0,0,0,0,0,0V38.6c0-0.2-0.1-0.3-0.2-0.3h-7.3c-0.2,0-0.2,0.1-0.2,0.3v10.1c0,0.2-0.1,0.4-0.4,0.4
					c0,0,0,0,0,0h-6.1c-0.2,0-0.4-0.2-0.4-0.4c0,0,0,0,0,0V22.1c0-0.2,0.1-0.4,0.3-0.4c0,0,0,0,0,0h6.1c0.2,0,0.4,0.2,0.4,0.4
					c0,0,0,0,0,0v9.7c0,0.1,0.1,0.2,0.2,0.2c0,0,0,0,0.1,0h7.3c0.1,0,0.2-0.1,0.2-0.2c0,0,0,0,0-0.1v-9.7c0-0.2,0.1-0.4,0.3-0.4
					c0,0,0,0,0,0h6.1c0.2,0,0.4,0.2,0.4,0.4c0,0,0,0,0,0L123,48.7z M99.1,65.7l4.2,9.7h0.1l4.1-9.7c0.1-0.2,0.3-0.3,0.4-0.3h3.9
					c0.1,0,0.3,0.1,0.3,0.2c0,0,0,0,0,0v18c0,0.1-0.1,0.3-0.2,0.3c0,0,0,0,0,0h-3.7c-0.1,0-0.3-0.1-0.3-0.2c0,0,0,0,0,0v-9.5h-0.1
					l-2.9,6.9c-0.1,0.2-0.3,0.4-0.5,0.4h-2.1c-0.2,0-0.4-0.2-0.5-0.4l-2.9-6.9h-0.1v9.6c0,0.1-0.1,0.3-0.2,0.3c0,0,0,0,0,0h-3.7
					c-0.1,0-0.3-0.1-0.3-0.2c0,0,0,0,0,0v-18c0-0.1,0.1-0.3,0.2-0.3c0,0,0,0,0,0h3.9C98.9,65.5,99,65.7,99.1,65.7 M89.4,83.8
					c0,0.1-0.1,0.3-0.2,0.3c0,0,0,0,0,0H77.3c-0.1,0-0.3-0.1-0.3-0.2c0,0,0,0,0,0v-18c0-0.1,0.1-0.3,0.2-0.3c0,0,0,0,0,0h11.8
					c0.1,0,0.3,0.1,0.3,0.2c0,0,0,0,0,0v3.5c0,0.1-0.1,0.3-0.2,0.3c0,0,0,0,0,0h-7.3c-0.1,0-0.2,0.1-0.2,0.2v2.8
					c0,0.1,0,0.2,0.2,0.2h6c0.1,0,0.3,0.1,0.3,0.2c0,0,0,0,0,0v3.5c0,0.1-0.1,0.3-0.2,0.3c0,0,0,0,0,0h-6c-0.1,0-0.1,0-0.2,0.1
					c0,0,0,0,0,0v3c0,0.1,0,0.2,0.2,0.2h7.3c0.1,0,0.3,0.1,0.3,0.2c0,0,0,0,0,0L89.4,83.8z M72,84.1h-4.6c-0.2,0-0.4-0.1-0.4-0.3
					l-2.7-6.4h-1.7c-0.1,0-0.2,0.1-0.2,0.2v6.2c0,0.1-0.1,0.3-0.2,0.3c0,0,0,0,0,0H58c-0.1,0-0.3-0.1-0.3-0.2c0,0,0,0,0,0v-18
					c0-0.1,0.1-0.3,0.2-0.3c0,0,0,0,0,0h7.4c4.2,0,6.5,2.5,6.5,6c0.1,2.2-1.1,4.2-3,5.2l3.3,7.1C72.3,84,72.2,84.2,72,84.1
					 M50.2,74.5L50.2,74.5c1.6,0.8,2.6,2.4,2.5,4.2c0,3.6-2.5,5.4-6.3,5.4h-7.3c-0.1,0-0.3-0.1-0.3-0.2c0,0,0,0,0,0v-18
					c0-0.1,0.1-0.3,0.2-0.3c0,0,0,0,0,0h7.4c4,0,5.9,2,5.9,5C52.5,72.2,51.6,73.7,50.2,74.5 M183.3,59.8V0.8c0-0.4-0.3-0.8-0.7-0.8
					c0,0,0,0,0,0H48.6c-0.4,0-0.8,0.3-0.8,0.8c0,0,0,0,0,0v48.5H0.6c-0.3,0-0.6,0.2-0.6,0.5c0,0,0,0,0,0v41.8c0,0.3,0.2,0.6,0.5,0.6
					c0,0,0,0,0,0h156.1c0.3,0,0.6-0.2,0.6-0.5c0,0,0,0,0,0V60.6h25.4C183,60.7,183.3,60.3,183.3,59.8
					C183.3,59.9,183.3,59.9,183.3,59.8"/>
			</g>
		</g>
	</g>
</g>
</svg>
