<svg xmlns="http://www.w3.org/2000/svg" viewBox="0 0 136.47 28.31"><defs><style>.cls-1{fill:#1d1d1b;}.cls-2{fill:#fff;}</style></defs><title>2Element 1</title><g id="Ebene_2" data-name="Ebene 2"><g id="Ebene_1-2" data-name="Ebene 1"><path class="cls-1" d="M57.7,0H15.37a.24.24,0,0,0-.25.25V15.13H.18a.18.18,0,0,0-.18.18V28.13a.18.18,0,0,0,.18.18H49.51a.17.17,0,0,0,.17-.18v-9.5h8a.24.24,0,0,0,.25-.25V.25A.24.24,0,0,0,57.7,0"/><path class="cls-2" d="M15.18,24.07c0,.42-.24.65-.7.65h-.67s-.05,0-.05,0V23.49s0-.06.05-.06h.67a.61.61,0,0,1,.7.64m-.1-2.24c0,.39-.23.59-.68.59h-.59s-.05,0-.05-.05V21.29s0-.05.05-.05h.59c.46,0,.68.19.68.59m.78,1.06v0a1.3,1.3,0,0,0,.69-1.22c0-.91-.58-1.52-1.86-1.52H12.36a.07.07,0,0,0-.08.08v5.54a.08.08,0,0,0,.08.09h2.3c1.2,0,2-.53,2-1.65a1.35,1.35,0,0,0-.79-1.3M21.24,22a.6.6,0,0,1-.67.61h-.79a0,0,0,0,1-.05-.05V21.43s0-.05.05-.05h.79a.59.59,0,0,1,.67.6m1.53,3.86c.06,0,.08-.05.06-.1l-1-2.18a1.71,1.71,0,0,0,.94-1.6,1.82,1.82,0,0,0-2.06-1.83H18.34a.08.08,0,0,0-.09.08v5.54a.09.09,0,0,0,.09.09h1.31a.08.08,0,0,0,.08-.09V23.86s0-.06.05-.06h.55l.86,1.95c0,.06,0,.09.13.09Zm5.49-.09V24.67a.09.09,0,0,0-.09-.09H25.88s-.05,0-.05,0v-.92a0,0,0,0,1,.05-.05h1.88a.08.08,0,0,0,.09-.08V22.43a.09.09,0,0,0-.09-.09H25.88s-.05,0-.05-.05v-.86s0-.05.05-.05h2.29a.09.09,0,0,0,.09-.09V20.21a.08.08,0,0,0-.09-.08H24.44a.08.08,0,0,0-.09.08v5.54a.09.09,0,0,0,.09.09h3.73a.09.09,0,0,0,.09-.09m4.38-2.56-1.32-3a.14.14,0,0,0-.15-.08H29.93a.07.07,0,0,0-.08.08v5.54a.08.08,0,0,0,.08.09H31.1a.08.08,0,0,0,.08-.09V22.81h.05L32.14,25a.2.2,0,0,0,.16.11H33a.17.17,0,0,0,.15-.11L34,22.81h0v2.94a.08.08,0,0,0,.09.09h1.16a.09.09,0,0,0,.09-.09V20.21a.08.08,0,0,0-.09-.08H34.1a.14.14,0,0,0-.15.08l-1.28,3ZM38.87,15V6.8a.12.12,0,0,0-.12-.12H36.81a.12.12,0,0,0-.12.12v3a.07.07,0,0,1-.08.08H34.32s-.07,0-.07-.08v-3a.12.12,0,0,0-.13-.12H32.19a.12.12,0,0,0-.12.12V15a.12.12,0,0,0,.12.12h1.93a.12.12,0,0,0,.13-.12V11.87s0-.08.07-.08h2.29a.07.07,0,0,1,.08.08V15a.12.12,0,0,0,.12.12h1.94a.12.12,0,0,0,.12-.12m2.18,10.77V24.67a.08.08,0,0,0-.08-.09H38.68s0,0,0,0v-.92s0-.05,0-.05h1.88a.07.07,0,0,0,.08-.08V22.43a.08.08,0,0,0-.08-.09H38.68s0,0,0-.05v-.86s0-.05,0-.05H41a.08.08,0,0,0,.08-.09V20.21a.07.07,0,0,0-.08-.08H37.23a.07.07,0,0,0-.08.08v5.54a.08.08,0,0,0,.08.09H41a.08.08,0,0,0,.08-.09M47,8.4V6.8a.12.12,0,0,0-.12-.12H41.35a.12.12,0,0,0-.13.12V15a.12.12,0,0,0,.13.12h1.93A.12.12,0,0,0,43.4,15v-3s0-.07.08-.07h2.77a.12.12,0,0,0,.13-.13V10.18a.12.12,0,0,0-.13-.12H43.48A.07.07,0,0,1,43.4,10V8.6a.07.07,0,0,1,.08-.08h3.38A.12.12,0,0,0,47,8.4m.22,17.35V20.21a.07.07,0,0,0-.08-.08H45.94a.07.07,0,0,0-.08.08v3.23h0L44.1,20.21a.13.13,0,0,0-.14-.08H42.73a.08.08,0,0,0-.09.08v5.54a.09.09,0,0,0,.09.09H43.9a.09.09,0,0,0,.09-.09V22.53h0l1.7,3.22a.16.16,0,0,0,.14.09h1.24a.08.08,0,0,0,.08-.09M55.77,15,53.1,10.09l2.52-3.25c.05-.08,0-.16-.08-.16H53.36a.25.25,0,0,0-.21.11l-2.41,3.3V6.8a.12.12,0,0,0-.13-.12H48.68a.12.12,0,0,0-.12.12V15a.12.12,0,0,0,.12.12h1.93a.12.12,0,0,0,.13-.12V13l.9-1.2L53.28,15c0,.07.08.11.2.11h2.21a.09.09,0,0,0,.08-.14"/><path class="cls-1" d="M89.56,25.83a.06.06,0,0,0,.07-.07v-2A1.09,1.09,0,0,0,88.5,22.5a1,1,0,0,0-.91.44h0v-.3a.07.07,0,0,0-.07-.07h-.44s-.06,0-.06.07v3.12s0,.07.06.07h.44a.07.07,0,0,0,.07-.07V23.82a.72.72,0,0,1,.74-.79c.49,0,.73.31.73.83v1.9a.07.07,0,0,0,.07.07Zm-5.87-1.91,0,0a1.32,1.32,0,0,1,0-.37.74.74,0,0,1,.75-.51.75.75,0,0,1,.75.51,1.35,1.35,0,0,1,0,.37l0,0Zm.79,2a1.61,1.61,0,0,0,1.27-.56s0-.07,0-.1L85.47,25a.07.07,0,0,0-.1,0,1.05,1.05,0,0,1-.84.36.79.79,0,0,1-.82-.56,1.07,1.07,0,0,1-.06-.39l0,0h2.06a.07.07,0,0,0,.08-.07,3.07,3.07,0,0,0-.1-.93,1.27,1.27,0,0,0-1.28-.88,1.25,1.25,0,0,0-1.28.88,2.41,2.41,0,0,0-.1.82,2.49,2.49,0,0,0,.11.82,1.26,1.26,0,0,0,1.3.89m-2.63-.08a.07.07,0,0,0,.06-.07v-2a1.09,1.09,0,0,0-1.16-1.22,1.2,1.2,0,0,0-1,.51h0a1,1,0,0,0-1-.51,1,1,0,0,0-.91.44h0v-.3a.07.07,0,0,0-.07-.07h-.43a.07.07,0,0,0-.07.07v3.12a.07.07,0,0,0,.07.07h.43a.07.07,0,0,0,.07-.07V23.82a.73.73,0,0,1,.75-.79c.49,0,.73.31.73.83v1.9a.06.06,0,0,0,.07.07h.43a.07.07,0,0,0,.07-.07V23.82a.73.73,0,0,1,.75-.79c.48,0,.72.31.72.83v1.9a.07.07,0,0,0,.07.07Zm-7.92-1.91,0,0a1,1,0,0,1,0-.37.73.73,0,0,1,.74-.51.74.74,0,0,1,.75.51,1.32,1.32,0,0,1,0,.37l0,0Zm.79,2A1.61,1.61,0,0,0,76,25.35a.08.08,0,0,0,0-.1L75.7,25a.07.07,0,0,0-.1,0,1.05,1.05,0,0,1-.84.36.79.79,0,0,1-.82-.56,1.37,1.37,0,0,1,0-.39l0,0H76a.06.06,0,0,0,.07-.07,2.77,2.77,0,0,0-.1-.93,1.26,1.26,0,0,0-1.28-.88,1.24,1.24,0,0,0-1.27.88,2.37,2.37,0,0,0-.11.82,2.49,2.49,0,0,0,.11.82,1.28,1.28,0,0,0,1.31.89m-3.64-.08a.07.07,0,0,0,.07-.07V24c0-.56.2-.95.7-.95a.88.88,0,0,1,.5.16.07.07,0,0,0,.1,0l.25-.33s0-.06,0-.09A1,1,0,0,0,72,22.5a.89.89,0,0,0-.86.48h0v-.34a.07.07,0,0,0-.07-.07h-.43a.07.07,0,0,0-.07.07v3.12a.07.07,0,0,0,.07.07Zm-4.26-.59V23.8l0,0h1.08c.55,0,.85.3.85.76s-.3.76-.85.76H66.86Zm0-2,0,0V21.8l0,0h1a.71.71,0,0,1,.81.73.72.72,0,0,1-.81.72Zm-.64,2.55s0,.07.06.07h1.61c1,0,1.5-.46,1.5-1.32a1.08,1.08,0,0,0-.69-1.07h0a1,1,0,0,0,.61-1c0-.74-.46-1.22-1.39-1.22H66.28s-.06,0-.06.07Z"/><path class="cls-1" d="M129.46,18.7c.89,0,1.43-.48,1.43-1.22,0-.41-.25-.69-.82-.75l-.32,0c-.4,0-.52-.16-.52-.37s.27-.56.71-.56a1.48,1.48,0,0,1,.79.25s.06,0,.09,0l.26-.26v-.09a1.69,1.69,0,0,0-1-.36c-.77,0-1.33.41-1.33,1.12,0,.43.26.71.83.77l.32,0c.38,0,.51.15.51.37s-.31.62-.82.62a1.26,1.26,0,0,1-.91-.36.06.06,0,0,0-.09,0l-.29.28v.09a1.7,1.7,0,0,0,1.23.48m-2.34,0a.07.07,0,0,0,.07-.07l.06-.36a.05.05,0,0,0,0-.07h-.13c-.31,0-.39-.09-.33-.44l.35-1.87,0,0h.51a.08.08,0,0,0,.08-.07l0-.3a.05.05,0,0,0,0-.07h-.51l0,0,.16-.92s0-.06,0-.06h-.41s-.07,0-.07.06l-.17.92,0,0h-.28a.08.08,0,0,0-.08.07l0,.3a.05.05,0,0,0,0,.07h.27l0,0-.36,1.89c-.11.64.08.92.68.92Zm-3.48,0s.06,0,.07-.07l.32-1.79c.1-.56.37-1,.85-1a.72.72,0,0,1,.45.16.08.08,0,0,0,.1,0l.28-.3a.09.09,0,0,0,0-.1.8.8,0,0,0-.61-.24,1.06,1.06,0,0,0-.9.49h0l.06-.35a.05.05,0,0,0-.05-.07h-.41a.08.08,0,0,0-.08.07l-.55,3.12a.06.06,0,0,0,.06.07ZM120,17l1.11-2.15h0l.33,2.15Zm-1.36,1.62h.48a.09.09,0,0,0,.09-.07l.53-1h1.8l.16,1c0,.05,0,.07.08.07h.42a.05.05,0,0,0,.05-.07l-.73-4.49s0-.06-.07-.06h-.41a.09.09,0,0,0-.09.06l-2.34,4.49s0,.07,0,.07m-4.37-1.9,0,0a1.56,1.56,0,0,1,.12-.4.89.89,0,0,1,.82-.52.57.57,0,0,1,.63.65.93.93,0,0,1,0,.27l0,0Zm.46,2a1.81,1.81,0,0,0,1.28-.55.07.07,0,0,0,0-.1l-.21-.24s-.06,0-.1,0a1.26,1.26,0,0,1-.88.39c-.46,0-.7-.23-.7-.73a1.37,1.37,0,0,1,0-.28l0,0h2a.08.08,0,0,0,.08-.07,3.14,3.14,0,0,0,.09-.68,1,1,0,0,0-1.09-1.11,1.4,1.4,0,0,0-1.37.86,3.55,3.55,0,0,0-.29,1.4,1,1,0,0,0,1.13,1.14m-2.6-.07a.07.07,0,0,0,.07-.07l.37-2c.13-.75-.19-1.22-.88-1.22a1.18,1.18,0,0,0-1,.45h0l.3-1.68A.05.05,0,0,0,111,14h-.41a.07.07,0,0,0-.07.06l-.8,4.49s0,.07.06.07h.41s.06,0,.07-.07l.35-1.95a.92.92,0,0,1,.87-.82c.47,0,.65.31.55.86l-.34,1.91a.07.07,0,0,0,.06.07Zm-3.69,0s.06,0,.07-.07l.06-.36a.05.05,0,0,0,0-.07h-.14c-.3,0-.39-.09-.32-.44l.35-1.87,0,0H109a.07.07,0,0,0,.07-.07l.06-.3a.06.06,0,0,0-.06-.07h-.5l0,0,.16-.92s0-.06,0-.06h-.41a.08.08,0,0,0-.08.06l-.16.92,0,0h-.28s-.06,0-.07.07l0,.3a.05.05,0,0,0,0,.07h.27l0,0-.35,1.89c-.11.64.08.92.68.92Zm-4.87,0a.07.07,0,0,0,.06-.07l.49-2.71,0,0h.61a.08.08,0,0,0,.08-.07l0-.3a.06.06,0,0,0-.06-.07h-.61l0,0,.07-.32c.07-.42.18-.51.57-.51H105s.06,0,.07-.07l.06-.36s0-.06-.05-.06h-.24c-.66,0-1,.27-1.13,1l0,.3,0,0h-.28a.08.08,0,0,0-.08.07l0,.3s0,.07,0,.07h.28l0,0-.48,2.71a.05.05,0,0,0,0,.07Zm-3.07-.42c-.45,0-.63-.26-.63-.72a3.56,3.56,0,0,1,.26-1.17.85.85,0,0,1,.8-.53c.45,0,.63.26.63.71a3.82,3.82,0,0,1-.25,1.18.89.89,0,0,1-.81.53m-.07.49a1.41,1.41,0,0,0,1.37-.82,4.1,4.1,0,0,0,.32-1.47A1,1,0,0,0,101,15.3a1.41,1.41,0,0,0-1.38.83,4,4,0,0,0-.31,1.45,1,1,0,0,0,1.11,1.12m-6.53,1.15c.46,0,.74-.2,1.14-1l1.86-3.45s0-.07,0-.07h-.43a.09.09,0,0,0-.09.07L95.1,17.82h0l-.4-2.38s0-.07-.08-.07h-.42s-.07,0-.06.07l.6,3.09-.16.31c-.21.39-.36.51-.62.51h-.12a.08.08,0,0,0-.08.07l-.06.36a.05.05,0,0,0,0,.07Zm-1.22-1.19a.08.08,0,0,0,.08-.07l.06-.36s0-.07-.06-.07h-.13c-.31,0-.39-.09-.33-.44l.35-1.87,0,0h.5a.08.08,0,0,0,.08-.07l0-.3a.05.05,0,0,0,0-.07h-.51l0,0,.16-.92s0-.06,0-.06h-.41s-.07,0-.07.06l-.17.92,0,0h-.28a.08.08,0,0,0-.08.07l0,.3a.05.05,0,0,0,0,.07h.28l0,0-.35,1.89c-.12.64.07.92.68.92Zm-2.62,0s.06,0,.07-.07l.55-3.12a.05.05,0,0,0,0-.07h-.42s-.06,0-.07.07l-.55,3.12a.06.06,0,0,0,.06.07Zm.72-4s.07,0,.08-.07l.08-.47s0-.06,0-.06h-.45a.08.08,0,0,0-.08.06l-.08.47c0,.05,0,.07.06.07ZM87.15,18.7c.89,0,1.43-.48,1.43-1.22,0-.41-.25-.69-.82-.75l-.32,0c-.4,0-.53-.16-.53-.37s.28-.56.72-.56a1.48,1.48,0,0,1,.79.25s.06,0,.09,0l.26-.26v-.09a1.71,1.71,0,0,0-1.05-.36c-.77,0-1.33.41-1.33,1.12,0,.43.25.71.83.77l.32,0c.38,0,.51.15.51.37s-.31.62-.83.62a1.26,1.26,0,0,1-.9-.36.06.06,0,0,0-.09,0l-.29.28v.09a1.7,1.7,0,0,0,1.23.48m-3.29-.07s.06,0,.06-.07l.32-1.79c.11-.56.38-1,.85-1a.75.75,0,0,1,.46.16.06.06,0,0,0,.09,0l.28-.3a.08.08,0,0,0,0-.1.77.77,0,0,0-.6-.24,1,1,0,0,0-.9.49h0l.07-.35a.05.05,0,0,0,0-.07H84s-.06,0-.07.07l-.55,3.12a.06.06,0,0,0,.06.07Zm-3.41-1.9,0,0a1.57,1.57,0,0,1,.13-.4.87.87,0,0,1,.81-.52.57.57,0,0,1,.64.65,1.48,1.48,0,0,1,0,.27l-.06,0Zm.45,2a1.81,1.81,0,0,0,1.28-.55.07.07,0,0,0,0-.1L82,17.81s-.06,0-.1,0a1.26,1.26,0,0,1-.88.39c-.46,0-.7-.23-.7-.73a.92.92,0,0,1,0-.28l0,0h2a.1.1,0,0,0,.09-.07,3.7,3.7,0,0,0,.08-.68,1,1,0,0,0-1.09-1.11,1.41,1.41,0,0,0-1.37.86,3.55,3.55,0,0,0-.29,1.4A1,1,0,0,0,80.9,18.7m-3.42-.07s.06,0,.08-.07l1.68-3.12s0-.07,0-.07h-.45a.09.09,0,0,0-.09.07l-1.23,2.39h0L77,15.44s0-.07-.07-.07h-.42s-.06,0-.06.07L77,18.56s0,.07.07.07Zm-2.68,0s.06,0,.07-.07l.55-3.12a.05.05,0,0,0,0-.07H75s-.06,0-.07.07l-.55,3.12a.06.06,0,0,0,.06.07Zm.72-4s.07,0,.08-.07l.08-.47s0-.06-.05-.06h-.45a.08.08,0,0,0-.08.06l-.08.47c0,.05,0,.07.06.07Zm-2.65,4a.08.08,0,0,0,.08-.07l.37-2c.13-.75-.19-1.22-.88-1.22a1.18,1.18,0,0,0-1,.45h0l.07-.31s0-.07-.06-.07h-.41a.08.08,0,0,0-.08.07l-.55,3.12s0,.07.06.07h.41s.06,0,.07-.07l.35-1.95a.92.92,0,0,1,.87-.82c.47,0,.65.31.55.86l-.34,1.91s0,.07.06.07Zm-5.32.07c1,0,1.55-.43,1.76-1.63l.53-3s0-.06-.06-.06h-.42a.07.07,0,0,0-.08.06L68.76,17c-.16.88-.55,1.15-1.17,1.15s-1-.39-.83-1.15l.52-2.95a.05.05,0,0,0-.06-.06h-.43a.08.08,0,0,0-.08.06L66.2,17a1.28,1.28,0,0,0,1.35,1.7"/><path class="cls-1" d="M134.33,9.52l0,0a1.27,1.27,0,0,1,.05-.37.73.73,0,0,1,.75-.51.72.72,0,0,1,.74.51,1,1,0,0,1,0,.37l0,0Zm.79,2a1.57,1.57,0,0,0,1.27-.56.06.06,0,0,0,0-.09l-.28-.25s-.07,0-.11,0a1,1,0,0,1-.83.36.8.8,0,0,1-.82-.56,1.09,1.09,0,0,1-.06-.4l0,0h2.06c.05,0,.08,0,.08-.06a3.15,3.15,0,0,0-.1-.94,1.28,1.28,0,0,0-1.28-.88,1.26,1.26,0,0,0-1.28.88,2.49,2.49,0,0,0-.1.82,2.51,2.51,0,0,0,.11.83,1.25,1.25,0,0,0,1.3.88m-2.44,0a.07.07,0,0,0,.07-.07V11a.07.07,0,0,0-.07-.07h-.14c-.29,0-.42-.09-.42-.42V8.67l0,0h.51a.07.07,0,0,0,.07-.07V8.24a.07.07,0,0,0-.07-.07h-.51l0,0V7.21a.05.05,0,0,0-.06-.06h-.44s-.07,0-.07.06v.92l0,0h-.27a.07.07,0,0,0-.07.07v.32a.07.07,0,0,0,.07.07h.27l0,0v1.87c0,.63.25.92.88.92Zm-3.67,0c.85,0,1.31-.43,1.31-1.07s-.32-.85-1-.91l-.34,0c-.48-.05-.64-.18-.64-.44s.21-.45.62-.45a1.73,1.73,0,0,1,.88.27.06.06,0,0,0,.09,0l.23-.29a.06.06,0,0,0,0-.09A1.91,1.91,0,0,0,129,8.09c-.77,0-1.21.38-1.21,1s.34.85,1,.92l.35,0c.51.05.63.2.63.45s-.23.5-.71.5a1.62,1.62,0,0,1-1-.37h-.09l-.28.3V11a2,2,0,0,0,1.35.49m-2.55-.07a.06.06,0,0,0,.07-.07v-2a1.1,1.1,0,0,0-1.13-1.23,1,1,0,0,0-.91.45h0v-.3a.07.07,0,0,0-.07-.07H124s-.06,0-.06.07v3.12s0,.07.06.07h.44a.07.07,0,0,0,.07-.07V9.42a.72.72,0,0,1,.74-.79c.49,0,.73.3.73.83v1.9a.07.07,0,0,0,.07.07Zm-4,0a.07.07,0,0,0,.07-.07V8.24a.07.07,0,0,0-.07-.07H122a.07.07,0,0,0-.07.07v1.93a.72.72,0,0,1-.74.8c-.48,0-.72-.31-.72-.84V8.24s0-.07-.06-.07H120a.07.07,0,0,0-.07.07v2a1.1,1.1,0,0,0,1.13,1.23,1,1,0,0,0,.89-.45h0v.31a.07.07,0,0,0,.07.07Zm-1.68-4a.07.07,0,0,0,.07-.07v-.5a.07.07,0,0,0-.07-.07h-.4a.07.07,0,0,0-.07.07v.5a.07.07,0,0,0,.07.07Zm1.34,0a.07.07,0,0,0,.07-.07v-.5a.07.07,0,0,0-.07-.07h-.4a.07.07,0,0,0-.07.07v.5a.07.07,0,0,0,.07.07Zm-6.58,3.92a.06.06,0,0,0,.07.07h.46a.06.06,0,0,0,.07-.07V10.08l.82-1,1.3,2.27c0,.05,0,.07.1.07h.54a0,0,0,0,0,0-.08l-1.58-2.73,1.44-1.73s0-.09,0-.09h-.56s-.07,0-.1.07l-2,2.41V6.87a.06.06,0,0,0-.07-.07h-.46a.06.06,0,0,0-.07.07Zm-3.9.07a.07.07,0,0,0,.07-.07V9.58c0-.57.2-.95.7-.95a1,1,0,0,1,.5.15s.06,0,.09,0l.25-.33s0-.06,0-.1a1,1,0,0,0-.67-.25.9.9,0,0,0-.86.48h0V8.24a.07.07,0,0,0-.07-.07h-.44a.07.07,0,0,0-.07.07v3.12a.07.07,0,0,0,.07.07Zm-2,0a.07.07,0,0,0,.07-.07V8.24a.07.07,0,0,0-.07-.07h-.44s-.06,0-.06.07v1.93a.73.73,0,0,1-.74.8c-.48,0-.72-.31-.72-.84V8.24a.06.06,0,0,0-.07-.07h-.43a.07.07,0,0,0-.07.07v2a1.1,1.1,0,0,0,1.13,1.23,1,1,0,0,0,.89-.45h0v.31s0,.07.06.07Zm-1.68-4a.07.07,0,0,0,.07-.07v-.5A.07.07,0,0,0,108,6.8h-.4a.07.07,0,0,0-.07.07v.5a.07.07,0,0,0,.07.07Zm1.34,0a.07.07,0,0,0,.07-.07v-.5a.07.07,0,0,0-.07-.07h-.4a.07.07,0,0,0-.07.07v.5a.07.07,0,0,0,.07.07Zm-4,4a.07.07,0,0,0,.07-.07V8.67l0,0h.63a.07.07,0,0,0,.07-.07V8.24a.07.07,0,0,0-.07-.07h-.63l0,0V7.82c0-.4.08-.49.49-.49h.18s.07,0,.07-.06v-.4a.07.07,0,0,0-.07-.07h-.25c-.68,0-1,.28-1,1v.28l0,0h-.27a.07.07,0,0,0-.07.07v.32a.07.07,0,0,0,.07.07h.27l0,0v2.69a.07.07,0,0,0,.07.07ZM99.7,9.52l0,0a1.27,1.27,0,0,1,0-.37.73.73,0,0,1,.75-.51.74.74,0,0,1,.75.51,1.31,1.31,0,0,1,0,.37l0,0Zm.79,2a1.57,1.57,0,0,0,1.27-.56.06.06,0,0,0,0-.09l-.28-.25s-.07,0-.11,0a1,1,0,0,1-.83.36.8.8,0,0,1-.82-.56,1.09,1.09,0,0,1-.06-.4l0,0h2.06s.08,0,.08-.06a3.15,3.15,0,0,0-.1-.94,1.28,1.28,0,0,0-1.28-.88A1.26,1.26,0,0,0,99.18,9a2.49,2.49,0,0,0-.1.82,2.51,2.51,0,0,0,.11.83,1.25,1.25,0,0,0,1.3.88m-2.36,0a.07.07,0,0,0,.07-.07V11a.07.07,0,0,0-.07-.07H98c-.22,0-.32-.09-.32-.36V6.87a.07.07,0,0,0-.07-.07h-.43a.06.06,0,0,0-.07.07V10.6c0,.59.22.86.79.86Zm-2.46,0s.06,0,.06-.07V8.24s0-.07-.06-.07h-.44a.07.07,0,0,0-.07.07v1.93a.72.72,0,0,1-.73.8c-.48,0-.72-.31-.72-.84V8.24a.07.07,0,0,0-.07-.07h-.43a.07.07,0,0,0-.07.07v2a1.09,1.09,0,0,0,1.13,1.23,1,1,0,0,0,.89-.45h0v.31a.07.07,0,0,0,.07.07Zm-3.9,0s.06,0,.06-.07v-2a1.1,1.1,0,0,0-1.12-1.23,1,1,0,0,0-.92.45h0V6.87a.07.07,0,0,0-.07-.07h-.43a.07.07,0,0,0-.07.07v4.49a.07.07,0,0,0,.07.07h.43a.07.07,0,0,0,.07-.07V9.42a.73.73,0,0,1,.75-.79c.49,0,.72.3.72.83v1.9a.07.07,0,0,0,.07.07ZM85.54,9.79a2.82,2.82,0,0,0,.1.83,1.27,1.27,0,0,0,1.29.88A1.31,1.31,0,0,0,88,11s0-.06,0-.1l-.3-.24s-.06,0-.09,0a.82.82,0,0,1-.7.35.71.71,0,0,1-.73-.51,2.36,2.36,0,0,1-.07-.67,2.3,2.3,0,0,1,.07-.65.7.7,0,0,1,.73-.51.8.8,0,0,1,.7.35.06.06,0,0,0,.09,0l.3-.25a.06.06,0,0,0,0-.09,1.31,1.31,0,0,0-1.11-.56A1.28,1.28,0,0,0,85.64,9a2.84,2.84,0,0,0-.1.82M83.26,11.5c.85,0,1.31-.43,1.31-1.07s-.32-.85-1-.91l-.34,0c-.48-.05-.64-.18-.64-.44s.21-.45.62-.45a1.7,1.7,0,0,1,.88.27.06.06,0,0,0,.09,0l.23-.29a.06.06,0,0,0,0-.09,1.9,1.9,0,0,0-1.15-.37c-.77,0-1.21.38-1.21,1s.33.85,1,.92l.34,0c.51.05.64.2.64.45s-.24.5-.72.5a1.57,1.57,0,0,1-1-.37h-.1l-.28.3V11a2.06,2.06,0,0,0,1.35.49m-2.54-.07a.07.07,0,0,0,.07-.07v-2a1.1,1.1,0,0,0-1.13-1.23,1,1,0,0,0-.91.45h0V6.87a.07.07,0,0,0-.07-.07h-.43a.07.07,0,0,0-.07.07v4.49a.07.07,0,0,0,.07.07h.43a.07.07,0,0,0,.07-.07V9.42a.73.73,0,0,1,.75-.79c.49,0,.72.3.72.83v1.9a.07.07,0,0,0,.07.07ZM74.49,9.79a2.82,2.82,0,0,0,.1.83,1.27,1.27,0,0,0,1.29.88A1.29,1.29,0,0,0,77,11s0-.06,0-.1l-.3-.24s-.06,0-.09,0a.81.81,0,0,1-.7.35.71.71,0,0,1-.73-.51,2.36,2.36,0,0,1-.07-.67,2.3,2.3,0,0,1,.07-.65.7.7,0,0,1,.73-.51.79.79,0,0,1,.7.35.06.06,0,0,0,.09,0l.3-.25a.06.06,0,0,0,0-.09,1.3,1.3,0,0,0-1.11-.56A1.28,1.28,0,0,0,74.59,9a2.84,2.84,0,0,0-.1.82M72.11,11a.73.73,0,0,1-.74-.51,2.31,2.31,0,0,1-.07-.67,2.16,2.16,0,0,1,.07-.65.73.73,0,0,1,.74-.51.72.72,0,0,1,.73.51,2.11,2.11,0,0,1,.08.65,2.25,2.25,0,0,1-.08.67.72.72,0,0,1-.73.51m0,.53a1.27,1.27,0,0,0,1.28-.88,2.27,2.27,0,0,0,.11-.83A2.32,2.32,0,0,0,73.39,9a1.38,1.38,0,0,0-2.57,0,2.57,2.57,0,0,0-.11.82,2.51,2.51,0,0,0,.11.83,1.27,1.27,0,0,0,1.29.88m-5.89-.14s0,.07.06.07h.47a.07.07,0,0,0,.07-.07V9.41l0,0h2l0,0v1.95s0,.07.06.07h.47a.07.07,0,0,0,.07-.07V6.87a.07.07,0,0,0-.07-.07H69s-.06,0-.06.07v1.9l0,0h-2l0,0V6.87a.07.07,0,0,0-.07-.07h-.47s-.06,0-.06.07Z"/></g></g></svg>