<?xml version="1.0" encoding="utf-8"?>
<!-- Generator: Adobe Illustrator 22.1.0, SVG Export Plug-In . SVG Version: 6.00 Build 0)  -->
<svg version="1.1" id="Ebene_1" xmlns="http://www.w3.org/2000/svg" xmlns:xlink="http://www.w3.org/1999/xlink" x="0px" y="0px"
	 viewBox="0 0 728 243" style="enable-background:new 0 0 728 243;" xml:space="preserve">
<style type="text/css">
	.st0{clip-path:url(#SVGID_2_);}
	.st1{clip-path:url(#SVGID_4_);}
	.st2{fill:url(#SVGID_5_);}
	.st3{clip-path:url(#SVGID_4_);enable-background:new    ;}
	.st4{fill:#FFFFFF;}
</style>
<title>2019_Rebrush_teaserbanner</title>
<g>
	<defs>
		<rect id="SVGID_1_" width="728" height="243"/>
	</defs>
	<clipPath id="SVGID_2_">
		<use xlink:href="#SVGID_1_"  style="overflow:visible;"/>
	</clipPath>
	<g class="st0">
		<g>
			<defs>
				<rect id="SVGID_3_" width="728" height="243"/>
			</defs>
			<clipPath id="SVGID_4_">
				<use xlink:href="#SVGID_3_"  style="overflow:visible;"/>
			</clipPath>
			<g class="st1">
				
					<linearGradient id="SVGID_5_" gradientUnits="userSpaceOnUse" x1="5746.8745" y1="214.8834" x2="5747.8745" y2="214.8834" gradientTransform="matrix(1970.0328 -1259.8884 1259.8884 1970.0328 -11592784 6817782)">
					<stop  offset="0" style="stop-color:#00AA84"/>
					<stop  offset="9.000000e-02" style="stop-color:#00AA84"/>
					<stop  offset="0.1" style="stop-color:#0AAC7D"/>
					<stop  offset="0.18" style="stop-color:#47B554"/>
					<stop  offset="0.25" style="stop-color:#73BC36"/>
					<stop  offset="0.3" style="stop-color:#8EC024"/>
					<stop  offset="0.33" style="stop-color:#98C21D"/>
					<stop  offset="0.41" style="stop-color:#79B33E"/>
					<stop  offset="0.51" style="stop-color:#59A45F"/>
					<stop  offset="0.59" style="stop-color:#459B74"/>
					<stop  offset="0.64" style="stop-color:#3E987B"/>
					<stop  offset="0.72" style="stop-color:#4B9E6D"/>
					<stop  offset="0.86" style="stop-color:#6EAE49"/>
					<stop  offset="1" style="stop-color:#98C21D"/>
				</linearGradient>
				<polygon class="st2" points="-110.3,70.5 516.7,-330.4 838.3,172.5 211.3,573.4 				"/>
			</g>
			<g class="st3">
				<path class="st4" d="M592.9,187.5l-24.5-3.2l-13.5,16.9L535,155.6l-20.1,45.6l-13.3-16.9l-24.5,3.2l22.6-54.4l-1-1.9
					c-0.1-0.2-0.3-0.4-0.4-0.5c-0.2-0.1-0.4-0.2-0.6-0.3l-8.6-5.1c-1.2-0.8-2.3-1.8-3-3c-0.8-1.2-1.2-2.6-1.2-4.2v-10
					c0-0.2,0-0.4-0.1-0.7c-0.1-0.2-0.1-0.4-0.3-0.7l-5.1-8.6c-0.3-0.6-0.6-1.2-0.8-1.9c-0.2-0.7-0.3-1.5-0.3-2.3
					c0-0.8,0.1-1.5,0.3-2.3c0.2-0.7,0.4-1.4,0.8-1.9l5.1-8.6c0-0.2,0.1-0.4,0.2-0.6c0.1-0.2,0.2-0.4,0.2-0.6v-0.2v-9.8
					c0-1.6,0.4-3,1.1-4.3c0.7-1.3,1.7-2.3,3-3.1l8.6-5.1c0.2-0.1,0.4-0.2,0.6-0.3c0.2-0.1,0.3-0.3,0.4-0.5l4.9-8.6h0.2
					c0.7-1.4,1.7-2.4,3-3.1c1.3-0.7,2.7-1.1,4.3-1.1h10c0.2-0.1,0.4-0.2,0.7-0.3c0.2-0.1,0.4-0.1,0.5-0.3l8.6-4.9
					c0.7-0.3,1.4-0.6,2-0.8c0.7-0.2,1.4-0.3,2.2-0.3c0.8,0,1.5,0.1,2.3,0.3c0.7,0.2,1.4,0.5,1.9,0.8l8.8,4.9h-0.2
					c0.2,0.1,0.4,0.2,0.7,0.3c0.2,0.1,0.4,0.1,0.7,0.3h10c1.6,0,3,0.4,4.3,1.1c1.3,0.7,2.3,1.7,3.1,3l4.9,8.8
					c0.1,0.1,0.3,0.3,0.4,0.4c0.2,0.2,0.4,0.3,0.6,0.4l8.6,4.9c1.2,0.7,2.3,1.7,3,3c0.8,1.3,1.2,2.7,1.2,4.3v10v0.2
					c0,0.2,0,0.4,0.1,0.6c0.1,0.2,0.1,0.4,0.3,0.6l5.1,8.6v-0.2c0.3,0.7,0.6,1.4,0.8,2.1c0.2,0.7,0.3,1.5,0.3,2.3
					c0,0.8-0.1,1.5-0.3,2.2c-0.2,0.7-0.4,1.4-0.8,2l-5.1,8.6c0,0.2-0.1,0.4-0.2,0.6c-0.1,0.2-0.2,0.4-0.2,0.6v10
					c0,1.6-0.4,3-1.1,4.3c-0.7,1.3-1.7,2.3-3,3.1l-8.6,5.1c-0.2,0.1-0.4,0.2-0.6,0.3c-0.2,0.1-0.3,0.3-0.4,0.5l-1.2,2.2L592.9,187.5
					z M501,125.3c0.6,0.3,1.1,0.8,1.6,1.3c0.5,0.5,0.9,1,1.3,1.6l5.1,8.6c0.2,0.5,0.5,0.8,0.9,1c0.4,0.2,0.8,0.3,1.3,0.3h9.8
					c0.8,0,1.5,0.1,2.3,0.3c0.7,0.2,1.4,0.4,1.9,0.8l8.6,5.1c0.2,0.1,0.4,0.2,0.7,0.3c0.2,0.1,0.4,0.1,0.7,0.1c0.2,0,0.4,0,0.7-0.1
					c0.2-0.1,0.4-0.1,0.5-0.3l8.6-5.2c0.6-0.3,1.2-0.6,1.9-0.8c0.7-0.2,1.5-0.3,2.3-0.3h10c0.4,0,0.9-0.1,1.3-0.3
					c0.4-0.2,0.7-0.5,0.9-0.8l4.9-8.8c0.3-0.6,0.8-1.1,1.3-1.6c0.5-0.5,1.1-0.9,1.8-1.3l8.6-5.1c0.3-0.2,0.6-0.5,0.8-0.9
					c0.2-0.4,0.3-0.8,0.3-1.3v-10v-0.2c0-0.7,0.1-1.4,0.3-2.1c0.2-0.7,0.5-1.4,0.8-1.9l4.9-8.6c0.1-0.2,0.2-0.4,0.3-0.6
					c0.1-0.2,0.1-0.4,0.1-0.8c0-0.2,0-0.4-0.1-0.6c-0.1-0.2-0.1-0.4-0.3-0.6l-4.9-8.6c-0.3-0.6-0.6-1.2-0.8-1.9
					c-0.2-0.7-0.3-1.5-0.3-2.3v-10c0-0.4-0.1-0.9-0.3-1.3c-0.2-0.4-0.5-0.7-0.8-0.9l-8.8-4.9c-0.6-0.4-1.1-0.9-1.6-1.4
					c-0.5-0.4-0.9-1-1.3-1.7l-5.1-8.6c-0.2-0.3-0.5-0.6-0.9-0.8c-0.4-0.2-0.8-0.3-1.3-0.3h-10c-0.8-0.1-1.5-0.3-2.3-0.4
					c-0.7-0.2-1.4-0.4-1.9-0.8l-8.6-5.1c-0.2-0.1-0.5-0.2-0.7-0.3c-0.2-0.1-0.5-0.1-0.7-0.1c-0.2,0-0.5,0-0.7,0.1
					c-0.2,0.1-0.4,0.1-0.5,0.3l-8.6,5.1c-0.7,0.3-1.4,0.6-2.1,0.8c-0.7,0.2-1.5,0.4-2.3,0.5h-10c-0.5,0-0.9,0.1-1.3,0.3
					c-0.4,0.2-0.7,0.5-0.9,0.8l-4.9,8.6v0.2c-0.3,0.6-0.8,1.1-1.3,1.6c-0.5,0.5-1.1,0.9-1.8,1.3l-8.6,4.9c-0.3,0.2-0.6,0.5-0.8,0.9
					c-0.2,0.4-0.3,0.8-0.3,1.3v10.1v0.2c0,0.7-0.1,1.4-0.3,2.1c-0.2,0.7-0.5,1.4-0.9,1.9l-4.9,8.6c-0.1,0.2-0.2,0.4-0.3,0.6
					c-0.1,0.2-0.1,0.4-0.1,0.8c0,0.2,0,0.4,0.1,0.6c0.1,0.2,0.1,0.4,0.3,0.6l5.1,8.6c0.3,0.6,0.6,1.2,0.8,1.9
					c0.2,0.7,0.3,1.5,0.3,2.3v10c0,0.5,0.1,0.9,0.3,1.3c0.2,0.4,0.6,0.7,1,0.9L501,125.3z M531.1,149.3h-0.2l-8.8-4.9
					c-0.1-0.1-0.3-0.2-0.5-0.3c-0.2-0.1-0.5-0.1-0.7-0.1h-9.8H511c-1.5,0-2.9-0.4-4.2-1.2c-1.4-0.8-2.4-1.8-3.2-3l-0.2-0.3
					l-16.9,40.7l17.6-2.2l9.5,11.7L531.1,149.3z M533.9,125.5c-8.8,0-16.3-3.1-22.5-9.4c-6.2-6.2-9.3-13.8-9.3-22.6
					s3.1-16.3,9.4-22.6c6.3-6.3,13.8-9.4,22.6-9.4s16.3,3.1,22.6,9.4c6.2,6.2,9.4,13.8,9.4,22.6s-3.1,16.3-9.4,22.6
					c-6.3,6.3-13.8,9.4-22.6,9.4H533.9z M533.9,67.6c-7.1,0-13.2,2.5-18.2,7.6s-7.6,11.2-7.6,18.4c0,7.2,2.5,13.3,7.6,18.4
					s11.2,7.6,18.4,7.6c7.2,0,13.3-2.5,18.4-7.6s7.6-11.2,7.6-18.4c0-7.2-2.5-13.3-7.6-18.4s-11.2-7.6-18.4-7.6H533.9z M583.4,180.4
					l-16.9-40.7l-0.2,0.2c-0.7,1.2-1.7,2.3-3,3c-1.3,0.8-2.7,1.2-4.3,1.2h-10c-0.2,0-0.5,0-0.7,0.1c-0.2,0.1-0.4,0.1-0.5,0.3
					l-8.6,4.9l-0.5,0.2l17.6,40.2l9.3-11.7L583.4,180.4z"/>
			</g>
		</g>
	</g>
</g>
</svg>
