<?xml version="1.0" encoding="utf-8"?>
<!-- Generator: Adobe Illustrator 22.1.0, SVG Export Plug-In . SVG Version: 6.00 Build 0)  -->
<svg version="1.1" id="Ebene_1" xmlns="http://www.w3.org/2000/svg" xmlns:xlink="http://www.w3.org/1999/xlink" x="0px" y="0px"
	 viewBox="0 0 728 243" style="enable-background:new 0 0 728 243;" xml:space="preserve">
<style type="text/css">
	.st0{clip-path:url(#SVGID_2_);}
	.st1{clip-path:url(#SVGID_4_);}
	.st2{fill:url(#SVGID_5_);}
	.st3{clip-path:url(#SVGID_4_);enable-background:new    ;}
	.st4{fill:#FFFFFF;}
</style>
<title>2019_Rebrush_teaserbanner</title>
<g>
	<defs>
		<rect id="SVGID_1_" width="728" height="243"/>
	</defs>
	<clipPath id="SVGID_2_">
		<use xlink:href="#SVGID_1_"  style="overflow:visible;"/>
	</clipPath>
	<g class="st0">
		<g>
			<defs>
				<rect id="SVGID_3_" width="728" height="243"/>
			</defs>
			<clipPath id="SVGID_4_">
				<use xlink:href="#SVGID_3_"  style="overflow:visible;"/>
			</clipPath>
			<g class="st1">
				
					<linearGradient id="SVGID_5_" gradientUnits="userSpaceOnUse" x1="4999.1445" y1="215.0551" x2="5000.1445" y2="215.0551" gradientTransform="matrix(1970.0328 -1259.8884 1259.8884 1970.0328 -10120466 5875719.5)">
					<stop  offset="0" style="stop-color:#00AA84"/>
					<stop  offset="9.000000e-02" style="stop-color:#00AA84"/>
					<stop  offset="0.1" style="stop-color:#0AAC7D"/>
					<stop  offset="0.18" style="stop-color:#47B554"/>
					<stop  offset="0.25" style="stop-color:#73BC36"/>
					<stop  offset="0.3" style="stop-color:#8EC024"/>
					<stop  offset="0.33" style="stop-color:#98C21D"/>
					<stop  offset="0.41" style="stop-color:#79B33E"/>
					<stop  offset="0.51" style="stop-color:#59A45F"/>
					<stop  offset="0.59" style="stop-color:#459B74"/>
					<stop  offset="0.64" style="stop-color:#3E987B"/>
					<stop  offset="0.72" style="stop-color:#4B9E6D"/>
					<stop  offset="0.86" style="stop-color:#6EAE49"/>
					<stop  offset="1" style="stop-color:#98C21D"/>
				</linearGradient>
				<polygon class="st2" points="-110.3,70.5 516.7,-330.4 838.3,172.5 211.3,573.4 				"/>
			</g>
			<g class="st3">
				<path class="st4" d="M612.5,152.9h-20.3v32.8H457.4V87.2h20.4V54.4h134.6V152.9z M463.3,93.2v71.3l30.1-32.1l22.1,16.6l35-30.6
					l35.6,45.1V93.2H463.3z M586.2,179.7v-6.6L549.8,127l-34,29.6l-21.6-16.2l-30.9,32.8v6.6H586.2z M606.6,60.5H483.8v26.7h108.3
					V147h14.5V60.5z M511.8,127.5h-0.2c-3.5,0-6.5-1.3-9.1-3.8c-2.6-2.5-3.9-5.6-3.9-9.2c0-3.6,1.3-6.7,3.8-9.2
					c2.5-2.5,5.6-3.8,9.2-3.8c3.6,0,6.7,1.3,9.2,3.8c2.5,2.5,3.8,5.6,3.8,9.2c0,3.6-1.3,6.7-3.8,9.2c-2.5,2.5-5.6,3.8-9.2,3.8H511.8
					z M511.8,107.4h-0.2c-1.9,0-3.5,0.7-4.9,2.1c-1.4,1.4-2,3.1-2,5c0,1.9,0.7,3.5,2,4.9s3,2,4.9,2c2,0,3.7-0.7,5.1-2s2-3,2-4.9
					c0-1.9-0.7-3.6-2-5c-1.4-1.4-3-2.1-5.1-2.1H511.8z"/>
			</g>
		</g>
	</g>
</g>
</svg>
