<?xml version="1.0" encoding="utf-8"?>
<!-- Generator: Adobe Illustrator 22.1.0, SVG Export Plug-In . SVG Version: 6.00 Build 0)  -->
<svg version="1.1" id="Ebene_1" xmlns="http://www.w3.org/2000/svg" xmlns:xlink="http://www.w3.org/1999/xlink" x="0px" y="0px"
	 viewBox="0 0 728 243" style="enable-background:new 0 0 728 243;" xml:space="preserve">
<style type="text/css">
	.st0{clip-path:url(#SVGID_2_);}
	.st1{clip-path:url(#SVGID_4_);}
	.st2{fill:url(#SVGID_5_);}
	.st3{clip-path:url(#SVGID_4_);enable-background:new    ;}
	.st4{fill:#FFFFFF;}
</style>
<title>2019_Rebrush_teaserbanner</title>
<g>
	<defs>
		<rect id="SVGID_1_" width="728" height="243"/>
	</defs>
	<clipPath id="SVGID_2_">
		<use xlink:href="#SVGID_1_"  style="overflow:visible;"/>
	</clipPath>
	<g class="st0">
		<g>
			<defs>
				<rect id="SVGID_3_" width="728" height="243"/>
			</defs>
			<clipPath id="SVGID_4_">
				<use xlink:href="#SVGID_3_"  style="overflow:visible;"/>
			</clipPath>
			<g class="st1">
				
					<linearGradient id="SVGID_5_" gradientUnits="userSpaceOnUse" x1="4251.1602" y1="217.0804" x2="4252.1602" y2="217.0804" gradientTransform="matrix(1873.1189 853.6294 -853.6294 1873.1189 -7777660 -4035594.5)">
					<stop  offset="0" style="stop-color:#98C21D"/>
					<stop  offset="0.14" style="stop-color:#98C21D"/>
					<stop  offset="0.32" style="stop-color:#4CB180"/>
					<stop  offset="0.34" style="stop-color:#50B27C"/>
					<stop  offset="0.46" style="stop-color:#6CB761"/>
					<stop  offset="0.72" style="stop-color:#98C21D"/>
					<stop  offset="0.8" style="stop-color:#57AF2C"/>
					<stop  offset="0.87" style="stop-color:#28A237"/>
					<stop  offset="0.92" style="stop-color:#0B993D"/>
					<stop  offset="0.95" style="stop-color:#009640"/>
					<stop  offset="1" style="stop-color:#009640"/>
				</linearGradient>
				<polygon class="st2" points="-91.7,201.2 125.2,-274.7 819.7,41.8 602.8,517.7 				"/>
			</g>
			<g class="st3">
				<path class="st4" d="M591.6,60.5c2.5,0,4.6,0.9,6.3,2.6c1.7,1.7,2.6,3.9,2.6,6.3v116.2H469.4V69.4c0-2.5,0.9-4.6,2.6-6.3
					c1.7-1.7,3.9-2.6,6.3-2.6h20.8v-12h5.9v12h26.9v-12h6.1v12h26.9v-12h5.9v12H591.6z M478.4,66.4c-0.9,0-1.6,0.3-2.2,0.8
					c-0.6,0.6-0.8,1.3-0.8,2.2v26.7h119.3V69.4c0-0.9-0.3-1.6-0.8-2.2c-0.6-0.6-1.3-0.8-2.2-0.8h-20.8v9h-5.9v-9H538v9h-6.1v-9
					h-26.9v9h-5.9v-9H478.4z M511.1,102.2h-35.8V138h35.8V102.2z M475.3,179.7h35.8v-35.8h-35.8V179.7z M552.9,138v-35.8h-35.8V138
					H552.9z M517.1,143.9v35.8h35.8v-35.8H517.1z M558.8,138h35.8v-35.8h-35.8V138z M594.6,179.7v-35.8h-35.8v35.8H594.6z"/>
			</g>
		</g>
	</g>
</g>
</svg>
