<?xml version="1.0" encoding="utf-8"?>
<!-- Generator: Adobe Illustrator 22.1.0, SVG Export Plug-In . SVG Version: 6.00 Build 0)  -->
<svg version="1.1" id="Ebene_1" xmlns="http://www.w3.org/2000/svg" xmlns:xlink="http://www.w3.org/1999/xlink" x="0px" y="0px"
	 viewBox="0 0 728 243" style="enable-background:new 0 0 728 243;" xml:space="preserve">
<style type="text/css">
	.st0{clip-path:url(#SVGID_2_);}
	.st1{clip-path:url(#SVGID_4_);}
	.st2{fill:url(#SVGID_5_);}
	.st3{clip-path:url(#SVGID_4_);enable-background:new    ;}
	.st4{fill:#FFFFFF;}
</style>
<title>2019_Rebrush_teaserbanner</title>
<g>
	<defs>
		<rect id="SVGID_1_" width="728" height="243"/>
	</defs>
	<clipPath id="SVGID_2_">
		<use xlink:href="#SVGID_1_"  style="overflow:visible;"/>
	</clipPath>
	<g class="st0">
		<g>
			<defs>
				<rect id="SVGID_3_" width="728" height="243"/>
			</defs>
			<clipPath id="SVGID_4_">
				<use xlink:href="#SVGID_3_"  style="overflow:visible;"/>
			</clipPath>
			<g class="st1">
				
					<linearGradient id="SVGID_5_" gradientUnits="userSpaceOnUse" x1="6494.6147" y1="214.7111" x2="6495.6147" y2="214.7111" gradientTransform="matrix(1970.0328 -1259.8884 1259.8884 1970.0328 -13065099 7759845.5)">
					<stop  offset="0" style="stop-color:#00AA84"/>
					<stop  offset="9.000000e-02" style="stop-color:#00AA84"/>
					<stop  offset="0.1" style="stop-color:#0AAC7D"/>
					<stop  offset="0.18" style="stop-color:#47B554"/>
					<stop  offset="0.25" style="stop-color:#73BC36"/>
					<stop  offset="0.3" style="stop-color:#8EC024"/>
					<stop  offset="0.33" style="stop-color:#98C21D"/>
					<stop  offset="0.41" style="stop-color:#79B33E"/>
					<stop  offset="0.51" style="stop-color:#59A45F"/>
					<stop  offset="0.59" style="stop-color:#459B74"/>
					<stop  offset="0.64" style="stop-color:#3E987B"/>
					<stop  offset="0.72" style="stop-color:#4B9E6D"/>
					<stop  offset="0.86" style="stop-color:#6EAE49"/>
					<stop  offset="1" style="stop-color:#98C21D"/>
				</linearGradient>
				<polygon class="st2" points="-110.3,70.5 516.7,-330.4 838.3,172.5 211.3,573.4 				"/>
			</g>
			<g class="st3">
				<path class="st4" d="M610,70.6c4.8,1.1,8.8,3.8,11.9,8c3.1,4.2,4.6,9,4.5,14.4c0,5.3-1.5,10-4.5,14.1c-3,4.1-6.8,6.8-11.4,8.2
					c-0.3,3.2-1.5,5.9-3.5,8.1c-2,2.3-4.5,3.7-7.3,4.4c-0.9,4.2-2.7,7.8-5.5,10.9c-2.8,3.1-6,5.4-9.7,7v17.6h-68.1l-33.5,33.5v-33.5
					h-17.6V83.3h18.2c1.7-5.1,4.8-9.2,9.3-12.5c4.5-3.3,9.6-4.9,15.2-4.9h5.4c1.9-3.3,4.5-5.9,7.7-7.9c3.2-2,6.7-3,10.6-3
					c0.2,0,0.4,0,0.6,0c0.2,0,0.3,0,0.4,0c1-2.6,2.7-4.7,5-6.3c2.3-1.6,4.9-2.4,7.7-2.4c1.1,0,2.3,0.2,3.4,0.5
					c1.1,0.3,2.3,0.8,3.4,1.4c1.7-2.1,3.7-3.8,6.1-4.9c2.4-1.1,4.8-1.7,7.4-1.7c3.3,0,6.3,0.9,9.1,2.6c2.8,1.7,5,4,6.6,6.8
					c1.1-0.6,2.3-1,3.5-1.2c1.2-0.2,2.4-0.3,3.6-0.3c5.6,0,10.5,2.1,14.6,6.2C607.2,59.8,609.5,64.7,610,70.6z M578.4,120.3V89
					H471.1v68.4h17.6v25.3l25.2-25.3h64.7v-37.2H578.4z M594.8,121.5V92.4c0-5.7-2-10.6-6.1-14.6c-4.1-4-8.9-6-14.5-6h-66.4
					c-4.1,0-7.7,1.1-11,3.2c-3.3,2.1-5.7,4.9-7.4,8.3h95.1v56.1c2.1-1.2,4-2.8,5.6-4.7c1.6-1.9,2.8-4.1,3.5-6.4
					c0.3-0.9,0.6-1.8,0.8-2.8c0.2-1,0.3-2,0.3-3.1c0-0.2,0-0.4,0-0.5C594.8,121.7,594.8,121.6,594.8,121.5z M607.4,110.1
					c3.7-0.7,6.9-2.6,9.5-5.9c2.6-3.3,3.9-7,3.9-11.2c0-4.3-1.4-8.1-4.1-11.4c-2.7-3.3-6-5.2-10-5.7l-2.7-0.3v-3
					c0-4.6-1.5-8.6-4.6-12s-6.7-5.1-11-5.1c-1.2,0-2.4,0.1-3.6,0.4c-1.2,0.3-2.3,0.8-3.5,1.4l-3,1.7l-1.2-3
					c-0.9-2.6-2.4-4.6-4.6-6.2c-2.1-1.5-4.5-2.3-6.9-2.3c-2,0-4,0.6-5.9,1.7c-1.9,1.1-3.4,2.7-4.6,4.7l-1.9,3.2l-2.5-2.5
					c-0.6-0.6-1.3-1.1-2.2-1.6c-0.9-0.5-2-0.8-3.2-0.8c-1.9,0-3.6,0.6-5.1,1.9c-1.5,1.2-2.4,2.9-2.9,4.9l-0.8,2.5l-2.5-0.3
					c-0.3,0-0.7-0.1-1.2-0.2c-0.5-0.1-0.8-0.2-1.2-0.2c-2.1,0-4.2,0.5-6.2,1.4c-2,0.9-3.6,2.2-5,3.9h53.7c7.3,0,13.5,2.5,18.7,7.6
					c5.1,5.1,7.7,11.3,7.7,18.6v29.2c1.1-0.8,2.1-1.9,3-3.3c0.8-1.4,1.3-3,1.3-4.6c0-0.1,0-0.2,0-0.3c0-0.1,0-0.1,0-0.3v-2.5
					L607.4,110.1z"/>
			</g>
		</g>
	</g>
</g>
</svg>
