<svg width="1004" height="180" viewBox="0 0 1004 180" xmlns="http://www.w3.org/2000/svg"><title>khk-logo-white</title><desc>Created with Sketch.</desc><g fill="#fff"><path d="M2.163.103h9.116c.992 0 1.493.5 1.493 1.503v25.88l24.415-26.28c.68-.73 1.52-1.103 2.518-1.103H53.06c.97 0 1.144.38.5 1.118L29.537 28.17 54.05 70.464c.5.863.26 1.297-.748 1.297H42.168c-.996 0-1.754-.436-2.253-1.29L20.48 37.343l-7.66 7.7v25.22c0 .993-.495 1.5-1.498 1.5H2.16c-.994 0-1.495-.505-1.495-1.5V1.6C.665.6 1.17.103 2.163.103"/><path d="M119.6 1.603V1.57c-.01-.964-.512-1.467-1.496-1.467h-9.392c-.967 0-1.468.467-1.495 1.42v.08h-.002v46.19c0 .573-.128 2.8-.255 3.33-.388 1.63-.968 3.268-2 4.637-.666.88-1.43 1.616-2.26 2.142-1.58 1-3.234 1.4-5.037 1.463-.45.032-2.34.03-2.846.03h-.509c-.506 0-2.396.002-2.847-.03-1.802-.062-3.457-.462-5.036-1.463-.83-.526-1.594-1.26-2.26-2.142-1.03-1.37-1.61-3.007-2-4.636-.126-.53-.254-2.758-.254-3.332V1.602h-.003v-.078c-.026-.954-.527-1.42-1.495-1.42h-9.393c-.984 0-1.485.502-1.495 1.467v46.723c0 .376.017 1.945.052 2.33.24 5.597 2.36 10.968 6.354 14.9 4.27 4.196 9.458 6.238 15.458 6.238h6.35c6 0 11.187-2.04 15.458-6.238 3.994-3.93 6.113-9.302 6.354-14.898.035-.386.052-1.955.052-2.33V1.603z"/><path d="M871.93 1.603V1.57c-.01-.964-.51-1.467-1.495-1.467h-9.393c-.968 0-1.47.467-1.495 1.42v.08h-.003v46.19c0 .573-.127 2.8-.255 3.33-.39 1.63-.97 3.268-2 4.637-.665.88-1.43 1.616-2.26 2.142-1.58 1-3.235 1.4-5.037 1.463-.45.032-2.34.03-2.847.03h-.51c-.508 0-2.396.002-2.848-.03-1.802-.062-3.457-.462-5.037-1.463-.83-.526-1.594-1.26-2.26-2.142-1.032-1.37-1.61-3.007-2-4.636-.126-.53-.254-2.758-.254-3.332V1.602h-.003v-.078c-.028-.954-.53-1.42-1.497-1.42H823.35c-.985 0-1.487.502-1.496 1.467v46.723c0 .376.017 1.945.052 2.33.24 5.597 2.36 10.968 6.354 14.9 4.272 4.196 9.458 6.238 15.458 6.238h6.35c6 0 11.188-2.04 15.458-6.238 3.995-3.93 6.113-9.302 6.354-14.898.035-.386.053-1.955.053-2.33V1.603z"/><path d="M191.213 70.26c0 1-.5 1.5-1.498 1.5h-9.682c-.998 0-1.738-.435-2.22-1.31l-25.257-46.34v46.152c0 1-.5 1.5-1.497 1.5h-9.587c-.778 0-1.277-.5-1.277-1.5V1.603c0-.998.5-1.5 1.498-1.5h9.504c.998 0 1.737.435 2.217 1.312l25.16 46.273V1.602c0-1 .5-1.5 1.498-1.5h9.642c1 0 1.498.5 1.498 1.5V70.26z"/><path d="M620.61 5.555C624.06 2.12 628.32.212 633.187.112c.134-.006 14.018-.01 14.018-.01 6.652 0 11.196 2.877 14.743 7.406 1.313 1.678 2.328 3.956 3.145 6.403.386 1.15-.7 1.48-1.222 1.64-.353.11-8.34 1.532-8.617 1.597-1.233.29-1.972.41-2.54-.952-1.605-3.87-3.973-3.81-6.268-3.817l-11.518.008c-3.593.07-6.796 2.505-6.986 6.136-.066 1.263-.086 2.58-.036 3.713.1 2.282 1.116 5.004 4.773 5.682 1.348.314 16.453 3.035 18.764 3.57 4.56 1.05 8.147 3.653 10.486 6.53 2.355 2.9 4.28 6.897 4.28 11.594v4.04c-.05 4.937-2.048 9.237-5.567 12.742-3.58 3.56-7.95 5.33-12.952 5.33H634.28c-.172 0-.833-.005-1.003-.01-7.842-.232-14.292-4.72-16.902-13.72-.357-1.023.014-1.658 1.152-1.842l8.567-1.324c.933-.143 1.574.126 1.89 1.018.79 2.236 3.044 3.584 5.593 3.663.246.058 13.15-.004 13.413-.01 4.537-.348 6.766-2.784 6.766-5.958v-4.017c0-2.907-1.845-5.368-5.466-6.02-2.196-.396-18.342-3.42-18.544-3.454-4.267-.714-7.578-2.887-10.245-6.097-3.094-3.723-4.215-7.615-4.215-11.818v-3.85c.093-4.316 1.746-9.167 5.324-12.73"/><path d="M215.712 5.555c3.452-3.436 7.713-5.343 12.58-5.443.133-.006 14.017-.01 14.017-.01 6.65 0 11.194 2.877 14.742 7.406 1.314 1.678 2.33 3.956 3.146 6.403.385 1.15-.7 1.48-1.223 1.64-.352.11-8.34 1.532-8.615 1.597-1.233.29-1.973.41-2.54-.952-1.606-3.87-3.974-3.81-6.27-3.817l-11.517.008c-3.593.07-6.797 2.505-6.986 6.136-.066 1.263-.086 2.58-.036 3.713.1 2.282 1.116 5.004 4.774 5.682 1.347.314 16.45 3.035 18.762 3.57 4.56 1.05 8.148 3.653 10.487 6.53 2.355 2.9 4.28 6.897 4.28 11.594v4.04c-.05 4.937-2.048 9.237-5.567 12.742-3.58 3.56-7.95 5.33-12.95 5.33H229.38c-.17 0-.832-.005-1.002-.01-7.84-.232-14.29-4.72-16.902-13.72-.356-1.023.014-1.658 1.152-1.842l8.567-1.324c.933-.143 1.574.126 1.89 1.018.79 2.236 3.044 3.584 5.592 3.663.247.058 13.15-.004 13.415-.01 4.536-.348 6.763-2.784 6.763-5.958v-4.017c0-2.907-1.843-5.368-5.464-6.02-2.196-.396-18.34-3.42-18.544-3.454-4.266-.714-7.577-2.887-10.244-6.097-3.093-3.723-4.215-7.615-4.215-11.818v-3.85c.093-4.316 1.747-9.167 5.325-12.73"/><path d="M324.723 11.196c0 1-.502 1.5-1.5 1.5h-17.726v57.568c0 1-.5 1.498-1.498 1.498h-9.59c-.997 0-1.496-.5-1.496-1.5V12.696h-17.728c-.998 0-1.498-.5-1.498-1.5V1.602c0-.998.5-1.5 1.498-1.5h48.037c.998 0 1.5.5 1.5 1.5v9.594z"/><path d="M392.472 70.262c0 1-.5 1.5-1.498 1.5h-9.438c-1 0-1.498-.5-1.498-1.5v-28.09H353.82v28.09c0 1-.498 1.5-1.497 1.5h-9.39c-.998 0-1.498-.5-1.496-1.5V1.602c0-1 .5-1.498 1.5-1.498h9.386c1 0 1.498.5 1.498 1.5v28.082h26.218V1.603c0-1 .5-1.5 1.5-1.5h9.435c.998 0 1.498.5 1.498 1.5l.002 68.66z"/><path d="M596.818 70.262c0 1-.5 1.5-1.498 1.5h-9.438c-1 0-1.498-.5-1.498-1.5v-28.09h-26.216v28.09c0 1-.5 1.5-1.5 1.5h-9.388c-1 0-1.5-.5-1.497-1.5V1.602c0-1 .5-1.498 1.5-1.498h9.386c.998 0 1.498.5 1.498 1.5v28.082h26.216V1.603c0-1 .5-1.5 1.5-1.5h9.435c.997 0 1.497.5 1.497 1.5v68.66z"/><path d="M528.484 54.472c-1.176 5.038-3.563 9.22-7.883 12.667-3.888 3.103-8.17 4.62-13.164 4.62h-7.35c-6.557.07-11.35-2.405-15.296-6.302-4.048-3.998-6.64-9.52-6.64-16.14V22.532c0-6.87 2.71-11.912 6.796-16.213 4.23-4.46 9.01-6.25 14.95-6.216h7.64c4.993 0 9.213 1.49 13.124 4.698 3.85 3.153 6.8 7.406 7.793 12.695.195 1.04-.264 1.67-1.294 1.827l-8.98 1.487c-1.042.155-1.612-.242-1.89-1.21-1.2-4.154-4.683-6.96-9.477-6.96h-6.242c-2.397 0-5.348.943-7.09 2.797-2.03 2.16-2.896 4.248-2.896 7.146v26.784c0 2.574 1.064 5.104 2.945 7.02 1.647 1.675 4.368 2.775 6.99 2.775h6.242c4.795 0 8.428-2.462 9.68-6.972.287-1.037.832-1.372 1.873-1.193 0 0 8.5 1.55 8.952 1.63 1.06.187 1.464.78 1.217 1.845"/><path d="M801.263 70.262c0 1-.5 1.5-1.498 1.5h-9.437c-.998 0-1.498-.5-1.498-1.5v-28.09h-26.216v28.09c0 1-.5 1.5-1.498 1.5h-9.39c-1 0-1.5-.5-1.497-1.5V1.602c0-1 .498-1.498 1.497-1.498h9.39c.997 0 1.497.5 1.497 1.5v28.082h26.216V1.603c0-1 .5-1.5 1.5-1.5h9.435c1 0 1.498.5 1.498 1.5v68.66z"/><path d="M732.73 54.472c-1.175 5.038-3.562 9.22-7.882 12.667-3.89 3.103-8.172 4.62-13.165 4.62h-7.35c-6.557.07-11.352-2.405-15.296-6.302-4.048-3.998-6.642-9.52-6.642-16.14V22.532c0-6.87 2.712-11.912 6.798-16.213 4.227-4.46 9.01-6.25 14.95-6.216h7.638c4.995 0 9.216 1.49 13.127 4.698 3.85 3.153 6.8 7.406 7.792 12.695.194 1.04-.264 1.67-1.296 1.827l-8.977 1.487c-1.043.155-1.613-.242-1.892-1.21-1.2-4.154-4.683-6.96-9.477-6.96h-6.242c-2.397 0-5.35.943-7.09 2.797-2.032 2.16-2.897 4.248-2.897 7.146v26.784c0 2.574 1.065 5.104 2.946 7.02 1.646 1.675 4.37 2.775 6.99 2.775h6.242c4.794 0 8.428-2.462 9.68-6.972.287-1.037.833-1.372 1.874-1.193 0 0 8.5 1.55 8.952 1.63 1.06.187 1.462.78 1.216 1.845"/><path d="M1002.605 70.262c0 1-.5 1.5-1.498 1.5h-44.443c-.998 0-1.498-.5-1.498-1.5V1.604c0-1 .498-1.5 1.497-1.5h44.443c.998 0 1.498.498 1.5 1.498v9.545c0 1-.5 1.5-1.497 1.5H967.5v17.11h30.01c1 0 1.5.5 1.5 1.5v9.35c-.002 1-.5 1.5-1.5 1.5H967.5V59.24h33.608c.998 0 1.498.498 1.498 1.498v9.524z"/><path d="M450.076 49.442c0 2.745-.992 5.154-2.928 7.13-1.935 1.978-4.236 2.94-6.904 2.94h-6.586c-2.668 0-5.013-.962-6.933-2.94-1.922-1.976-2.907-4.385-2.907-7.13V22.43c0-2.744.985-5.104 2.907-7.08 1.92-1.976 4.265-2.99 6.933-2.99h6.586c2.668 0 4.97 1.014 6.904 2.99 1.936 1.976 2.928 4.336 2.928 7.08v27.012zm5.614-43.04c-4.18-4.2-9.244-6.3-15.134-6.3h-7.168c-5.89 0-10.953 2.1-15.134 6.3-4.182 4.196-6.272 9.277-6.272 15.192V50.28c0 5.913 2.09 10.994 6.272 15.192 4.18 4.198 9.243 6.298 15.134 6.298h7.168c5.89 0 10.953-2.1 15.134-6.298 4.182-4.198 6.272-9.28 6.272-15.192V21.594c0-5.915-2.09-10.996-6.272-15.193z"/><path d="M939.856 70.262c0 1-.498 1.5-1.497 1.5h-44.445c-.998 0-1.498-.5-1.498-1.5V1.602c0-1 .5-1.498 1.498-1.498h9.388c1 0 1.498.5 1.498 1.5V59.24h33.56c1 0 1.5.5 1.5 1.5l-.004 9.522z"/><path d="M2.163 107.56h9.116c.992 0 1.493.497 1.493 1.5v25.882l24.415-26.282c.68-.73 1.52-1.1 2.518-1.1H53.06c.97 0 1.144.378.5 1.116l-24.022 26.947 24.513 42.295c.5.865.26 1.298-.748 1.298H42.168c-.996 0-1.754-.437-2.253-1.29L20.48 144.798l-7.66 7.7v25.22c0 .992-.495 1.498-1.498 1.498H2.16c-.994 0-1.495-.504-1.495-1.5v-68.662c0-1 .505-1.495 1.498-1.495"/><path d="M208.09 113.01c3.452-3.436 7.714-5.343 12.58-5.443.133-.006 14.017-.008 14.017-.008 6.652 0 11.196 2.874 14.743 7.402 1.315 1.678 2.33 3.957 3.146 6.404.385 1.15-.7 1.478-1.222 1.64-.353.11-8.34 1.53-8.617 1.596-1.23.29-1.972.41-2.538-.953-1.608-3.87-3.976-3.808-6.27-3.816l-11.52.007c-3.59.07-6.795 2.507-6.985 6.137-.066 1.263-.086 2.58-.036 3.713.1 2.282 1.115 5.005 4.772 5.68 1.347.316 16.45 3.037 18.763 3.57 4.56 1.053 8.147 3.655 10.486 6.53 2.356 2.9 4.282 6.898 4.282 11.596v4.038c-.05 4.937-2.048 9.238-5.568 12.743-3.578 3.56-7.95 5.33-12.95 5.33H221.76c-.174 0-.834-.005-1.004-.01-7.842-.23-14.29-4.72-16.902-13.72-.355-1.024.014-1.658 1.153-1.842l8.567-1.325c.932-.142 1.574.126 1.89 1.02.79 2.235 3.043 3.583 5.592 3.662.247.058 13.15-.004 13.414-.01 4.537-.347 6.764-2.785 6.764-5.96v-4.014c0-2.908-1.844-5.368-5.465-6.02-2.197-.397-18.342-3.42-18.545-3.453-4.267-.714-7.577-2.887-10.245-6.097-3.093-3.723-4.214-7.616-4.214-11.818v-3.85c.092-4.316 1.746-9.168 5.325-12.73"/><path d="M141.217 113.01c3.452-3.436 7.713-5.343 12.58-5.443.133-.006 14.017-.008 14.017-.008 6.652 0 11.196 2.874 14.743 7.402 1.314 1.678 2.33 3.957 3.146 6.404.386 1.15-.7 1.478-1.222 1.64-.352.11-8.34 1.53-8.615 1.596-1.233.29-1.973.41-2.54-.953-1.606-3.87-3.974-3.808-6.27-3.816l-11.517.007c-3.592.07-6.796 2.507-6.986 6.137-.066 1.263-.086 2.58-.036 3.713.1 2.282 1.116 5.005 4.773 5.68 1.346.316 16.45 3.037 18.762 3.57 4.56 1.053 8.147 3.655 10.486 6.53 2.355 2.9 4.28 6.898 4.28 11.596v4.038c-.05 4.937-2.048 9.238-5.567 12.743-3.578 3.56-7.948 5.33-12.95 5.33h-13.414c-.172 0-.833-.005-1.003-.01-7.84-.23-14.29-4.72-16.902-13.72-.355-1.024.015-1.658 1.153-1.842l8.567-1.325c.933-.142 1.574.126 1.89 1.02.79 2.235 3.044 3.583 5.593 3.662.246.058 13.15-.004 13.414-.01 4.537-.347 6.765-2.785 6.765-5.96v-4.014c0-2.908-1.845-5.368-5.466-6.02-2.196-.397-18.342-3.42-18.544-3.453-4.267-.714-7.578-2.887-10.245-6.097-3.093-3.723-4.215-7.616-4.215-11.818v-3.85c.093-4.316 1.747-9.168 5.325-12.73"/><path d="M320.22 177.717c0 1-.5 1.5-1.498 1.5H274.28c-1 0-1.5-.5-1.5-1.5v-68.66c0-.998.5-1.498 1.498-1.498l44.443-.002c1 0 1.5.5 1.5 1.498v9.546c0 1-.498 1.5-1.497 1.5h-33.608v17.11h30.012c.998 0 1.498.5 1.498 1.5v9.35c0 1-.5 1.5-1.5 1.5h-30.01v17.132h33.607c1 0 1.498.5 1.498 1.5v9.523z"/><path d="M388.477 177.717c0 .998-.5 1.5-1.498 1.5h-44.444c-1 0-1.498-.5-1.498-1.5v-68.66c0-1 .5-1.5 1.498-1.5h9.388c1 0 1.498.5 1.498 1.5v57.637h33.56c.998 0 1.498.5 1.498 1.5l-.003 9.523z"/><path d="M123.44 177.462c.334 1.168-.12 1.754-1.27 1.754h-9.77c-.947 0-1.533-.44-1.805-1.313l-4.42-14.02h-23.4l-4.497 14.28c-.203.652-.726 1.053-1.425 1.053h-10.07c-1.2 0-1.61-.586-1.226-1.755l22.16-68.548c.283-.92.875-1.354 1.823-1.352h9.92c.948 0 1.54.436 1.77 1.355l22.21 68.547zm-20.89-25.73l-8.05-25.986-8.065 25.986h16.116z"/></g></svg>