<?xml version="1.0" encoding="UTF-8" standalone="no"?>
<!-- Generator: Adobe Illustrator 16.0.0, SVG Export Plug-In . SVG Version: 6.00 Build 0)  -->

<svg
   xmlns:dc="http://purl.org/dc/elements/1.1/"
   xmlns:cc="http://creativecommons.org/ns#"
   xmlns:rdf="http://www.w3.org/1999/02/22-rdf-syntax-ns#"
   xmlns:svg="http://www.w3.org/2000/svg"
   xmlns="http://www.w3.org/2000/svg"
   xmlns:sodipodi="http://sodipodi.sourceforge.net/DTD/sodipodi-0.dtd"
   xmlns:inkscape="http://www.inkscape.org/namespaces/inkscape"
   version="1.1"
   id="Ebene_1"
   x="0px"
   y="0px"
   width="120"
   height="70.870003"
   viewBox="0 0 120 70.87"
   enable-background="new 0 0 141.73 70.87"
   xml:space="preserve"
   inkscape:version="0.48.4 r9939"
   sodipodi:docname="Logo_Wortmarke_weiss_KHM.svg"><metadata
   id="metadata3013"><rdf:RDF><cc:Work
       rdf:about=""><dc:format>image/svg+xml</dc:format><dc:type
         rdf:resource="http://purl.org/dc/dcmitype/StillImage" /></cc:Work></rdf:RDF></metadata><defs
   id="defs3011" /><sodipodi:namedview
   pagecolor="#ffffff"
   bordercolor="#666666"
   borderopacity="1"
   objecttolerance="10"
   gridtolerance="10"
   guidetolerance="10"
   inkscape:pageopacity="0"
   inkscape:pageshadow="2"
   inkscape:window-width="640"
   inkscape:window-height="480"
   id="namedview3009"
   showgrid="false"
   inkscape:zoom="2.434206"
   inkscape:cx="70.864998"
   inkscape:cy="35.435001"
   inkscape:window-x="0"
   inkscape:window-y="0"
   inkscape:window-maximized="0"
   inkscape:current-layer="Ebene_1" />
<path
   d="m 0.965,61.193 h 1.234 v -7.467 h 0.025 l 2.857,7.467 h 1.212 l 2.856,-7.467 h 0.024 v 7.467 h 1.234 V 52.566 H 8.37 l -2.659,7.17 -2.708,-7.17 H 0.965 v 8.627 l 0,0 z m 16.688,-1.42 c -0.284,0.236 -1.174,0.631 -1.94,0.631 -1.101,0 -2.077,-0.854 -2.077,-2.104 h 4.5 c 0,-2.027 -0.68,-3.559 -2.781,-3.559 -1.781,0 -2.955,1.322 -2.955,3.189 0,2.053 1.025,3.412 3.264,3.412 1.039,0 1.546,-0.248 1.99,-0.408 v -1.161 l -0.001,0 z m -4.017,-2.335 c 0.086,-0.816 0.555,-1.756 1.693,-1.756 1.002,0 1.57,0.791 1.57,1.756 h -3.263 l 0,0 z m 10.83,3.755 h 1.111 v -9.27 h -1.16 v 3.832 h -0.025 c -0.358,-0.582 -0.988,-1.014 -2.09,-1.014 -1.83,0 -2.719,1.494 -2.719,3.189 0,1.719 0.803,3.412 2.707,3.412 1.125,0 1.842,-0.568 2.152,-1.037 h 0.023 v 0.888 l 0.001,0 z m -3.648,-3.175 c -0.025,-1.15 0.47,-2.336 1.73,-2.336 1.263,0 1.868,1.199 1.868,2.373 0,1.051 -0.544,2.35 -1.854,2.35 -1.25,-10e-4 -1.769,-1.397 -1.744,-2.387 l 0,0 z m 7.196,3.175 h 1.161 V 54.89 h -1.161 v 6.303 l 0,0 z m 1.235,-9.021 H 27.94 v 1.309 h 1.309 v -1.309 l 0,0 z m 2.721,4.15 c 0.47,-0.395 1.174,-0.641 1.829,-0.641 1.163,0 1.56,0.555 1.56,1.645 -0.458,-0.023 -0.779,-0.023 -1.237,-0.023 -1.2,0 -2.929,0.492 -2.929,2.076 0,1.371 0.949,1.965 2.311,1.965 1.063,0 1.682,-0.58 1.954,-0.963 h 0.024 v 0.812 h 1.087 c -0.025,-0.184 -0.05,-0.518 -0.05,-1.234 v -2.607 c 0,-1.721 -0.729,-2.609 -2.533,-2.609 -0.805,0 -1.497,0.246 -2.077,0.594 l 0.061,0.985 0,0 z m 3.388,2.424 c 0,0.941 -0.606,1.658 -1.758,1.658 -0.53,0 -1.175,-0.357 -1.175,-1.025 0,-1.115 1.56,-1.213 2.19,-1.213 0.247,0 0.495,0.023 0.742,0.023 v 0.557 l 10e-4,0 z m 6.342,2.447 h 1.298 l 0.878,-2.176 h 4.227 l 0.878,2.176 h 1.348 l -3.647,-8.627 h -1.297 l -3.685,8.627 0,0 z m 6.007,-3.187 h -3.436 l 1.718,-4.279 1.718,4.279 0,0 z m 4.069,3.187 h 1.16 v -2.867 c 0,-1.582 0.68,-2.57 1.719,-2.57 0.197,0 0.432,0.023 0.642,0.109 v -1.037 c -0.247,-0.049 -0.42,-0.086 -0.766,-0.086 -0.668,0 -1.335,0.471 -1.645,1.123 H 52.862 V 54.89 h -1.086 v 6.303 l 0,0 z m 8.467,-6.302 h -1.669 v -1.83 l -1.161,0.371 v 1.459 h -1.422 v 0.938 h 1.422 v 3.686 c 0,1.262 0.741,1.83 1.939,1.83 0.37,0 0.729,-0.1 0.988,-0.174 v -0.988 c -0.173,0.111 -0.432,0.223 -0.791,0.223 -0.531,0 -0.976,-0.395 -0.976,-1.125 V 55.83 h 1.669 v -0.939 l 0.001,0 z m 1.237,6.105 c 0.53,0.285 1.136,0.348 1.729,0.348 1.126,0 2.2,-0.617 2.2,-1.965 0,-2.018 -2.732,-1.646 -2.732,-2.932 0,-0.52 0.521,-0.766 1.114,-0.766 0.272,0 0.964,0.16 1.223,0.32 l 0.1,-1.014 c -0.457,-0.135 -0.902,-0.246 -1.446,-0.246 -1.249,0 -2.225,0.629 -2.225,1.939 0,1.77 2.731,1.67 2.731,2.82 0,0.68 -0.656,0.902 -1.188,0.902 -0.334,0 -0.988,-0.148 -1.445,-0.445 l -0.061,1.039 0,0 z m 15.563,-8.207 c -0.618,-0.271 -1.272,-0.371 -1.94,-0.371 -2.634,0 -4.561,1.768 -4.561,4.426 0,2.746 1.816,4.5 4.548,4.5 0.507,0 1.312,-0.037 1.966,-0.311 l -0.073,-1.197 c -0.434,0.26 -1.262,0.42 -1.88,0.42 -1.793,0 -3.252,-1.348 -3.252,-3.375 0,-1.941 1.323,-3.375 3.313,-3.375 0.631,0 1.237,0.16 1.781,0.48 l 0.098,-1.197 0,0 z m 1.275,5.254 c 0,1.805 1.309,3.301 3.214,3.301 1.892,0 3.201,-1.496 3.201,-3.301 0,-1.916 -1.284,-3.301 -3.201,-3.301 -1.929,0 -3.214,1.385 -3.214,3.301 l 0,0 z m 1.235,0 c 0,-1.199 0.73,-2.361 1.979,-2.361 1.237,0 1.966,1.162 1.966,2.361 0,1.125 -0.606,2.361 -1.966,2.361 -1.373,0 -1.979,-1.236 -1.979,-2.361 l 0,0 z m 7.197,3.15 h 1.16 v -9.27 h -1.16 v 9.27 l 0,0 z m 3.177,-3.15 c 0,1.805 1.31,3.301 3.214,3.301 1.893,0 3.201,-1.496 3.201,-3.301 0,-1.916 -1.285,-3.301 -3.201,-3.301 -1.93,0 -3.214,1.385 -3.214,3.301 l 0,0 z m 1.235,0 c 0,-1.199 0.729,-2.361 1.979,-2.361 1.236,0 1.967,1.162 1.967,2.361 0,1.125 -0.606,2.361 -1.967,2.361 -1.372,0 -1.979,-1.236 -1.979,-2.361 l 0,0 z m 12.622,-3.152 h -1.074 v 0.938 h -0.025 c -0.346,-0.678 -0.964,-1.086 -2.077,-1.086 -1.904,0 -2.817,1.73 -2.817,3.35 0,1.633 0.889,3.102 2.694,3.102 0.804,0 1.62,-0.32 2.114,-0.975 h 0.025 v 0.617 c 0,1.336 -0.729,2.166 -1.955,2.166 -0.853,0 -1.385,-0.162 -2.273,-0.57 l -0.124,1.076 c 1.013,0.346 1.594,0.432 2.262,0.432 2.263,0 3.251,-1.1 3.251,-3.016 v -6.034 l -10e-4,0 z m -3.003,5.365 c -1.089,0 -1.757,-1.039 -1.757,-2.227 0,-1.076 0.582,-2.348 1.757,-2.348 1.235,0 1.843,1.125 1.843,2.436 0,1.176 -0.755,2.139 -1.843,2.139 l 0,0 z m 5.292,0.937 h 1.16 v -2.916 c 0,-1.533 0.594,-2.596 1.917,-2.596 1.015,0.061 1.336,0.777 1.336,2.25 v 3.262 h 1.161 v -3.746 c 0,-1.691 -0.729,-2.705 -2.361,-2.705 -0.878,0 -1.719,0.432 -2.065,1.148 h -0.024 v -1 h -1.123 v 6.303 l -0.001,0 z m 12.696,-1.42 c -0.284,0.236 -1.174,0.631 -1.94,0.631 -1.101,0 -2.078,-0.854 -2.078,-2.104 h 4.5 c 0,-2.027 -0.679,-3.559 -2.781,-3.559 -1.78,0 -2.954,1.322 -2.954,3.189 0,2.053 1.025,3.412 3.264,3.412 1.039,0 1.546,-0.248 1.99,-0.408 v -1.161 l -10e-4,0 z m -4.019,-2.335 c 0.086,-0.816 0.556,-1.756 1.694,-1.756 1.002,0 1.57,0.791 1.57,1.756 h -3.264 l 0,0 z"
   id="path3001"
   inkscape:connector-curvature="0"
   style="fill:#ffffff" />
<path
   d="m 0,43.887 h 1.298 l 0.878,-2.176 h 4.227 l 0.878,2.176 H 8.628 L 4.982,35.26 H 3.684 L 0,43.887 l 0,0 z m 6.008,-3.19 H 2.571 l 1.719,-4.277 1.718,4.277 0,0 z m 8.171,-3.017 c -0.334,-0.133 -0.939,-0.246 -1.408,-0.246 -1.93,0 -3.213,1.385 -3.213,3.301 0,1.807 1.309,3.301 3.213,3.301 0.42,0 0.976,-0.037 1.457,-0.26 l -0.086,-1.037 c -0.358,0.234 -0.853,0.359 -1.248,0.359 -1.496,0 -2.103,-1.238 -2.103,-2.363 0,-1.199 0.729,-2.363 2.028,-2.363 0.371,0 0.816,0.088 1.261,0.273 l 0.099,-0.965 0,0 z m 2.052,1.336 c 0.47,-0.396 1.175,-0.645 1.83,-0.645 1.162,0 1.559,0.559 1.559,1.646 -0.458,-0.023 -0.779,-0.023 -1.237,-0.023 -1.2,0 -2.929,0.492 -2.929,2.076 0,1.371 0.95,1.965 2.311,1.965 1.063,0 1.683,-0.58 1.955,-0.963 h 0.023 v 0.814 H 20.83 C 20.805,43.7 20.78,43.366 20.78,42.65 v -2.607 c 0,-1.721 -0.729,-2.609 -2.533,-2.609 -0.805,0 -1.497,0.248 -2.077,0.594 l 0.061,0.988 0,0 z m 3.389,2.423 c 0,0.939 -0.605,1.658 -1.757,1.658 -0.531,0 -1.175,-0.359 -1.175,-1.027 0,-1.115 1.559,-1.213 2.189,-1.213 0.247,0 0.495,0.025 0.742,0.025 v 0.557 l 0.001,0 z m 7.901,2.448 h 1.11 V 34.616 H 27.47 v 3.832 h -0.023 c -0.359,-0.582 -0.99,-1.014 -2.091,-1.014 -1.83,0 -2.72,1.496 -2.72,3.189 0,1.719 0.804,3.412 2.707,3.412 1.125,0 1.844,-0.568 2.152,-1.037 h 0.025 v 0.889 l 0.001,0 z m -3.65,-3.176 c -0.025,-1.15 0.47,-2.34 1.731,-2.34 1.261,0 1.867,1.201 1.867,2.375 0,1.053 -0.544,2.352 -1.854,2.352 -1.249,0 -1.769,-1.399 -1.744,-2.387 l 0,0 z m 11.881,1.756 c -0.284,0.234 -1.173,0.631 -1.939,0.631 -1.102,0 -2.078,-0.855 -2.078,-2.105 h 4.5 c 0,-2.025 -0.68,-3.559 -2.781,-3.559 -1.781,0 -2.954,1.322 -2.954,3.189 0,2.053 1.025,3.412 3.263,3.412 1.039,0 1.546,-0.248 1.99,-0.408 v -1.16 l -10e-4,0 z m -4.018,-2.336 c 0.086,-0.818 0.556,-1.76 1.693,-1.76 1.002,0 1.571,0.793 1.571,1.76 h -3.264 l 0,0 z m 6.356,3.756 h 1.16 v -3.178 c 0,-1.174 0.471,-2.338 1.658,-2.338 0.939,0 1.126,0.979 1.126,1.758 v 3.758 h 1.16 v -3.178 c 0,-1.174 0.47,-2.338 1.658,-2.338 0.939,0 1.125,0.979 1.125,1.758 v 3.758 h 1.16 v -4.043 c 0,-1.373 -0.58,-2.41 -2.187,-2.41 -0.569,0 -1.522,0.322 -1.954,1.223 -0.334,-0.852 -1.062,-1.223 -1.792,-1.223 -0.928,0 -1.559,0.334 -2.004,1.062 H 39.175 V 37.584 H 38.09 v 6.303 l 0,0 z m 10.768,2.658 c 0.21,0.037 0.42,0.086 0.791,0.086 1.531,0 1.989,-1.396 2.422,-2.607 l 2.324,-6.439 H 53.22 l -1.73,5.217 H 51.466 L 49.773,37.585 H 48.5 l 2.139,5.885 c 0.074,0.209 0.223,0.531 0.223,0.666 0,0.125 -0.347,1.559 -1.385,1.559 -0.197,0 -0.396,-0.051 -0.544,-0.1 l -0.075,0.95 0,0 z m 10.36,-5.811 c 0,1.807 1.31,3.301 3.214,3.301 1.893,0 3.201,-1.494 3.201,-3.301 0,-1.916 -1.284,-3.301 -3.201,-3.301 -1.93,10e-4 -3.214,1.385 -3.214,3.301 l 0,0 z m 1.235,0 c 0,-1.199 0.729,-2.363 1.979,-2.363 1.236,0 1.967,1.164 1.967,2.363 0,1.125 -0.606,2.363 -1.967,2.363 -1.373,10e-4 -1.979,-1.238 -1.979,-2.363 l 0,0 z m 7.802,3.153 h 1.161 v -5.365 h 1.669 v -0.938 h -1.669 v -0.682 c 0,-0.854 0.123,-1.498 1.125,-1.498 0.197,0 0.42,0.025 0.556,0.076 l 0.05,-0.938 c -0.234,-0.039 -0.482,-0.076 -0.778,-0.076 -1.718,0 -2.113,1 -2.113,2.535 v 0.582 h -1.482 v 0.938 h 1.482 v 5.366 l -0.001,0 z"
   id="path3003"
   inkscape:connector-curvature="0"
   style="fill:#ffffff" />
<path
   d="M 1.595,26.578 H 2.756 V 21.213 H 4.425 V 20.275 H 2.756 v -0.682 c 0,-0.853 0.123,-1.496 1.125,-1.496 0.198,0 0.42,0.024 0.556,0.074 l 0.05,-0.938 C 4.252,17.195 4.004,17.158 3.708,17.158 c -1.718,0 -2.113,1 -2.113,2.534 v 0.582 H 0.112 v 0.938 h 1.483 v 5.366 l 0,0 z m 9.938,-6.303 h -1.16 v 2.916 c 0,1.533 -0.595,2.598 -1.917,2.598 C 7.441,25.727 7.12,25.01 7.12,23.539 V 20.275 H 5.959 v 3.746 c 0,1.693 0.729,2.705 2.361,2.705 0.878,0 1.719,-0.432 2.066,-1.148 h 0.024 v 1 h 1.123 v -6.303 l 0,0 z M 7.158,19.309 H 8.319 V 18.075 H 7.158 v 1.234 l 0,0 z m 2.029,0 h 1.16 v -1.234 h -1.16 v 1.234 l 0,0 z m 4.635,7.269 h 1.159 v -2.867 c 0,-1.583 0.681,-2.572 1.72,-2.572 0.198,0 0.433,0.024 0.644,0.111 v -1.037 c -0.248,-0.05 -0.422,-0.087 -0.768,-0.087 -0.667,0 -1.335,0.47 -1.645,1.124 h -0.024 v -0.975 h -1.086 v 6.303 l 0,0 z m 8.988,0 h 1.234 v -7.467 h 0.025 l 2.856,7.467 h 1.211 l 2.857,-7.467 h 0.025 v 7.467 h 1.233 v -8.627 h -2.038 l -2.659,7.17 -2.708,-7.17 H 22.81 v 8.627 l 0,0 z m 16.688,-1.42 c -0.284,0.234 -1.173,0.631 -1.94,0.631 -1.101,0 -2.077,-0.854 -2.077,-2.104 h 4.5 c 0,-2.027 -0.68,-3.56 -2.781,-3.56 -1.781,0 -2.954,1.322 -2.954,3.188 0,2.053 1.025,3.412 3.263,3.412 1.039,0 1.546,-0.246 1.99,-0.408 v -1.159 l -0.001,0 z M 35.48,22.822 c 0.086,-0.817 0.556,-1.758 1.693,-1.758 1.002,0 1.571,0.791 1.571,1.758 H 35.48 l 0,0 z m 10.832,3.756 h 1.11 v -9.27 h -1.16 v 3.831 h -0.024 c -0.359,-0.58 -0.989,-1.013 -2.09,-1.013 -1.83,0 -2.72,1.495 -2.72,3.188 0,1.719 0.803,3.412 2.706,3.412 1.126,0 1.844,-0.568 2.152,-1.037 h 0.025 v 0.889 l 10e-4,0 z m -3.649,-3.176 c -0.025,-1.15 0.47,-2.338 1.73,-2.338 1.263,0 1.868,1.199 1.868,2.375 0,1.051 -0.544,2.35 -1.854,2.35 -1.25,0 -1.769,-1.398 -1.744,-2.387 l 0,0 z m 7.196,3.176 h 1.161 v -6.303 h -1.161 v 6.303 l 0,0 z m 1.235,-9.023 h -1.309 v 1.309 h 1.309 v -1.309 l 0,0 z m 7.196,7.603 c -0.284,0.234 -1.174,0.631 -1.941,0.631 -1.101,0 -2.077,-0.854 -2.077,-2.104 h 4.5 c 0,-2.027 -0.68,-3.56 -2.78,-3.56 -1.781,0 -2.954,1.322 -2.954,3.188 0,2.053 1.024,3.412 3.263,3.412 1.039,0 1.545,-0.246 1.99,-0.408 v -1.159 l -10e-4,0 z m -4.019,-2.336 c 0.087,-0.817 0.557,-1.758 1.694,-1.758 1.002,0 1.571,0.791 1.571,1.758 h -3.265 l 0,0 z m 6.369,3.756 H 61.8 V 23.66 c 0,-1.532 0.594,-2.596 1.917,-2.596 1.016,0.062 1.336,0.779 1.336,2.25 v 3.264 h 1.161 v -3.746 c 0,-1.693 -0.729,-2.706 -2.361,-2.706 -0.878,0 -1.719,0.433 -2.064,1.149 h -0.025 v -1 H 60.64 v 6.303 l 0,0 z m 11.781,0 h 1.235 v -4.227 l 3.845,4.227 h 1.805 L 74.93,22.03 78.986,17.951 H 77.34 l -3.684,3.794 v -3.794 h -1.235 v 8.627 l 0,0 z m 7.962,-3.15 c 0,1.805 1.31,3.299 3.214,3.299 1.893,0 3.201,-1.494 3.201,-3.299 0,-1.918 -1.285,-3.302 -3.201,-3.302 -1.93,0 -3.214,1.384 -3.214,3.302 l 0,0 z m 1.235,0 c 0,-1.201 0.729,-2.363 1.979,-2.363 1.236,0 1.967,1.162 1.967,2.363 0,1.125 -0.607,2.361 -1.967,2.361 -1.372,0 -1.979,-1.236 -1.979,-2.361 l 0,0 z m 0.385,-4.119 h 1.16 v -1.234 h -1.16 v 1.234 l 0,0 z m 2.027,0 h 1.161 V 18.075 H 84.03 v 1.234 l 0,0 z m 4.784,7.269 h 1.16 v -9.27 h -1.16 v 9.27 l 0,0 z m 3.598,0 h 1.161 V 23.66 c 0,-1.532 0.593,-2.596 1.917,-2.596 1.014,0.062 1.335,0.779 1.335,2.25 v 3.264 h 1.161 v -3.746 c 0,-1.693 -0.729,-2.706 -2.36,-2.706 -0.878,0 -1.72,0.433 -2.066,1.149 h -0.024 v -1 h -1.123 v 6.303 l -10e-4,0 z"
   id="path3005"
   inkscape:connector-curvature="0"
   style="fill:#ffffff" />
<path
   d="M 1.014,9.27 H 2.249 V 5.043 L 6.094,9.27 H 7.899 L 3.522,4.722 7.577,0.643 H 5.933 L 2.249,4.437 V 0.643 H 1.014 V 9.27 l 0,0 z M 14.97,2.967 h -1.16 v 2.917 c 0,1.533 -0.594,2.597 -1.918,2.597 C 10.878,8.419 10.558,7.702 10.558,6.231 V 2.967 H 9.396 v 3.746 c 0,1.693 0.729,2.706 2.36,2.706 0.88,0 1.72,-0.432 2.066,-1.149 h 0.024 v 1 h 1.123 V 2.967 l 0.001,0 z m 2.289,6.303 h 1.16 V 6.353 c 0,-1.533 0.594,-2.597 1.917,-2.597 1.015,0.062 1.336,0.779 1.336,2.251 V 9.27 h 1.161 V 5.524 c 0,-1.693 -0.729,-2.706 -2.36,-2.706 -0.878,0 -1.72,0.432 -2.065,1.149 h -0.025 v -1 H 17.26 V 9.27 l -0.001,0 z M 24.59,9.073 c 0.531,0.284 1.136,0.346 1.73,0.346 1.125,0 2.2,-0.617 2.2,-1.965 0,-2.016 -2.732,-1.645 -2.732,-2.931 0,-0.519 0.519,-0.767 1.113,-0.767 0.272,0 0.964,0.161 1.224,0.322 l 0.098,-1.014 c -0.456,-0.134 -0.9,-0.246 -1.444,-0.246 -1.25,0 -2.226,0.63 -2.226,1.94 0,1.769 2.732,1.67 2.732,2.82 0,0.68 -0.656,0.903 -1.188,0.903 -0.334,0 -0.988,-0.149 -1.444,-0.446 l -0.063,1.038 0,0 z m 8.998,-6.106 h -1.669 v -1.83 l -1.16,0.371 v 1.459 h -1.422 v 0.938 h 1.422 V 7.59 c 0,1.261 0.741,1.829 1.939,1.829 0.371,0 0.729,-0.099 0.989,-0.173 V 8.258 c -0.174,0.111 -0.433,0.223 -0.791,0.223 -0.532,0 -0.978,-0.396 -0.978,-1.126 v -3.45 h 1.669 V 2.967 l 10e-4,0 z m 1.77,6.303 h 1.16 V 6.353 c 0,-1.533 0.594,-2.597 1.916,-2.597 1.016,0.062 1.337,0.779 1.337,2.251 V 9.27 h 1.16 V 5.524 c 0,-1.693 -0.729,-2.706 -2.359,-2.706 -0.879,0 -1.608,0.383 -2.029,1.05 H 36.519 V 0 h -1.16 v 9.27 l -0.001,0 z M 42.8,6.119 c 0,1.805 1.31,3.3 3.214,3.3 1.893,0 3.201,-1.495 3.201,-3.3 0,-1.917 -1.284,-3.301 -3.201,-3.301 -1.93,0 -3.214,1.384 -3.214,3.301 l 0,0 z m 1.235,0 c 0,-1.2 0.729,-2.363 1.979,-2.363 1.236,0 1.967,1.163 1.967,2.363 0,1.125 -0.606,2.362 -1.967,2.362 -1.373,0 -1.979,-1.237 -1.979,-2.362 l 0,0 z M 55.187,3.064 C 54.853,2.93 54.247,2.818 53.778,2.818 c -1.93,0 -3.213,1.384 -3.213,3.301 0,1.805 1.309,3.3 3.213,3.3 0.42,0 0.976,-0.037 1.458,-0.26 L 55.15,8.122 c -0.36,0.235 -0.854,0.359 -1.25,0.359 -1.496,0 -2.102,-1.237 -2.102,-2.362 0,-1.2 0.729,-2.363 2.027,-2.363 0.371,0 0.815,0.087 1.261,0.273 l 0.101,-0.965 0,0 z m 1.694,6.206 h 1.161 V 6.353 c 0,-1.533 0.593,-2.597 1.917,-2.597 1.014,0.062 1.336,0.779 1.336,2.251 V 9.27 h 1.16 V 5.524 c 0,-1.693 -0.728,-2.706 -2.36,-2.706 -0.878,0 -1.607,0.383 -2.028,1.05 H 58.043 V 0 h -1.161 v 9.27 l -10e-4,0 z m 7.331,-0.197 c 0.531,0.284 1.136,0.346 1.73,0.346 1.126,0 2.199,-0.617 2.199,-1.965 0,-2.016 -2.731,-1.645 -2.731,-2.931 0,-0.519 0.52,-0.767 1.114,-0.767 0.271,0 0.964,0.161 1.223,0.322 L 67.846,3.064 C 67.389,2.93 66.944,2.818 66.4,2.818 c -1.249,0 -2.226,0.63 -2.226,1.94 0,1.769 2.732,1.67 2.732,2.82 0,0.68 -0.656,0.903 -1.188,0.903 -0.334,0 -0.987,-0.149 -1.444,-0.446 l -0.062,1.038 0,0 z M 73.965,3.064 C 73.631,2.93 73.026,2.818 72.555,2.818 c -1.928,0 -3.212,1.384 -3.212,3.301 0,1.805 1.31,3.3 3.212,3.3 0.421,0 0.978,-0.037 1.459,-0.26 L 73.928,8.122 c -0.358,0.235 -0.853,0.359 -1.249,0.359 -1.496,0 -2.102,-1.237 -2.102,-2.362 0,-1.2 0.729,-2.363 2.028,-2.363 0.37,0 0.815,0.087 1.261,0.273 l 0.099,-0.965 0,0 z M 75.66,9.27 h 1.16 V 6.353 c 0,-1.533 0.594,-2.597 1.918,-2.597 1.014,0.062 1.335,0.779 1.335,2.251 V 9.27 h 1.161 V 5.524 c 0,-1.693 -0.729,-2.706 -2.36,-2.706 -0.879,0 -1.608,0.383 -2.029,1.05 H 76.82 V 0 h -1.16 v 9.27 l 0,0 z M 89.097,2.967 h -1.16 v 2.917 c 0,1.533 -0.595,2.597 -1.918,2.597 C 85.005,8.419 84.683,7.702 84.683,6.231 V 2.967 h -1.159 v 3.746 c 0,1.693 0.728,2.706 2.359,2.706 0.878,0 1.72,-0.432 2.065,-1.149 h 0.024 v 1 h 1.124 V 2.967 l 10e-4,0 z m 2.437,6.303 h 1.16 V 0 h -1.16 v 9.27 l 0,0 z m 8.43,-1.42 c -0.284,0.235 -1.174,0.631 -1.939,0.631 -1.102,0 -2.078,-0.854 -2.078,-2.104 h 4.5 c 0,-2.027 -0.68,-3.559 -2.781,-3.559 -1.781,0 -2.954,1.322 -2.954,3.189 0,2.053 1.025,3.412 3.263,3.412 1.039,0 1.547,-0.247 1.99,-0.408 V 7.85 l -0.001,0 z M 95.946,5.514 c 0.086,-0.817 0.556,-1.758 1.693,-1.758 1.002,0 1.571,0.792 1.571,1.758 h -3.264 l 0,0 z"
   id="path3007"
   inkscape:connector-curvature="0"
   style="fill:#ffffff" />
</svg>