<?xml version="1.0" encoding="utf-8"?>
<!-- Generator: Adobe Illustrator 18.1.1, SVG Export Plug-In . SVG Version: 6.00 Build 0)  -->
<!DOCTYPE svg PUBLIC "-//W3C//DTD SVG 1.1//EN" "http://www.w3.org/Graphics/SVG/1.1/DTD/svg11.dtd">
<svg version="1.1" xmlns="http://www.w3.org/2000/svg" xmlns:xlink="http://www.w3.org/1999/xlink" x="0px" y="0px"
	 viewBox="0 0 278 278.901" enable-background="new 0 0 278 278.901" xml:space="preserve">
<g id="Ebene_2" display="none">
</g>
<g id="Ebene_1">
</g>
<g id="Ebene_3">
	<path fill="none" stroke="#222222" stroke-width="4" stroke-linecap="round" stroke-miterlimit="10" d="M9.04,154.177
		c4.539-19.914-2.467-40.955-1.286-61.185c1.28-21.929,9.398-44.042,22.888-61.484C42.9,15.66,61.442,9.458,80.981,9.191
		c22.258-0.303,44.508,0.376,66.809-0.034c23.611-0.435,44.773,2.759,65.177,15.149c24.6,14.94,40.928,36.016,47.18,64.33
		c12.838,58.153,17.022,160.462-56.519,179.109c-17.201,4.362-35.53,4.998-53.188,5.329c-20.949,0.393-43.229,0.129-63.044-7.512
		c-39.982-15.419-54.971-62.183-62.494-100.646c-7.236-36.996-6.208-77.562,12.047-111.438
		c16.843-31.259,45.78-38.229,79.059-39.191c39.458-1.143,85.68,0.179,116.397,28.511c36.593,33.752,31.468,87.817,26.806,132.694
		c-1.697,16.33-2.138,34.889-9.055,50.072c-7.647,16.785-24.972,23.557-41.925,27.408c-23.162,5.265-47.602,6.304-71.272,5.5
		c-20.437-0.694-42.69-2.559-60.947-12.641C39.147,225.474,29.894,174.99,31.925,136.63c1.819-34.391,12.625-82.877,47.705-98.592
		c32.398-14.513,77.286-6.823,108.07,7.951c38.018,18.247,64.333,53.902,67.313,96.305c2.701,38.446-8.715,88.66-44.294,109.591
		c-38.769,22.807-109.077,19.212-139.214-16.636c-18.624-22.152-21.558-53.88-22.501-81.617
		c-1.147-33.744-0.552-70.694,9.145-103.314c6.064-20.399,17.83-33.579,39.506-36.071c23.979-2.757,49.573,1.863,73.474,4.049
		c17.709,1.619,37.747,2.593,51.572,15.243c19.154,17.523,25.154,49.216,28.619,73.596c4.315,30.355,4.326,64.355-10.63,92.023
		c-16.079,29.748-47.737,44.107-79.249,51.67c-52.582,12.621-133.116,19.536-149.034-47.33c-7.534-31.646-3.279-66.643,4.449-97.829
		c6.567-26.505,17.034-57.029,40.521-73.344c19.632-13.637,45.67-15.038,68.768-14.329c31.678,0.97,66.307,6.825,92.621,25.651
		c49.581,35.474,46.052,113.987,23.865,164.436c-24.871,56.553-102.529,57.316-152.853,38.789
		c-30.749-11.319-54.683-33.74-64.694-65.293c-9.441-29.752-7.941-63.156-2.906-93.615c3.077-18.611,8.005-38.113,24.463-49.334
		c22.345-15.234,55.209-16.414,81.153-14.875c30.757,1.824,62.136,10.627,85.434,31.652c22.998,20.754,35.934,51.076,41.306,81.122
		c4.737,26.493,2.881,54.217-12.322,77.175c-19.922,30.086-56.336,48.728-90.848,55.995c-31.669,6.668-67.577,3.296-89.286-23.354
		c-23.818-29.24-25.801-72.875-25.28-108.855c0.408-28.175,1.633-61.277,16.704-86.096c14.818-24.402,43.998-34.391,70.837-38.471
		c28.117-4.275,61.041-3.132,84.373,15.176c28.311,22.215,33.247,62.791,32.169,96.321c-1.09,33.91-7.985,72.863-30.009,99.921
		c-21.514,26.428-55.097,30.316-86.35,21.305c-62.074-17.896-111.506-76.282-99.033-142.887
		c4.493-23.993,16.189-46.986,34.824-63.038c17.617-15.174,39.721-22.25,61.574-28.884"/>
</g>
</svg>
