<?xml version="1.0" encoding="utf-8"?>
<!-- Generator: Adobe Illustrator 18.1.1, SVG Export Plug-In . SVG Version: 6.00 Build 0)  -->
<!DOCTYPE svg PUBLIC "-//W3C//DTD SVG 1.1//EN" "http://www.w3.org/Graphics/SVG/1.1/DTD/svg11.dtd">
<svg version="1.1" xmlns="http://www.w3.org/2000/svg" xmlns:xlink="http://www.w3.org/1999/xlink" x="0px" y="0px"
	 viewBox="0 0 100 153" enable-background="new 0 0 100 153" xml:space="preserve">
<g id="Ebene_2" display="none">
</g>
<g id="Ebene_1">
	<path fill="none" stroke="#222222" stroke-width="4" stroke-miterlimit="10" d="M12.5,26.783
		c0.706-7.795,5.398-13.925,12.615-16.797c4.587-1.825,11.898-3.26,16.625-1.496c6.496,2.426,2.634,9.299,0.694,13.653
		c-3.441,7.726-3.189,13.007,5.134,17.189c7.471,3.755,11.246,0.073,18.708-1.339c4.178-0.789,10.215-1.303,13.025,1.736
		c3.042,3.291,3.293,17.653,0.773,21.281c-5.057,7.279-15.206,4.217-21.877,1.821c-9.221-3.312-16.288-8.94-22.554-16.479
		c-4.167-5.016-9.354-5.506-15.463-2.254c-8.56,4.556-8.555,15.019-8.336,23.553c0.649,25.361,34.639,6.73,44.184,19.178
		c3.832,4.996,4.765,16.975-0.556,20.949c-6.603,4.934-15.825-0.313-21.521,8.076c-7.128,10.502,4.401,19.101,13.572,21.803
		c7.881,2.321,30.378,8.635,35.383,0.061c4.475-7.667,0.188-25.631-1.924-33.83c-1.571-6.102-3.492-12.594,3.517-16.105"/>
</g>
<g id="Ebene_3">
</g>
</svg>
