<?xml version="1.0" encoding="utf-8"?>
<!-- Generator: Adobe Illustrator 19.0.0, SVG Export Plug-In . SVG Version: 6.00 Build 0)  -->
<svg version="1.1" id="Ebene_1" xmlns="http://www.w3.org/2000/svg" xmlns:xlink="http://www.w3.org/1999/xlink" x="0px" y="0px"
	 viewBox="0 0 398.6 196.5" width="398.6" height="196.5" style="enable-background:new 0 0 398.6 196.5;" xml:space="preserve">
<style type="text/css">
	.st0{clip-path:url(#SVGID_2_);fill:#010202;}
	.st1{fill:#010202;}
	.st2{clip-path:url(#SVGID_4_);fill:#010202;}
	.st3{clip-path:url(#SVGID_6_);fill:#010202;}
	.st4{clip-path:url(#SVGID_8_);fill:#010202;}
	.st5{clip-path:url(#SVGID_10_);fill:#010202;}
</style>
<g>
	<defs>
		<rect id="SVGID_1_" width="398.6" height="196.5"/>
	</defs>
	<clipPath id="SVGID_2_">
		<use xlink:href="#SVGID_1_"  style="overflow:visible;"/>
	</clipPath>
	<path class="st0" d="M73.2,160.4H57.4v35.7h15.8v-13c5.1,0.1,7.9,4.6,8.3,13h17.1c-0.5-8.5-3.3-14.3-8.1-17.9
		c4.9-3.8,7.1-9.3,7.1-17.8H81.5c0,6.5-2.4,11.5-8.3,11.9V160.4"/>
	<path class="st0" d="M114.6,189.9c-0.6,0.5-1.4,0.8-2.3,0.8c-1.7,0-3-1.2-3-2.7c0-1.5,1.2-2.4,2.9-2.4c0.8,0,1.3,0.1,2.4,0.4V189.9
		z M100.7,179.5c3-1.6,5.3-2.3,8.2-2.3c3.5,0,5.7,1.4,5.7,4.2c-1.5-0.4-3.3-0.7-4.9-0.7c-5.8,0-9.6,3.4-9.6,8.2
		c0,4.3,3.2,7.4,7.5,7.4c2.4,0,5.2-1,7.1-2.3v2.1H129v-15.6c0-9.5-5.5-12.9-14.4-12.9c-5.5,0-9.4,1-13.9,3.4V179.5"/>
	<path class="st0" d="M147.2,167.9h-14.5v28.2h14.5v-10.5c0-3.5,0.7-5.6,2.2-6.8c1.6,1.7,3.5,2.6,5.9,2.6c4,0,6.7-2.8,6.7-6.9
		c0-4-2.8-6.8-6.7-6.8c-3.4,0-6.2,2.2-7.9,6.2h-0.1V167.9"/>
</g>
<rect x="163.1" y="160.4" class="st1" width="14.5" height="35.7"/>
<g>
	<defs>
		<rect id="SVGID_3_" width="398.6" height="196.5"/>
	</defs>
	<clipPath id="SVGID_4_">
		<use xlink:href="#SVGID_3_"  style="overflow:visible;"/>
	</clipPath>
	<path class="st2" d="M178.8,193.4c4.8,2,10.8,3.2,15.5,3.2c6.7,0,12.7-3,12.7-9.4c0-2.2-0.7-4.1-2.2-5.6c-4.1-4.1-11.1-2.6-11.1-6
		c0-1,1-1.7,2.4-1.7c2.1,0,4.5,1.2,6.6,3.1l3.5-7.2c-3.4-1.6-7.8-2.4-12.6-2.4c-8.7,0-13.8,3.3-13.8,8.9c0,2.1,0.9,4,2.3,5.4
		c4,4,10.5,2.7,10.5,6.1c0,1.2-1.1,2-2.8,2c-2.8,0-5.9-1.7-7.8-4.3L178.8,193.4"/>
	<path class="st2" d="M223.5,167.9H209v28.2h14.5v-10.5c0-3.5,0.7-5.6,2.2-6.8c1.6,1.7,3.6,2.6,5.9,2.6c4,0,6.7-2.8,6.7-6.9
		c0-4-2.8-6.8-6.7-6.8c-3.4,0-6.2,2.2-7.9,6.2h-0.1V167.9"/>
	<path class="st2" d="M273.2,167.9h-14.5v17.6c-0.5,0.9-1.5,1.5-2.6,1.5c-2,0-2.6-1.5-2.6-3.8v-15.2h-13.7v18.5c0,6.9,4.6,10,9.8,10
		c3.9,0,6.7-1.4,9.6-5.2h0.1v4.9h13.9V167.9"/>
	<path class="st2" d="M291.5,160.4H277v35.7h14.5v-18.8c0.8-0.7,1.6-1.1,2.5-1.1c1.7,0,2.7,1.2,2.7,3.6v16.3h13.7v-17.8
		c0-6.9-4.1-10.7-10.4-10.7c-3.5,0-6.3,1.3-8.5,3.9V160.4"/>
	<path class="st2" d="M327.4,178.9c-0.1-2.6,1.4-4.5,3.3-4.5c2.1,0,3.4,1.7,3.5,4.5H327.4z M343,185.4c-1.8,1.9-4.7,3.1-7.8,3.1
		c-3.3,0-5.9-1.8-7-4.6H343c0.4-10.5-6.4-16.5-15.2-16.5c-8.7,0-14.8,5.9-14.8,14.3c0,9,6.5,14.9,16.3,14.9c5.9,0,10.4-1.9,13.7-6.2
		V185.4"/>
	<path class="st2" d="M116.6,120.4h-15.8v35.7h15.8v-13.1c5.1,0.1,7.9,4.6,8.3,13.1H142c-0.5-8.5-3.3-14.3-8.1-17.9
		c4.9-3.8,7.1-9.3,7.1-17.8h-16.1c0,6.5-2.4,11.5-8.3,11.9V120.4"/>
	<path class="st2" d="M176.7,128h-14.5v17.6c-0.5,0.9-1.5,1.5-2.6,1.5c-2,0-2.6-1.5-2.6-3.8V128h-13.7v18.5c0,6.9,4.6,10,9.8,10
		c3.9,0,6.7-1.4,9.6-5.2h0.1v4.9h13.9V128z M151.1,123.1c0,1.8,1.4,3.3,3.3,3.3c1.8,0,3.3-1.4,3.3-3.3c0-1.8-1.4-3.3-3.3-3.3
		C152.5,119.8,151.1,121.3,151.1,123.1 M163.2,123.1c0,1.8,1.4,3.3,3.3,3.3c1.8,0,3.3-1.4,3.3-3.3c0-1.8-1.4-3.3-3.3-3.3
		C164.6,119.8,163.2,121.3,163.2,123.1"/>
	<path class="st2" d="M195.1,128h-14.5v28.2h14.5v-19c0.7-0.5,1.8-0.9,2.6-0.9c1.8,0,2.7,1.2,2.7,3.5v16.5H214v-17.5
		c0-8.9-5.4-10.9-10.2-10.9c-3.5,0-6.1,1.2-8.7,3.8V128"/>
	<path class="st2" d="M215.1,153.4c4.8,2,10.8,3.2,15.5,3.2c6.7,0,12.7-3,12.7-9.4c0-2.2-0.7-4.1-2.2-5.6c-4.1-4.1-11.1-2.6-11.1-6
		c0-1,1-1.7,2.4-1.7c2.1,0,4.5,1.2,6.6,3.1l3.5-7.2c-3.4-1.6-7.8-2.4-12.6-2.4c-8.7,0-13.8,3.3-13.8,8.9c0,2.1,0.9,4,2.3,5.4
		c4,4,10.5,2.7,10.5,6.1c0,1.2-1.1,2-2.8,2c-2.8,0-5.9-1.7-7.8-4.3L215.1,153.4"/>
	<path class="st2" d="M268,128h-6v-8.1l-20.4,16h5.9v8.8c0,8.3,6.6,11.7,12.4,11.7c3,0,6.3-0.9,8.3-2.3V143c-0.9,1.3-2.1,2-3.5,2
		c-1.8,0-2.7-1.1-2.7-3.1v-6h6V128"/>
	<path class="st2" d="M284,138.9c-0.1-2.6,1.4-4.5,3.3-4.5c2.1,0,3.4,1.7,3.5,4.5H284z M299.6,145.4c-1.8,1.9-4.7,3.1-7.8,3.1
		c-3.3,0-5.9-1.8-7-4.6h14.8c0.4-10.5-6.4-16.5-15.2-16.5c-8.7,0-14.8,5.9-14.8,14.3c0,9,6.5,14.9,16.3,14.9
		c5.9,0,10.4-1.9,13.7-6.2V145.4"/>
	<path class="st2" d="M73.8,100.6h1.1c3.3,0,4.4,1.7,4.4,4c0,2.7-1.4,3.7-5,3.7h-0.5V100.6z M73.8,87.7h1c3.2,0,4.2,1.5,4.2,3.5
		c0,2.5-1.3,3.5-4.8,3.5h-0.4V87.7z M58,80.5v35.7H83c8.3,0,12.2-4.4,12.2-9.9c0-3.1-1.1-5.8-5.6-8.2c3.6-2.1,4.7-4.7,4.7-7.7
		c0-4.1-2.3-10-13.9-10H58"/>
	<path class="st2" d="M103.9,84c0,2.3,1.9,4.1,4.1,4.1c2.3,0,4.1-1.9,4.1-4.1c0-2.3-1.8-4.1-4.1-4.1C105.8,79.9,103.9,81.7,103.9,84
		 M112.2,88c-1.8,1.1-4.4,1.6-7.1,1.6c-2.8,0-5.8-0.6-7.4-1.6v28.2h14.5V88"/>
</g>
<rect x="115.9" y="80.5" class="st1" width="14.5" height="35.7"/>
<g>
	<defs>
		<rect id="SVGID_5_" width="398.6" height="196.5"/>
	</defs>
	<clipPath id="SVGID_6_">
		<use xlink:href="#SVGID_5_"  style="overflow:visible;"/>
	</clipPath>
	<path class="st3" d="M152.6,105.9h-1.1c-2.8,0-4.3-1-4.3-3.5c0-2.1,1.2-3.6,3-3.6c0.9,0,1.8,0.3,2.4,0.7V105.9z M167.1,80.5h-14.5
		v8.3c-0.6-0.3-2.8-1-5.5-1c-7.9,0-13.9,6-13.9,14.1c0,6.8,4.6,14.3,16.6,14.3h17.2V80.5"/>
	<path class="st3" d="M184.3,99c-0.1-2.6,1.4-4.5,3.3-4.5c2.1,0,3.4,1.7,3.5,4.5H184.3z M199.9,105.5c-1.8,1.9-4.7,3.1-7.8,3.1
		c-3.3,0-5.9-1.8-7-4.6h14.8c0.4-10.5-6.4-16.5-15.2-16.5c-8.7,0-14.8,5.9-14.8,14.3c0,9,6.5,14.9,16.3,14.9
		c5.9,0,10.4-1.9,13.7-6.2V105.5"/>
	<path class="st3" d="M217.2,88h-14.5v28.2h14.5v-19c0.7-0.5,1.8-0.9,2.6-0.9c1.8,0,2.7,1.2,2.7,3.5v16.5h13.7V98.7
		c0-8.9-5.4-10.9-10.2-10.9c-3.5,0-6.1,1.2-8.7,3.8V88"/>
	<path class="st3" d="M258.1,105.9H257c-2.8,0-4.3-1-4.3-3.5c0-2.1,1.2-3.6,3-3.6c0.9,0,1.8,0.3,2.4,0.7V105.9z M272.6,80.5h-14.5
		v8.3c-0.6-0.3-2.8-1-5.5-1c-7.9,0-13.9,6-13.9,14.1c0,6.8,4.6,14.3,16.6,14.3h17.2V80.5"/>
	<path class="st3" d="M289.8,99c-0.1-2.6,1.4-4.5,3.3-4.5c2.1,0,3.4,1.7,3.5,4.5H289.8z M305.4,105.5c-1.8,1.9-4.7,3.1-7.8,3.1
		c-3.3,0-5.9-1.8-7-4.6h14.8c0.4-10.5-6.4-16.5-15.2-16.5c-8.7,0-14.8,5.9-14.8,14.3c0,9,6.5,14.9,16.3,14.9
		c5.9,0,10.4-1.9,13.7-6.2V105.5"/>
	<path class="st3" d="M322.7,88h-14.5v28.2h14.5v-19c0.7-0.5,1.8-0.9,2.6-0.9c1.8,0,2.7,1.2,2.7,3.5v16.5h13.7V98.7
		c0-8.9-5.4-10.9-10.2-10.9c-3.5,0-6.1,1.2-8.7,3.8V88"/>
</g>
<path class="st1" d="M23.7,53L23.7,53l3,8.7h-5.9L23.7,53z M12.4,40.5L0,76.3h15.8l2.1-6h11.6l2.1,6h15.8L35,40.5H12.4z"/>
<g>
	<defs>
		<rect id="SVGID_7_" width="398.6" height="196.5"/>
	</defs>
	<clipPath id="SVGID_8_">
		<use xlink:href="#SVGID_7_"  style="overflow:visible;"/>
	</clipPath>
	<path class="st4" d="M63,40.5H48.5v35.7H63V62.4c4.2,1.7,5.5,6,5.5,13.9h14.3c0.2-8.3-1.7-13.1-5.9-16.5c3.7-2.7,5.4-5.7,5.9-11.8
		H68c-0.1,4.3-1.2,7.7-5,9.4V40.5"/>
	<path class="st4" d="M98.6,70c-0.6,0.5-1.4,0.8-2.3,0.8c-1.7,0-3-1.2-3-2.7c0-1.5,1.2-2.4,2.9-2.4c0.8,0,1.3,0.1,2.4,0.4V70z
		 M84.7,59.7c3-1.6,5.3-2.3,8.2-2.3c3.5,0,5.7,1.4,5.7,4.2c-1.5-0.4-3.3-0.7-4.9-0.7c-5.8,0-9.6,3.4-9.6,8.2c0,4.3,3.2,7.4,7.5,7.4
		c2.4,0,5.2-1,7.1-2.4v2.1H113V60.7c0-9.4-5.5-12.9-14.4-12.9c-5.5,0-9.4,1-13.9,3.4V59.7"/>
	<path class="st4" d="M135.3,66h-1.2c-2.8,0-4.3-1-4.3-3.5c0-2.1,1.2-3.6,3-3.6c0.9,0,1.8,0.3,2.4,0.7V66z M149.7,40.5h-14.5v8.3
		c-0.6-0.3-2.8-1-5.5-1c-7.9,0-13.9,6-13.9,14.1c0,6.8,4.6,14.3,16.6,14.3h17.2V40.5"/>
	<path class="st4" d="M166.9,59c-0.1-2.6,1.4-4.5,3.3-4.5c2.1,0,3.4,1.7,3.5,4.5H166.9z M182.6,65.5c-1.8,1.9-4.7,3.1-7.8,3.1
		c-3.3,0-5.9-1.8-7-4.6h14.8c0.4-10.5-6.4-16.5-15.2-16.5c-8.7,0-14.8,5.9-14.8,14.3c0,9,6.5,14.9,16.3,14.9
		c5.9,0,10.4-1.9,13.7-6.2V65.5"/>
	<path class="st4" d="M199.7,48.1h-14.5v28.2h14.5v-19c0.7-0.5,1.8-1,2.6-1c1.7,0,2.7,1.2,2.7,3.2v16.8h13.7V57.2
		c0.7-0.5,1.8-0.9,2.6-0.9c1.5,0,2.7,1.1,2.7,3.2v16.8h13.7V58.6c0-7.2-4.1-10.7-9.9-10.7c-4,0-7,1.4-10.3,4.9
		c-2.1-3.4-4.9-4.9-9.1-4.9c-3.5,0-6.4,1.3-8.7,3.8V48.1"/>
	<path class="st4" d="M247.6,44c0,2.3,1.9,4.1,4.1,4.1c2.3,0,4.1-1.9,4.1-4.1c0-2.3-1.8-4.1-4.1-4.1C249.5,39.9,247.6,41.8,247.6,44
		 M255.9,48.1c-1.8,1.1-4.4,1.6-7.1,1.6c-2.8,0-5.8-0.6-7.4-1.6v28.2h14.5V48.1"/>
	<path class="st4" d="M273,59c-0.1-2.6,1.4-4.5,3.3-4.5c2.1,0,3.4,1.7,3.5,4.5H273z M288.6,65.5c-1.8,1.9-4.7,3.1-7.8,3.1
		c-3.3,0-5.9-1.8-7-4.6h14.8c0.4-10.5-6.4-16.5-15.2-16.5c-8.7,0-14.8,5.9-14.8,14.3c0,9,6.5,14.9,16.3,14.9
		c5.9,0,10.4-1.9,13.7-6.2V65.5"/>
	<path class="st4" d="M319.3,66h-1.1c-2.8,0-4.3-1-4.3-3.5c0-2.1,1.2-3.6,3-3.6c0.9,0,1.8,0.3,2.4,0.7V66z M333.7,40.5h-14.5v8.3
		c-0.6-0.3-2.8-1-5.5-1c-7.9,0-13.9,6-13.9,14.1c0,6.8,4.6,14.3,16.6,14.3h17.2V40.5"/>
	<path class="st4" d="M350.9,59c-0.1-2.6,1.4-4.5,3.3-4.5c2.1,0,3.4,1.7,3.5,4.5H350.9z M366.6,65.5c-1.8,1.9-4.7,3.1-7.8,3.1
		c-3.3,0-5.9-1.8-7-4.6h14.8c0.4-10.5-6.4-16.5-15.2-16.5c-8.7,0-14.8,5.9-14.8,14.3c0,9,6.5,14.9,16.3,14.9
		c5.9,0,10.4-1.9,13.7-6.2V65.5"/>
	<path class="st4" d="M383.8,48.1h-14.5v28.2h14.5V65.8c0-3.5,0.7-5.6,2.2-6.8c1.6,1.7,3.5,2.6,5.9,2.6c4,0,6.7-2.8,6.7-6.9
		c0-4-2.8-6.8-6.7-6.8c-3.4,0-6.2,2.2-7.9,6.2h-0.1V48.1"/>
	<path class="st4" d="M90.5,2.4C86.7,1,81.1,0,76.2,0C65,0,59.1,4.1,59.1,12c0,10.8,14,9.7,14,14c0,1.2-1.2,2-2.6,2
		c-3.2,0-6.9-2.3-9-5.7l-3.9,11.9c5.1,2,10.4,2.7,16.4,2.7c11.6,0,17.2-4.3,17.2-11.8c0-2.8-0.9-5-2.5-6.7c-4-4-13.7-5.3-13.7-7.9
		c0-1.2,0.9-2.1,2.8-2.1c3.3,0,6.5,1.9,8.9,5.2L90.5,2.4"/>
	<path class="st4" d="M115.7,8.1h-6V0L89.3,16h5.9v8.8c0,8.3,6.6,11.7,12.4,11.7c3,0,6.3-0.9,8.3-2.3V23.1c-0.9,1.3-2.1,2-3.5,2
		c-1.8,0-2.7-1.1-2.7-3.1v-6h6V8.1"/>
	<path class="st4" d="M132.5,30.1c-0.6,0.5-1.4,0.8-2.3,0.8c-1.7,0-3-1.2-3-2.7c0-1.5,1.2-2.4,2.9-2.4c0.8,0,1.3,0.1,2.4,0.4V30.1z
		 M118.6,19.7c3-1.6,5.3-2.3,8.2-2.3c3.5,0,5.7,1.4,5.7,4.2c-1.5-0.4-3.3-0.7-4.9-0.7c-5.8,0-9.6,3.4-9.6,8.2c0,4.3,3.2,7.4,7.5,7.4
		c2.4,0,5.2-1,7.1-2.4v2.1H147V20.7c0-9.5-5.5-12.9-14.4-12.9c-5.5,0-9.4,1-13.9,3.4V19.7"/>
	<path class="st4" d="M164.8,30.1c-0.6,0.5-1.4,0.8-2.3,0.8c-1.7,0-3-1.2-3-2.7c0-1.5,1.2-2.4,2.9-2.4c0.8,0,1.3,0.1,2.4,0.4V30.1z
		 M150.9,19.7c3-1.6,5.3-2.3,8.2-2.3c3.5,0,5.7,1.4,5.7,4.2c-1.5-0.4-3.3-0.7-4.9-0.7c-5.8,0-9.6,3.4-9.6,8.2c0,4.3,3.2,7.4,7.5,7.4
		c2.4,0,5.2-1,7.1-2.4v2.1h14.5V20.7c0-9.5-5.5-12.9-14.4-12.9c-5.5,0-9.4,1-13.9,3.4V19.7"/>
	<path class="st4" d="M205.1,8.1h-6V0l-20.4,16h5.9v8.8c0,8.3,6.6,11.7,12.4,11.7c3,0,6.3-0.9,8.3-2.3V23.1c-0.9,1.3-2.1,2-3.5,2
		c-1.8,0-2.7-1.1-2.7-3.1v-6h6V8.1"/>
</g>
<rect x="207.8" y="0.6" class="st1" width="14.5" height="35.7"/>
<g>
	<defs>
		<rect id="SVGID_9_" width="398.6" height="196.5"/>
	</defs>
	<clipPath id="SVGID_10_">
		<use xlink:href="#SVGID_9_"  style="overflow:visible;"/>
	</clipPath>
	<path class="st5" d="M232.2,4.1c0,2.3,1.9,4.1,4.1,4.1c2.3,0,4.1-1.9,4.1-4.1c0-2.3-1.8-4.1-4.1-4.1C234.1,0,232.2,1.8,232.2,4.1
		 M240.5,8.1c-1.8,1.1-4.4,1.6-7.1,1.6c-2.8,0-5.8-0.6-7.4-1.6v28.2h14.5V8.1"/>
	<path class="st5" d="M270.4,9.2c-3.3-1.1-7.1-1.7-10.5-1.7c-10.3,0-16.3,6.7-16.3,14.8c0,6.9,4.8,14.4,17.8,14.4
		c3.1,0,6.5-0.5,9.1-1.2V23.3c-1.6,0.9-4.6,1.5-7.3,1.5c-3.3,0-5-1-5-2.7c0-1.6,1.7-2.5,4.4-2.5c2.3,0,5.1,0.7,7.9,2.1V9.2"/>
	<path class="st5" d="M288.2,0.6h-14.5v35.7h14.5V17.6c0.8-0.7,1.6-1.1,2.5-1.1c1.7,0,2.7,1.2,2.7,3.6v16.3h13.7V18.5
		c0-6.9-4.1-10.7-10.4-10.7c-3.5,0-6.3,1.3-8.5,3.9V0.6"/>
	<path class="st5" d="M324.2,19.1c-0.1-2.6,1.4-4.5,3.3-4.5c2.1,0,3.4,1.7,3.5,4.5H324.2z M339.8,25.6c-1.8,1.9-4.7,3.1-7.8,3.1
		c-3.3,0-5.9-1.8-7-4.6h14.8c0.4-10.5-6.4-16.5-15.2-16.5c-8.7,0-14.8,5.9-14.8,14.3c0,9,6.5,14.9,16.3,14.9
		c5.9,0,10.4-1.9,13.7-6.2V25.6"/>
</g>
</svg>
