<svg xmlns="http://www.w3.org/2000/svg" viewBox="0 0 841.88976 595.27559"><defs><style>.cls-1{fill:#000000;}</style></defs><title>abk-Logo_Bildmarke</title><g id="Ebene_1" data-name="Ebene 1"><path class="cls-1" d="M108.65721,344.78882a10.27149,10.27149,0,0,0-.40656-2.74461,6.7317,6.7317,0,0,0-1.49151-2.67816,7.92528,7.92528,0,0,0-3.01745-1.99775,13.16265,13.16265,0,0,0-4.91432-.78189,14.46552,14.46552,0,0,0-4.88229.67619A6.98131,6.98131,0,0,0,91.132,339.03a5.606,5.606,0,0,0-1.32137,2.43954,10.82276,10.82276,0,0,0-.34009,2.64292,6.65533,6.65533,0,0,0,.9178,3.65942,6.8796,6.8796,0,0,0,2.506,2.30683,15.48791,15.48791,0,0,0,3.7641,1.423q2.167.53957,4.61046,1.15341,2.84439.6804,5.66017,1.48951a19.9573,19.9573,0,0,1,5.1189,2.2716,11.42207,11.42207,0,0,1,3.72788,3.83157,11.71716,11.71716,0,0,1,1.42405,6.099,16.79094,16.79094,0,0,1-.74485,4.84806,10.79369,10.79369,0,0,1-2.71238,4.47653,14.78029,14.78029,0,0,1-5.38935,3.28809,25.34866,25.34866,0,0,1-8.77931,1.28634,23.23911,23.23911,0,0,1-8.88281-1.42306,14.18078,14.18078,0,0,1-5.28785-3.59315,11.74039,11.74039,0,0,1-2.57646-4.64469,20.00889,20.00889,0,0,1-.74486-4.64468h6.23708a11.34456,11.34456,0,0,0,.644,3.38978,7.69048,7.69048,0,0,0,1.865,2.91656,8.86205,8.86205,0,0,0,3.42381,2.033,16.46574,16.46574,0,0,0,5.38954.74686,19.32744,19.32744,0,0,0,5.42276-.64517,9.29292,9.29292,0,0,0,3.49227-1.79458,6.30851,6.30851,0,0,0,1.863-2.71318,10.20708,10.20708,0,0,0,.54348-3.38978,6.41579,6.41579,0,0,0-1.05073-3.83157,8.0095,8.0095,0,0,0-2.77984-2.37309,16.80538,16.80538,0,0,0-4.03375-1.45447q-2.30782-.54528-4.81283-1.15322-2.84739-.61014-5.55968-1.45848a16.99092,16.99092,0,0,1-4.81383-2.33786,11.48428,11.48428,0,0,1-3.39058-3.7651,11.78816,11.78816,0,0,1-1.28834-5.86056,14.7427,14.7427,0,0,1,.81432-4.85206,10.4646,10.4646,0,0,1,2.679-4.13243,13.218,13.218,0,0,1,4.81283-2.84631,24.84356,24.84356,0,0,1,14.30458,0,14.21159,14.21159,0,0,1,5.01621,2.88154,11.91884,11.91884,0,0,1,3.01625,4.26935,13.384,13.384,0,0,1,1.01749,5.21939Z"/><path class="cls-1" d="M123.36834,347.43574l4.60865-1.96652v-7.11966h5.96625v7.11966h5.89958v4.74617h-5.89958V370.8235a4.77544,4.77544,0,0,0,.74465,3.04948,2.84585,2.84585,0,0,0,2.30583.88358h3.11994v4.81283h-4.40827a9.21725,9.21725,0,0,1-3.66042-.64517,6.57362,6.57362,0,0,1-2.40631-1.69669,5.98109,5.98109,0,0,1-1.28834-2.5062,12.39533,12.39533,0,0,1-.37333-3.08471V350.21539h-4.60865Z"/><path class="cls-1" d="M177.18853,372.98749a16.2775,16.2775,0,0,0,.81943,5.8205v.75412h-5.88863a11.70876,11.70876,0,0,1-.47875-2.156,17.82042,17.82042,0,0,1-.20542-2.57069v-.47775h-.7521q-3.76869,5.88762-11.50491,5.88762a14.38665,14.38665,0,0,1-5.03262-.78587,9.26244,9.26244,0,0,1-3.42368-2.156,8.38475,8.38475,0,0,1-1.95162-3.18672,11.94606,11.94606,0,0,1-.616-3.86584,10.04593,10.04593,0,0,1,1.165-5.13734,8.60328,8.60328,0,0,1,3.081-3.11556,15.63685,15.63685,0,0,1,4.34763-1.70982q2.43129-.58044,4.99824-.96357,2.56744-.373,5.03463-.7147a17.0834,17.0834,0,0,0,4.38119-1.16475v-2.12064a10.8112,10.8112,0,0,0-.27254-2.36528,5.436,5.436,0,0,0-1.02767-2.156,5.141,5.141,0,0,0-2.228-1.54,10.48044,10.48044,0,0,0-3.79791-.58449,8.23641,8.23641,0,0,0-3.73159.71874,6.36144,6.36144,0,0,0-2.19343,1.74924,5.34029,5.34029,0,0,0-1.02484,2.1916,10.421,10.421,0,0,0-.23978,2.12044h-6.09586a14.748,14.748,0,0,1,.6504-3.459,10.19527,10.19527,0,0,1,2.02178-3.66063,11.1268,11.1268,0,0,1,4.00413-2.87861,16.34032,16.34032,0,0,1,6.67631-1.1609A17.41239,17.41239,0,0,1,170.99,345.496a10.76416,10.76416,0,0,1,4.00716,2.91035,8.73107,8.73107,0,0,1,1.77977,3.62889,16.58124,16.58124,0,0,1,.41163,3.42347Zm-16.5719,2.66936a10.6781,10.6781,0,0,0,4.34743-.853,9.94033,9.94033,0,0,0,5.44343-5.68625,11.37908,11.37908,0,0,0,.75433-4.13838v-3.35635a9.81474,9.81474,0,0,1-1.98539.64758c-.86855.20521-1.78178.387-2.7393.55275q-1.43658.23685-2.70594.44237c-.84308.13424-1.4937.24867-1.95163.33945a30.16972,30.16972,0,0,0-3.013.78991,8.54175,8.54175,0,0,0-2.39581,1.19649,5.47036,5.47036,0,0,0-1.60832,1.85195,5.62761,5.62761,0,0,0-.58228,2.66935,5.18393,5.18393,0,0,0,1.64371,4.07125A6.93534,6.93534,0,0,0,160.61663,375.65685Z"/><path class="cls-1" d="M215.97956,372.98749a16.2749,16.2749,0,0,0,.82024,5.8205v.75412h-5.88863a11.62442,11.62442,0,0,1-.47876-2.156,17.67743,17.67743,0,0,1-.20541-2.57069v-.47775h-.7521q-3.7702,5.88762-11.50573,5.88762a14.38185,14.38185,0,0,1-5.0318-.78587,9.26236,9.26236,0,0,1-3.42368-2.156,8.35978,8.35978,0,0,1-1.95162-3.18672,11.9189,11.9189,0,0,1-.61705-3.86584,10.04567,10.04567,0,0,1,1.166-5.13734,8.60339,8.60339,0,0,1,3.081-3.11556,15.63685,15.63685,0,0,1,4.34763-1.70982q2.43159-.58044,4.99824-.96357,2.56745-.373,5.03463-.7147a17.09447,17.09447,0,0,0,4.38119-1.16475v-2.12064a10.75269,10.75269,0,0,0-.27354-2.36528,5.42282,5.42282,0,0,0-1.02768-2.156,5.14355,5.14355,0,0,0-2.227-1.54,10.4851,10.4851,0,0,0-3.79871-.58449,8.24119,8.24119,0,0,0-3.7316.71874,6.35815,6.35815,0,0,0-2.19261,1.74924,5.33951,5.33951,0,0,0-1.02565,2.1916,10.473,10.473,0,0,0-.239,2.12044H189.342a14.69664,14.69664,0,0,1,.65041-3.459,10.19,10.19,0,0,1,2.021-3.66063,11.11959,11.11959,0,0,1,4.00494-2.87861,16.34136,16.34136,0,0,1,6.67652-1.1609,17.41462,17.41462,0,0,1,7.08693,1.19648,10.77248,10.77248,0,0,1,4.00716,2.91035,8.741,8.741,0,0,1,1.77977,3.62889,16.64569,16.64569,0,0,1,.41082,3.42347Zm-16.57109,2.66936a10.67973,10.67973,0,0,0,4.34763-.853,9.949,9.949,0,0,0,5.44323-5.68625,11.40058,11.40058,0,0,0,.75433-4.13838v-3.35635a9.8387,9.8387,0,0,1-1.98519.64758c-.86875.20521-1.782.387-2.7395.55275q-1.43658.23685-2.70594.44237c-.84308.13424-1.4937.24867-1.95163.33945a30.11184,30.11184,0,0,0-3.01306.78991,8.54812,8.54812,0,0,0-2.39681,1.19649,5.46649,5.46649,0,0,0-1.6071,1.85195,5.625,5.625,0,0,0-.5835,2.66935,5.18189,5.18189,0,0,0,1.64472,4.07125A6.93567,6.93567,0,0,0,199.40847,375.65685Z"/><path class="cls-1" d="M224.49643,347.43574l4.60945-1.96652v-7.11966h5.96625v7.11966h5.89958v4.74617h-5.89958V370.8235a4.77551,4.77551,0,0,0,.74465,3.04948,2.84449,2.84449,0,0,0,2.30583.88358h3.11894v4.81283h-4.40727a9.21387,9.21387,0,0,1-3.66042-.64517,6.56015,6.56015,0,0,1-2.4063-1.69669,5.9834,5.9834,0,0,1-1.28835-2.5062,12.34867,12.34867,0,0,1-.37333-3.08471V350.21539h-4.60945Z"/><path class="cls-1" d="M257.00541,379.56939h-5.96625V332.10967h5.96625Z"/><path class="cls-1" d="M272.70181,330.75688a3.63639,3.63639,0,0,1,2.71238,1.11819,3.7201,3.7201,0,0,1,1.08395,2.67815,3.79718,3.79718,0,1,1-7.59367,0,3.70883,3.70883,0,0,1,1.08495-2.67815A3.63359,3.63359,0,0,1,272.70181,330.75688Zm2.983,48.81251h-5.967V345.46922h5.967Z"/><path class="cls-1" d="M309.95716,356.65465a8.047,8.047,0,0,0-.74665-2.64293,8.1928,8.1928,0,0,0-1.62543-2.30662,7.69648,7.69648,0,0,0-2.44256-1.62643,9.28518,9.28518,0,0,0-10.33829,2.60769q-2.54234,3.22544-2.54223,9.79781,0,6.574,2.54223,9.76238a8.47784,8.47784,0,0,0,7.018,3.1864,8.62008,8.62008,0,0,0,5.7961-1.72811,6.83424,6.83424,0,0,0,2.33886-4.50777h5.96725a15.14485,15.14485,0,0,1-1.28913,4.16767,10.85658,10.85658,0,0,1-2.67917,3.5265A13.12262,13.12262,0,0,1,307.719,379.331a17.2044,17.2044,0,0,1-5.89679.91481,16.07163,16.07163,0,0,1-6.74713-1.32157,13.4505,13.4505,0,0,1-4.84506-3.69464,15.85026,15.85026,0,0,1-2.95-5.62595,24.48623,24.48623,0,0,1-.98427-7.11946,25.65424,25.65424,0,0,1,.95-7.15088,15.75124,15.75124,0,0,1,2.88053-5.66118,13.10043,13.10043,0,0,1,4.84906-3.69465,16.40614,16.40614,0,0,1,6.84682-1.32156,15.12921,15.12921,0,0,1,5.89679,1.05173,12.98966,12.98966,0,0,1,4.23712,2.77584,12.79,12.79,0,0,1,2.67917,3.86679,17.14029,17.14029,0,0,1,1.28913,4.30439Z"/><path class="cls-1" d="M325.34388,379.56939V332.10967h5.966v18.78211h.74385a9.75141,9.75141,0,0,1,2.035-2.94779,11.54229,11.54229,0,0,1,2.6097-1.9353,10.7379,10.7379,0,0,1,2.77984-1.04792,11.94447,11.94447,0,0,1,2.6097-.30487q5.696,0,8.64539,3.15117,2.9483,3.14917,2.9468,10.27083v21.49149h-5.96325V358.55492a17.21112,17.21112,0,0,0-.30685-3.32332,7.331,7.331,0,0,0-1.1172-2.74842,5.51829,5.51829,0,0,0-2.23937-1.861,8.69576,8.69576,0,0,0-3.72687-.6804,7.17927,7.17927,0,0,0-3.8646,1.05172,8.98931,8.98931,0,0,0-2.8463,2.8463,13.49554,13.49554,0,0,0-1.72912,4.2029,21.83933,21.83933,0,0,0-.5767,5.1177v16.409Z"/><path class="cls-1" d="M369.82819,363.86391a12.90867,12.90867,0,0,0,2.5341,8.38734q2.53382,3.12153,7.39525,3.11556a10.00455,10.00455,0,0,0,3.55976-.54891,7.55248,7.55248,0,0,0,2.36223-1.36632,6.33179,6.33179,0,0,0,1.43849-1.81636,7.65516,7.65516,0,0,0,.71774-1.95466h6.0257a14.21528,14.21528,0,0,1-1.43526,4.04356,11.46832,11.46832,0,0,1-2.74052,3.35655,13.04068,13.04068,0,0,1-4.21237,2.29027,17.77319,17.77319,0,0,1-5.78308.85683,17.09307,17.09307,0,0,1-6.88174-1.29919,13.66905,13.66905,0,0,1-4.998-3.66447,15.80138,15.80138,0,0,1-3.04763-5.65067,26.23394,26.23394,0,0,1,0-14.54729,16.79653,16.79653,0,0,1,2.97646-5.71779,13.3868,13.3868,0,0,1,4.82942-3.73159,15.40261,15.40261,0,0,1,6.57179-1.33478,15.64874,15.64874,0,0,1,6.50466,1.29919,13.26166,13.26166,0,0,1,4.82923,3.66447,16.42188,16.42188,0,0,1,2.97746,5.68221,25.05432,25.05432,0,0,1,1.02768,7.42781v1.50824Zm9.24518-14.85925a8.78513,8.78513,0,0,0-3.83531.82145,8.58281,8.58281,0,0,0-2.90934,2.25873,10.32153,10.32153,0,0,0-1.84992,3.39193,13.43774,13.43774,0,0,0-.65061,4.27646h18.55729a12.91494,12.91494,0,0,0-2.60223-7.80668A8.17889,8.17889,0,0,0,379.07337,349.00466Z"/><path class="cls-1" d="M416.25959,379.56939v-.74666l16.06793-46.71306h7.79485l16.1374,46.71306v.74666h-6.17064l-4.068-11.99875H426.36027l-4.00052,11.99875Zm11.65965-17.15188h16.6104l-7.93077-23.6614H435.851Z"/><path class="cls-1" d="M488.83419,379.56939l-10.84554-15.25561h-.81311l-5.76387,6.64644v8.60917h-5.96624V332.10967h5.96624v30.7146h.74486l14.57821-17.35505h6.23688v.74265l-11.59519,13.55892,13.69464,19.05194v.74666Z"/><path class="cls-1" d="M530.50621,372.956a16.3,16.3,0,0,0,.81942,5.82049v.75413H525.438a11.62456,11.62456,0,0,1-.47876-2.156,17.67743,17.67743,0,0,1-.20541-2.57069v-.47774h-.75231q-3.7699,5.88762-11.50472,5.88761a14.38286,14.38286,0,0,1-5.0326-.78586,9.26089,9.26089,0,0,1-3.42368-2.156,8.3597,8.3597,0,0,1-1.95162-3.18673,11.94037,11.94037,0,0,1-.617-3.86584,10.0454,10.0454,0,0,1,1.166-5.13733,8.59375,8.59375,0,0,1,3.081-3.11556,15.6363,15.6363,0,0,1,4.34763-1.70982q2.43131-.58046,4.998-.96358,2.56776-.373,5.03382-.7147a17.09087,17.09087,0,0,0,4.3822-1.16474v-2.12065a10.75267,10.75267,0,0,0-.27354-2.36527,5.4254,5.4254,0,0,0-1.02767-2.156,5.137,5.137,0,0,0-2.22719-1.54,10.48059,10.48059,0,0,0-3.79872-.5845,8.23429,8.23429,0,0,0-3.73058.71874,6.35035,6.35035,0,0,0-2.19343,1.74924,5.34274,5.34274,0,0,0-1.02585,2.19161,10.48658,10.48658,0,0,0-.23875,2.12044h-6.09689a14.80149,14.80149,0,0,1,.6504-3.45906,10.22632,10.22632,0,0,1,2.02178-3.66063,11.13114,11.13114,0,0,1,4.00514-2.8786,16.34034,16.34034,0,0,1,6.67631-1.16091,17.41892,17.41892,0,0,1,7.08714,1.19649,10.76979,10.76979,0,0,1,4.007,2.91035,8.72928,8.72928,0,0,1,1.78,3.62889,16.57524,16.57524,0,0,1,.41061,3.42347Zm-16.57109,2.66935a10.67491,10.67491,0,0,0,4.34763-.853,9.94849,9.94849,0,0,0,5.44343-5.68624,11.37936,11.37936,0,0,0,.75432-4.13838v-3.35635a9.84124,9.84124,0,0,1-1.98538.64757c-.86874.20521-1.78179.387-2.73931.55276q-1.43657.23685-2.70594.44236c-.84309.13425-1.49369.24868-1.95181.33946a30.1083,30.1083,0,0,0-3.01287.78991,8.54271,8.54271,0,0,0-2.396,1.19648,5.46107,5.46107,0,0,0-1.60812,1.85195,5.62518,5.62518,0,0,0-.58328,2.66935,5.18179,5.18179,0,0,0,1.64451,4.07126A6.936,6.936,0,0,0,513.93512,375.62535Z"/><path class="cls-1" d="M565.81785,379.56939v-5.35631h-.74665a11.61244,11.61244,0,0,1-4.8833,4.74637,13.28159,13.28159,0,0,1-5.62594,1.28634,12.73888,12.73888,0,0,1-6.0327-1.3566,12.3986,12.3986,0,0,1-4.33782-3.79633,17.27928,17.27928,0,0,1-2.64592-5.72764,27.547,27.547,0,0,1-.88058-7.15088,26.79968,26.79968,0,0,1,.88058-7.08443,16.63765,16.63765,0,0,1,2.61169-5.55949,11.90435,11.90435,0,0,1,4.30561-3.62819,13.19342,13.19342,0,0,1,5.96622-1.28633,13.69979,13.69979,0,0,1,5.45582,1.11818,10.79272,10.79272,0,0,1,4.64486,4.23413h.81312V332.10967h5.96424v47.45972Zm-.475-17.35505q0-6.31035-2.67816-9.55921a8.51157,8.51157,0,0,0-6.881-3.25686,7.97407,7.97407,0,0,0-6.64344,3.25686q-2.5087,3.24887-2.5092,9.55921,0,6.23407,2.5092,9.76238a7.77793,7.77793,0,0,0,6.64344,3.5267,8.27766,8.27766,0,0,0,6.881-3.5267Q565.34183,368.44652,565.34284,362.21434Z"/><path class="cls-1" d="M587.67972,363.84991a12.908,12.908,0,0,0,2.53531,8.38735q2.532,3.12151,7.394,3.11556a10.00368,10.00368,0,0,0,3.55975-.54892,7.52479,7.52479,0,0,0,2.36143-1.36631,6.30071,6.30071,0,0,0,1.43931-1.81637,7.72764,7.72764,0,0,0,.71874-1.95465H611.714a14.24012,14.24012,0,0,1-1.43528,4.04355,11.48437,11.48437,0,0,1-2.74052,3.35656,13.07611,13.07611,0,0,1-4.21136,2.29027,17.78574,17.78574,0,0,1-5.78491.85682,17.10389,17.10389,0,0,1-6.88272-1.29919,13.67276,13.67276,0,0,1-4.99724-3.66447,15.79923,15.79923,0,0,1-3.04642-5.65067,26.22855,26.22855,0,0,1,0-14.54729,16.7768,16.7768,0,0,1,2.97525-5.71779,13.39549,13.39549,0,0,1,4.82942-3.73159,15.40814,15.40814,0,0,1,6.5728-1.33478,15.64978,15.64978,0,0,1,6.50365,1.2992,13.25537,13.25537,0,0,1,4.82942,3.66447,16.42126,16.42126,0,0,1,2.97727,5.6822,25.01613,25.01613,0,0,1,1.02666,7.42781v1.50824Zm9.24417-14.85925a8.787,8.787,0,0,0-3.8343.82145,8.57608,8.57608,0,0,0-2.90812,2.25873,10.307,10.307,0,0,0-1.85013,3.39193,13.43753,13.43753,0,0,0-.65162,4.27647h18.55749a12.91619,12.91619,0,0,0-2.60243-7.80669A8.178,8.178,0,0,0,596.92389,348.99066Z"/><path class="cls-1" d="M644.66456,379.56939V358.55492a21.60059,21.60059,0,0,0-.23661-3.25686,6.77805,6.77805,0,0,0-1.01849-2.74462,5.60951,5.60951,0,0,0-2.16791-1.90007,7.9982,7.9982,0,0,0-3.62819-.71162,7.56505,7.56505,0,0,0-3.86279.95,8.51321,8.51321,0,0,0-2.74642,2.57647,11.67307,11.67307,0,0,0-1.66166,3.7613,18.34744,18.34744,0,0,0-.54147,4.50777v17.83207h-5.96625V345.46922h5.42277v5.62594h.81511a9.268,9.268,0,0,1,1.96475-2.983,12.394,12.394,0,0,1,2.57645-1.998,10.18936,10.18936,0,0,1,2.81487-1.122,12.30168,12.30168,0,0,1,2.74461-.3363,11.02576,11.02576,0,0,1,6.23989,1.556,10.84851,10.84851,0,0,1,3.72587,4.88329h.74488a9.8079,9.8079,0,0,1,4.67789-4.981,14.7398,14.7398,0,0,1,6.44126-1.45828q5.35431,0,8.40779,3.08091,3.04949,3.09061,3.04948,10.34109v21.49149h-5.966v-20.948a21.11474,21.11474,0,0,0-.23661-3.1864,7.101,7.101,0,0,0-1.01649-2.77985,5.72057,5.72057,0,0,0-2.16991-1.96653,7.66919,7.66919,0,0,0-3.62819-.74685q-4.40727,0-6.60941,2.81507a11.93775,11.93775,0,0,0-2.20294,7.55745v19.25512Z"/><path class="cls-1" d="M687.81769,330.75688a3.63863,3.63863,0,0,1,2.71339,1.11819,3.71913,3.71913,0,0,1,1.08295,2.67815,3.79672,3.79672,0,1,1-7.59268,0,3.711,3.711,0,0,1,1.083-2.67815A3.63862,3.63862,0,0,1,687.81769,330.75688Zm2.983,48.81251h-5.966V345.46922h5.966Z"/><path class="cls-1" d="M708.3685,363.84991a12.89761,12.89761,0,0,0,2.5351,8.38735q2.53228,3.12151,7.394,3.11556a10.00549,10.00549,0,0,0,3.55995-.54892,7.54662,7.54662,0,0,0,2.36123-1.36631,6.30071,6.30071,0,0,0,1.43931-1.81637,7.72074,7.72074,0,0,0,.71874-1.95465h6.02591a14.30915,14.30915,0,0,1-1.43547,4.04355,11.48119,11.48119,0,0,1-2.74052,3.35656,13.06468,13.06468,0,0,1-4.21315,2.29027,17.77546,17.77546,0,0,1-5.78312.85682,17.104,17.104,0,0,1-6.88273-1.29919,13.698,13.698,0,0,1-4.99905-3.66447,15.824,15.824,0,0,1-3.04459-5.65067,26.229,26.229,0,0,1,0-14.54729,16.77329,16.77329,0,0,1,2.97545-5.71779,13.39214,13.39214,0,0,1,4.82941-3.73159,15.40716,15.40716,0,0,1,6.5726-1.33478,15.64913,15.64913,0,0,1,6.50365,1.2992,13.27033,13.27033,0,0,1,4.82942,3.66447,16.42142,16.42142,0,0,1,2.97747,5.6822,25.08859,25.08859,0,0,1,1.02666,7.42781v1.50824Zm9.244-14.85925a8.78541,8.78541,0,0,0-3.83409.82145,8.57485,8.57485,0,0,0-2.90831,2.25873,10.30684,10.30684,0,0,0-1.85015,3.39193,13.43758,13.43758,0,0,0-.65141,4.27647h18.55728a12.91734,12.91734,0,0,0-2.60223-7.80669A8.18129,8.18129,0,0,0,717.61246,348.99066Z"/><path class="cls-1" d="M106.00648,450.7922v-5.35631h-.74666a11.5889,11.5889,0,0,1-4.88229,4.74637,13.295,13.295,0,0,1-5.62614,1.28633,12.78454,12.78454,0,0,1-6.03351-1.35279,12.44556,12.44556,0,0,1-4.33781-3.79633,17.29879,17.29879,0,0,1-2.64592-5.73164,27.54361,27.54361,0,0,1-.88058-7.15069,26.799,26.799,0,0,1,.88058-7.08443,16.61769,16.61769,0,0,1,2.6127-5.55948,11.88872,11.88872,0,0,1,4.30458-3.62439,13.14415,13.14415,0,0,1,5.966-1.29013,13.76919,13.76919,0,0,1,5.456,1.11818,10.78856,10.78856,0,0,1,4.64468,4.23813h.81431V403.33648h5.96425V450.7922Zm-.474-17.35506q0-6.30434-2.67915-9.5592a8.51062,8.51062,0,0,0-6.881-3.25286,7.97049,7.97049,0,0,0-6.64344,3.25286q-2.5087,3.25486-2.5092,9.5592,0,6.23979,2.5092,9.76639a7.78376,7.78376,0,0,0,6.64344,3.52249,8.28693,8.28693,0,0,0,6.881-3.52249Q105.532,439.673,105.53246,433.43714Z"/><path class="cls-1" d="M126.62723,435.07272a12.8943,12.8943,0,0,0,2.53409,8.38734q2.532,3.12153,7.39405,3.1194a10.00553,10.00553,0,0,0,3.55994-.54891,7.55748,7.55748,0,0,0,2.36225-1.37016,6.334,6.334,0,0,0,1.43829-1.81636,7.661,7.661,0,0,0,.71874-1.95081h6.02591a14.22585,14.22585,0,0,1-1.43647,4.03971,11.41492,11.41492,0,0,1-2.74032,3.35635,12.971,12.971,0,0,1-4.21157,2.29431,17.88941,17.88941,0,0,1-5.78491.853,17.10257,17.10257,0,0,1-6.88172-1.29919,13.63444,13.63444,0,0,1-4.99824-3.66447,15.779,15.779,0,0,1-3.04641-5.64683,26.2668,26.2668,0,0,1,0-14.55113,16.83147,16.83147,0,0,1,2.97646-5.718,13.38869,13.38869,0,0,1,4.82921-3.7316,16.86735,16.86735,0,0,1,13.07646-.03154,13.252,13.252,0,0,1,4.82941,3.66063,16.44228,16.44228,0,0,1,2.97646,5.68221,25.02988,25.02988,0,0,1,1.02767,7.43165v1.5044Zm9.244-14.85521a8.7297,8.7297,0,0,0-3.83511.82125,8.48451,8.48451,0,0,0-2.90934,2.25873,10.30227,10.30227,0,0,0-1.84992,3.38809,13.44929,13.44929,0,0,0-.6496,4.27646H145.1835a12.89021,12.89021,0,0,0-2.60223-7.80284A8.1675,8.1675,0,0,0,135.8712,420.21751Z"/><path class="cls-1" d="M161.02064,450.7922V416.69182h5.42276v5.69261h.81412a10.96444,10.96444,0,0,1,4.00072-4.53919q2.5084-1.55988,7.32183-1.56V422.318q-5.89687,0-8.74608,2.54523-2.8486,2.53933-2.84711,8.57394V450.7922Z"/><path class="cls-1" d="M202.9549,450.7922V403.33648h15.25281a29.10067,29.10067,0,0,1,6.101.60974,13.91969,13.91969,0,0,1,4.94875,2.037,10.219,10.219,0,0,1,3.32312,3.69465,11.68043,11.68043,0,0,1,1.22087,5.59091,11.30131,11.30131,0,0,1-1.76515,6.67767,11.00423,11.00423,0,0,1-4.13463,3.62819v.74686a17.15327,17.15327,0,0,1,3.39078,1.45428,10.81427,10.81427,0,0,1,4.88129,5.72783,12.56562,12.56562,0,0,1,.74465,4.47653,12.84108,12.84108,0,0,1-1.38882,6.33758,10.82167,10.82167,0,0,1-3.69665,3.93325,14.59488,14.59488,0,0,1-5.18516,1.99776,31.83542,31.83542,0,0,1-5.93.54348Zm6.10016-26.77754h9.08318a10.95872,10.95872,0,0,0,6.88406-1.96653q2.542-1.96463,2.54323-6.43926a7.89339,7.89339,0,0,0-.74786-3.66342,5.89666,5.89666,0,0,0-2.06922-2.26759,8.70032,8.70032,0,0,0-3.15016-1.18845,21.96331,21.96331,0,0,0-4.00052-.33629h-8.54271Zm0,21.96851h11.11817a20.5095,20.5095,0,0,0,3.93126-.37533,9.41377,9.41377,0,0,0,3.35635-1.32136,7.04944,7.04944,0,0,0,2.34006-2.54524,8.26014,8.26014,0,0,0,.88058-4.03094q0-4.47453-2.91557-6.67767a12.24684,12.24684,0,0,0-7.59268-2.20514H209.05506Z"/><path class="cls-1" d="M250.5133,401.97969a3.63644,3.63644,0,0,1,2.71239,1.11818,3.72192,3.72192,0,0,1,1.084,2.68216,3.79732,3.79732,0,1,1-6.50952-2.68216A3.63506,3.63506,0,0,1,250.5133,401.97969Zm2.98322,48.81251h-5.96623V416.69182h5.96623Z"/><path class="cls-1" d="M272.17494,450.7922h-5.966V403.33648h5.966Z"/><path class="cls-1" d="M307.93978,450.7922v-5.35631h-.74666a11.58773,11.58773,0,0,1-4.88229,4.74637,13.29486,13.29486,0,0,1-5.62594,1.28633,12.78478,12.78478,0,0,1-6.03371-1.35279,12.44556,12.44556,0,0,1-4.33781-3.79633,17.31894,17.31894,0,0,1-2.64593-5.73164,27.54405,27.54405,0,0,1-.88057-7.15069,26.79938,26.79938,0,0,1,.88057-7.08443,16.62194,16.62194,0,0,1,2.6127-5.55948,11.88055,11.88055,0,0,1,4.30458-3.62439,13.14447,13.14447,0,0,1,5.96625-1.29013,13.7737,13.7737,0,0,1,5.4568,1.11818,10.7935,10.7935,0,0,1,4.64388,4.23813h.81411V403.33648H313.43V450.7922Zm-.474-17.35506q0-6.30434-2.67914-9.5592a8.5104,8.5104,0,0,0-6.88106-3.25286,7.9692,7.9692,0,0,0-6.64344,3.25286q-2.5087,3.25486-2.509,9.5592,0,6.23979,2.509,9.76639a7.78253,7.78253,0,0,0,6.64344,3.52249,8.28671,8.28671,0,0,0,6.88106-3.52249Q307.46526,439.673,307.46576,433.43714Z"/><path class="cls-1" d="M329.3114,435.07272a12.8943,12.8943,0,0,0,2.5341,8.38734q2.532,3.12153,7.394,3.1194a10.00362,10.00362,0,0,0,3.55975-.54891,7.5473,7.5473,0,0,0,2.36246-1.37016A6.33817,6.33817,0,0,0,346.601,442.844a7.70239,7.70239,0,0,0,.71773-1.95081h6.0259a14.22523,14.22523,0,0,1-1.43647,4.03971,11.42487,11.42487,0,0,1-2.73951,3.35635,12.97521,12.97521,0,0,1-4.21237,2.29431,17.88742,17.88742,0,0,1-5.7839.853,17.09912,17.09912,0,0,1-6.88172-1.29919,13.63794,13.63794,0,0,1-4.99925-3.66447,15.77875,15.77875,0,0,1-3.04642-5.64683,26.2673,26.2673,0,0,1,0-14.55113,16.83637,16.83637,0,0,1,2.97727-5.718,13.37918,13.37918,0,0,1,4.82841-3.7316,16.86983,16.86983,0,0,1,13.07746-.03154,13.24849,13.24849,0,0,1,4.82841,3.66063,16.44057,16.44057,0,0,1,2.97727,5.68221,25.05627,25.05627,0,0,1,1.02767,7.43165v1.5044Zm9.244-14.85521a8.72365,8.72365,0,0,0-3.8343.82125,8.4798,8.4798,0,0,0-2.91014,2.25873,10.28633,10.28633,0,0,0-1.84912,3.38809,13.42639,13.42639,0,0,0-.65041,4.27646h18.55628a12.88372,12.88372,0,0,0-2.60223-7.80284A8.16752,8.16752,0,0,0,338.55537,420.21751Z"/><path class="cls-1" d="M364.9567,450.7922V416.69182h5.42376V422.318h.81312a10.33926,10.33926,0,0,1,2.035-2.98322,11.645,11.645,0,0,1,2.64312-1.99776,11.51908,11.51908,0,0,1,2.88033-1.12219,12.344,12.344,0,0,1,2.74662-.33609q5.83081,0,8.81535,3.15517,2.97921,3.14917,2.98122,10.27063V450.7922H387.331V429.77752a17.2534,17.2534,0,0,0-.30687-3.32312,7.30152,7.30152,0,0,0-1.11816-2.74861,5.538,5.538,0,0,0-2.23839-1.861,8.76326,8.76326,0,0,0-3.72787-.67619,7.79624,7.79624,0,0,0-3.8638.946,8.75126,8.75126,0,0,0-2.8473,2.54524,11.20121,11.20121,0,0,0-1.72792,3.72587,17.41929,17.41929,0,0,0-.57771,4.57823V450.7922Z"/><path class="cls-1" d="M428.72175,450.7922v-5.35631h-.74766a11.586,11.586,0,0,1-4.88129,4.74637,13.29587,13.29587,0,0,1-5.627,1.28633,12.78062,12.78062,0,0,1-6.0327-1.35279,12.44875,12.44875,0,0,1-4.33881-3.79633,17.31769,17.31769,0,0,1-2.64493-5.73164,27.54271,27.54271,0,0,1-.88157-7.15069,26.79785,26.79785,0,0,1,.88157-7.08443,16.63585,16.63585,0,0,1,2.6117-5.55948,11.88371,11.88371,0,0,1,4.30558-3.62439,13.14151,13.14151,0,0,1,5.96625-1.29013,13.77414,13.77414,0,0,1,5.456,1.11818,10.78321,10.78321,0,0,1,4.64368,4.23813h.81512V403.33648H434.211V450.7922Zm-.474-17.35506q0-6.30434-2.68016-9.5592a8.50733,8.50733,0,0,0-6.88-3.25286,7.97233,7.97233,0,0,0-6.64444,3.25286q-2.5072,3.25486-2.509,9.5592,0,6.23979,2.509,9.76639a7.78547,7.78547,0,0,0,6.64444,3.52249,8.28385,8.28385,0,0,0,6.88-3.52249Q428.24623,439.673,428.24773,433.43714Z"/><path class="cls-1" d="M451.30018,435.07272a12.89464,12.89464,0,0,0,2.53511,8.38734q2.532,3.12153,7.394,3.1194a10.0036,10.0036,0,0,0,3.55974-.54891,7.55825,7.55825,0,0,0,2.36245-1.37016,6.334,6.334,0,0,0,1.43829-1.81636,7.70662,7.70662,0,0,0,.71874-1.95081h6.02591a14.22493,14.22493,0,0,1-1.43647,4.03971,11.41231,11.41231,0,0,1-2.74052,3.35635,12.97521,12.97521,0,0,1-4.21237,2.29431,17.88744,17.88744,0,0,1-5.78389.853,17.10261,17.10261,0,0,1-6.88174-1.29919,13.63255,13.63255,0,0,1-4.99822-3.66447,15.796,15.796,0,0,1-3.04744-5.64683,26.2668,26.2668,0,0,1,0-14.55113,16.85081,16.85081,0,0,1,2.97747-5.718,13.38867,13.38867,0,0,1,4.82923-3.7316,16.8673,16.8673,0,0,1,13.07644-.03154,13.25214,13.25214,0,0,1,4.82942,3.66063,16.43839,16.43839,0,0,1,2.97625,5.68221,25.02212,25.02212,0,0,1,1.02868,7.43165v1.5044Zm9.245-14.85521a8.72808,8.72808,0,0,0-3.83531.82125,8.47615,8.47615,0,0,0-2.90914,2.25873,10.30649,10.30649,0,0,0-1.85012,3.38809,13.45475,13.45475,0,0,0-.65041,4.27646h18.55729a12.89677,12.89677,0,0,0-2.60223-7.80284A8.16752,8.16752,0,0,0,460.54516,420.21751Z"/><path class="cls-1" d="M485.73866,450.7922V416.69182h5.42277V422.318h.81412a10.31931,10.31931,0,0,1,2.035-2.98322,11.62283,11.62283,0,0,1,2.64312-1.99776,11.50428,11.50428,0,0,1,2.88033-1.12219,12.34108,12.34108,0,0,1,2.74561-.33609q5.83083,0,8.81637,3.15517,2.97769,3.14917,2.9802,10.27063V450.7922h-5.96324V429.77752a17.31514,17.31514,0,0,0-.30707-3.32312,7.29521,7.29521,0,0,0-1.11818-2.74861,5.54263,5.54263,0,0,0-2.23817-1.861,8.76509,8.76509,0,0,0-3.72888-.67619,7.80161,7.80161,0,0,0-3.86379.946,8.73773,8.73773,0,0,0-2.8463,2.54524,11.22283,11.22283,0,0,0-1.72892,3.72587,17.41977,17.41977,0,0,0-.57669,4.57823V450.7922Z"/><path class="cls-1" d="M573.22877,450.7922l-14.50894-21.48769H557.975l-8.27187,10.02841V450.7922h-6.09916V403.33648h6.09916v26.91426h.81512l20.94921-26.91426h6.57418v.74666L562.24631,423.9482l17.76382,26.10114v.74286Z"/><path class="cls-1" d="M616.63687,416.69182V450.7922h-5.493v-5.62615H610.399a9.45887,9.45887,0,0,1-2.06822,2.948,11.9372,11.9372,0,0,1-2.67614,1.9353,12.2094,12.2094,0,0,1-2.88335,1.083,12.08335,12.08335,0,0,1-2.74461.33629q-5.76207,0-8.74809-3.15117-2.98193-3.14946-2.983-10.27083V416.69182h5.96624v20.88176a17.771,17.771,0,0,0,.30687,3.35455,6.96884,6.96884,0,0,0,1.11818,2.74841,5.63331,5.63331,0,0,0,2.23637,1.82581,8.52749,8.52749,0,0,0,3.66342.6804,7.90247,7.90247,0,0,0,3.93105-.95024,8.7187,8.7187,0,0,0,2.84631-2.54123,11.34,11.34,0,0,0,1.73012-3.72988,17.2635,17.2635,0,0,0,.5765-4.50776V416.69182Zm-20.60992-14.372a3.693,3.693,0,0,1,2.67615,1.01669,3.51115,3.51115,0,0,1,1.05173,2.64673,3.42333,3.42333,0,0,1-1.05173,2.57266,3.67726,3.67726,0,0,1-2.67615,1.01649,3.567,3.567,0,0,1-2.64492-1.01649,3.48612,3.48612,0,0,1-1.0185-2.57266,3.48982,3.48982,0,0,1,3.66342-3.66342Zm12.67715,0a3.69306,3.69306,0,0,1,2.67615,1.01669,3.51118,3.51118,0,0,1,1.05172,2.64673,3.42336,3.42336,0,0,1-1.05172,2.57266,3.6773,3.6773,0,0,1-2.67615,1.01649,3.59035,3.59035,0,0,1-2.6097-1.01649,3.4151,3.4151,0,0,1-1.04972-2.57266,3.50307,3.50307,0,0,1,1.04972-2.64673A3.606,3.606,0,0,1,608.7041,402.31979Z"/><path class="cls-1" d="M630.539,450.7922V416.69182h5.42277V422.318h.81512a10.29982,10.29982,0,0,1,2.035-2.98322,11.6265,11.6265,0,0,1,2.64294-1.99776,11.5016,11.5016,0,0,1,2.87951-1.12219,12.34263,12.34263,0,0,1,2.74662-.33609q5.82934,0,8.81634,3.15517,2.97622,3.14917,2.97922,10.27063V450.7922h-5.96424V429.77752a17.32026,17.32026,0,0,0-.30507-3.32312,7.3608,7.3608,0,0,0-1.11818-2.74861,5.556,5.556,0,0,0-2.23817-1.861,8.767,8.767,0,0,0-3.72787-.67619,7.7974,7.7974,0,0,0-3.8648.946,8.7176,8.7176,0,0,0-2.8463,2.54524,11.23977,11.23977,0,0,0-1.72992,3.72587,17.46173,17.46173,0,0,0-.57671,4.57823V450.7922Z"/><path class="cls-1" d="M689.1139,425.70755a4.99231,4.99231,0,0,0-1.5952-3.593,6.32709,6.32709,0,0,0-2.23617-1.32136,10.24878,10.24878,0,0,0-3.49347-.50825,11.37928,11.37928,0,0,0-3.28608.40656,6.18367,6.18367,0,0,0-2.13648,1.083,4.11843,4.11843,0,0,0-1.18665,1.56377,4.64845,4.64845,0,0,0-.37152,1.82981,4.54047,4.54047,0,0,0,.54147,2.33806,4.14953,4.14953,0,0,0,1.69489,1.52474,12.00593,12.00593,0,0,0,2.95,1.01649q1.79734.40476,4.30436.88358c1.40163.26583,2.81307.58651,4.23813.95a13.03685,13.03685,0,0,1,3.82956,1.62263,8.434,8.434,0,0,1,2.74662,2.88534,9.29261,9.29261,0,0,1,1.04972,4.71114,10.5414,10.5414,0,0,1-.6784,3.65941,8.48926,8.48926,0,0,1-2.30282,3.32333,12.42079,12.42079,0,0,1-4.37485,2.43954,24.85292,24.85292,0,0,1-12.947.17215,11.99945,11.99945,0,0,1-4.20489-2.17391,9.28578,9.28578,0,0,1-2.54124-3.31932,14.11775,14.11775,0,0,1-1.15341-4.17166h5.82932a6.38754,6.38754,0,0,0,2.34006,4.4415q1.99675,1.595,5.933,1.5952,4.5421,0,6.406-1.564a5.039,5.039,0,0,0,1.86285-4.066,4.27533,4.27533,0,0,0-.70964-2.5062,5.65771,5.65771,0,0,0-1.9333-1.69689,12.63649,12.63649,0,0,0-2.88334-1.118q-1.65985-.43989-3.55592-.84855-2.30753-.40446-4.50974-.98126a14.15333,14.15333,0,0,1-3.90005-1.62643,8.29261,8.29261,0,0,1-2.74261-2.77985,8.56589,8.56589,0,0,1-1.05173-4.51176,9.81779,9.81779,0,0,1,.64517-3.5227,7.49843,7.49843,0,0,1,2.1679-3.01825,11.6513,11.6513,0,0,1,3.96451-2.13468,19.26205,19.26205,0,0,1,6.03649-.81311,17.47208,17.47208,0,0,1,6.30436.98126,11.20306,11.20306,0,0,1,3.96646,2.47478,9.36709,9.36709,0,0,1,2.09945,3.1864,10.39569,10.39569,0,0,1,.71343,3.1864Z"/><path class="cls-1" d="M703.27821,418.65855l4.60966-1.96673v-7.11946h5.96606v7.11946h5.89977v4.74637h-5.89977v20.60792a4.77386,4.77386,0,0,0,.74483,3.05348,2.85544,2.85544,0,0,0,2.30483.88358h3.11994v4.809h-4.40627a9.222,9.222,0,0,1-3.66142-.64117,6.64956,6.64956,0,0,1-2.40631-1.69689,5.99734,5.99734,0,0,1-1.28834-2.51,12.29538,12.29538,0,0,1-.37332-3.08091v-21.425h-4.60966Z"/><path class="cls-1" d="M733.25379,435.05872a12.89984,12.89984,0,0,0,2.53329,8.38735q2.535,3.12151,7.394,3.1194a9.99378,9.99378,0,0,0,3.55793-.54892,7.5194,7.5194,0,0,0,2.36325-1.37015,6.27723,6.27723,0,0,0,1.44133-1.81637,7.7061,7.7061,0,0,0,.71874-1.95081h6.02573a14.34579,14.34579,0,0,1-1.43731,4.03971,11.39977,11.39977,0,0,1-2.74052,3.35635,12.99965,12.99965,0,0,1-4.21136,2.29432,17.89828,17.89828,0,0,1-5.78693.853,17.09736,17.09736,0,0,1-6.88069-1.29919,13.63041,13.63041,0,0,1-4.99725-3.66447,15.74767,15.74767,0,0,1-3.04642-5.64682,26.24206,26.24206,0,0,1,0-14.55114,16.84756,16.84756,0,0,1,2.97545-5.718,13.39737,13.39737,0,0,1,4.82922-3.73159,16.87222,16.87222,0,0,1,13.07847-.03154,13.27569,13.27569,0,0,1,4.82942,3.66063,16.49193,16.49193,0,0,1,2.97727,5.6822,25.026,25.026,0,0,1,1.02484,7.43165v1.5044ZM742.5,420.20351a8.72652,8.72652,0,0,0-3.83633.82125,8.45138,8.45138,0,0,0-2.91014,2.25873,10.28794,10.28794,0,0,0-1.85013,3.38809,13.45494,13.45494,0,0,0-.6496,4.27647h18.55345a12.86992,12.86992,0,0,0-2.60019-7.80285A8.16687,8.16687,0,0,0,742.5,420.20351Z"/><path class="cls-1" d="M108.65721,485.94029a10.27041,10.27041,0,0,0-.40656-2.74461,6.75725,6.75725,0,0,0-1.49151-2.67815,7.92558,7.92558,0,0,0-3.01745-1.998,13.24451,13.24451,0,0,0-4.91432-.78189,14.35264,14.35264,0,0,0-4.88229.6804,7.01726,7.01726,0,0,0-2.81307,1.76315,5.65148,5.65148,0,0,0-1.32137,2.43975,10.84607,10.84607,0,0,0-.34009,2.64292,6.64651,6.64651,0,0,0,.9178,3.65942,6.84893,6.84893,0,0,0,2.506,2.30682,15.4953,15.4953,0,0,0,3.7641,1.423q2.167.54528,4.61046,1.15342,2.84439.6801,5.66017,1.49351a19.69242,19.69242,0,0,1,5.1189,2.2714,11.38917,11.38917,0,0,1,3.72788,3.83157,11.69857,11.69857,0,0,1,1.42405,6.09916,16.82989,16.82989,0,0,1-.74485,4.84786,10.805,10.805,0,0,1-2.71238,4.47273,14.6758,14.6758,0,0,1-5.38935,3.28809,25.25846,25.25846,0,0,1-8.77931,1.28633,23.32386,23.32386,0,0,1-8.88281-1.41925,14.22734,14.22734,0,0,1-5.28785-3.593,11.79467,11.79467,0,0,1-2.57646-4.64468,20.01212,20.01212,0,0,1-.74486-4.64488h6.23708a11.36857,11.36857,0,0,0,.644,3.38978,7.75059,7.75059,0,0,0,1.865,2.91656,8.90374,8.90374,0,0,0,3.42381,2.02919,16.45648,16.45648,0,0,0,5.38954.75066,19.32744,19.32744,0,0,0,5.42276-.64517,9.23926,9.23926,0,0,0,3.49227-1.79838,6.29726,6.29726,0,0,0,1.863-2.70938,10.20624,10.20624,0,0,0,.54348-3.38978,6.39839,6.39839,0,0,0-1.05073-3.83137,7.92691,7.92691,0,0,0-2.77984-2.37329,16.96971,16.96971,0,0,0-4.03375-1.45828q-2.30782-.53958-4.81283-1.15341c-1.89826-.40256-3.7533-.89139-5.55968-1.45428a16.99908,16.99908,0,0,1-4.81383-2.34206,11.50871,11.50871,0,0,1-3.39058-3.76111,11.80385,11.80385,0,0,1-1.28834-5.86455,14.70139,14.70139,0,0,1,.81432-4.84786,10.47692,10.47692,0,0,1,2.679-4.13644,13.27389,13.27389,0,0,1,4.81283-2.8463,24.84333,24.84333,0,0,1,14.30458,0,14.33687,14.33687,0,0,1,5.01621,2.88133,11.95608,11.95608,0,0,1,3.01625,4.26956,13.41194,13.41194,0,0,1,1.01749,5.21938Z"/><path class="cls-1" d="M123.36834,488.587l4.60865-1.96653V479.501h5.96625v7.11946h5.89958v4.74637h-5.89958v20.60792a4.76082,4.76082,0,0,0,.74465,3.04968,2.84585,2.84585,0,0,0,2.30583.88358h3.11994v4.81283h-4.40827a9.21725,9.21725,0,0,1-3.66042-.64517,6.61117,6.61117,0,0,1-2.40631-1.69289,5.99709,5.99709,0,0,1-1.28834-2.51,12.35023,12.35023,0,0,1-.37333-3.08471V491.36686h-4.60865Z"/><path class="cls-1" d="M177.91048,486.62049v34.10038h-5.493v-5.62615h-.74385a9.46133,9.46133,0,0,1-2.06923,2.948,11.93658,11.93658,0,0,1-2.67615,1.9353,12.2324,12.2324,0,0,1-2.88253,1.08295,12.09711,12.09711,0,0,1-2.74642.3363q-5.76206,0-8.74609-3.15117-2.98341-3.14948-2.983-10.27083V486.62049h5.96624v20.88176a17.76865,17.76865,0,0,0,.30687,3.35434,6.97907,6.97907,0,0,0,1.11718,2.74862,5.63877,5.63877,0,0,0,2.23636,1.82581,8.47434,8.47434,0,0,0,3.66342.68019,7.90513,7.90513,0,0,0,3.93107-.95,8.722,8.722,0,0,0,2.84729-2.54124,11.38958,11.38958,0,0,0,1.72812-3.72587,17.26529,17.26529,0,0,0,.57751-4.508V486.62049Z"/><path class="cls-1" d="M187.09917,488.587l4.60864-1.96653V479.501h5.96625v7.11946h5.89959v4.74637h-5.89959v20.60792a4.76082,4.76082,0,0,0,.74465,3.04968,2.84583,2.84583,0,0,0,2.30583.88358h3.11894v4.81283H199.4362a9.21724,9.21724,0,0,1-3.66041-.64517,6.6028,6.6028,0,0,1-2.40632-1.69289,5.99719,5.99719,0,0,1-1.28833-2.51,12.30391,12.30391,0,0,1-.37333-3.08471V491.36686h-4.60864Z"/><path class="cls-1" d="M210.11659,488.587l4.60845-1.96653V479.501h5.96625v7.11946h5.89978v4.74637h-5.89978v20.60792a4.76575,4.76575,0,0,0,.74485,3.04968,2.84512,2.84512,0,0,0,2.30563.88358h3.11994v4.81283h-4.40807a9.22434,9.22434,0,0,1-3.66061-.64517,6.602,6.602,0,0,1-2.40532-1.69289,5.98788,5.98788,0,0,1-1.28834-2.51,12.30359,12.30359,0,0,1-.37433-3.08471V491.36686h-4.60845Z"/><path class="cls-1" d="M240.3892,523.09395a7.1701,7.1701,0,0,0,2.03219,5.458q2.0364,1.9352,6.84682,1.9313a12.26969,12.26969,0,0,0,4.4413-.6802,6.21912,6.21912,0,0,0,2.74663-1.998,7.56484,7.56484,0,0,0,1.38781-3.25286,23.08015,23.08015,0,0,0,.37352-4.37484v-4.543h-.81331a7.46531,7.46531,0,0,1-1.62543,2.072,9.56,9.56,0,0,1-2.30563,1.52474,13.7959,13.7959,0,0,1-2.67915.94623,11.23818,11.23818,0,0,1-2.67615.3401,13.78433,13.78433,0,0,1-5.96624-1.21988,11.68083,11.68083,0,0,1-4.30559-3.456,15.4867,15.4867,0,0,1-2.6097-5.39154,28.52738,28.52738,0,0,1,.03423-14.19988,16.24521,16.24521,0,0,1,2.67616-5.55969,12.27891,12.27891,0,0,1,4.34081-3.593,12.83643,12.83643,0,0,1,5.83033-1.29013,10.13848,10.13848,0,0,1,5.966,1.62643,14.9138,14.9138,0,0,1,3.8638,3.99951h.74485v-4.81283h5.42457v33.76028a19.94294,19.94294,0,0,1-1.08395,7.08823,10.844,10.844,0,0,1-3.05249,4.47253,11.40975,11.40975,0,0,1-4.67891,2.33805,24.79509,24.79509,0,0,1-6.0335.6804,20.97219,20.97219,0,0,1-6.88005-.98526,13.034,13.034,0,0,1-4.60965-2.64293,9.65038,9.65038,0,0,1-2.57747-3.79633,12.89194,12.89194,0,0,1-.77888-4.44151Zm17.82827-19.7946q0-6.43946-2.37128-9.59443a7.63911,7.63911,0,0,0-6.44126-3.15117,7.90639,7.90639,0,0,0-6.576,3.25286q-2.5072,3.25486-2.51,9.49274,0,6.23979,2.51,9.35182a8.0295,8.0295,0,0,0,6.576,3.11994,7.66222,7.66222,0,0,0,6.44126-3.11994Q258.21827,509.54314,258.21747,503.29935Z"/><path class="cls-1" d="M302.68338,514.11132a16.31365,16.31365,0,0,0,.81943,5.82049v.75028h-5.88762a11.58183,11.58183,0,0,1-.47976-2.156,17.80145,17.80145,0,0,1-.20441-2.56685v-.48159h-.7523q-3.76989,5.89338-11.50573,5.88762a14.38816,14.38816,0,0,1-5.0318-.78182,9.23517,9.23517,0,0,1-3.42449-2.16007,8.34817,8.34817,0,0,1-1.95081-3.18268,11.92742,11.92742,0,0,1-.61684-3.86988,10.06755,10.06755,0,0,1,1.16474-5.13734,8.59156,8.59156,0,0,1,3.08119-3.11172,15.64127,15.64127,0,0,1,4.34763-1.71365q2.43129-.58046,4.998-.95954,2.56928-.37332,5.03483-.71874a17.08147,17.08147,0,0,0,4.382-1.16495v-2.12044a10.75776,10.75776,0,0,0-.27335-2.36144,5.41512,5.41512,0,0,0-1.02767-2.15986,5.14547,5.14547,0,0,0-2.22719-1.54,10.48753,10.48753,0,0,0-3.79871-.58065,8.1875,8.1875,0,0,0-3.7316.71874,6.31552,6.31552,0,0,0-2.19363,1.7454,5.38689,5.38689,0,0,0-1.02463,2.19161,10.461,10.461,0,0,0-.239,2.12044h-6.09687a14.79772,14.79772,0,0,1,.65061-3.45906,10.21061,10.21061,0,0,1,2.02178-3.66063,11.11867,11.11867,0,0,1,4.00413-2.87477,16.27419,16.27419,0,0,1,6.67631-1.16474,17.47769,17.47769,0,0,1,7.08714,1.19648,10.77571,10.77571,0,0,1,4.008,2.91015,8.75391,8.75391,0,0,1,1.779,3.62889,16.59764,16.59764,0,0,1,.41163,3.42368Zm-16.5721,2.66935a10.67319,10.67319,0,0,0,4.34764-.85683,9.95436,9.95436,0,0,0,5.44443-5.68241,11.42522,11.42522,0,0,0,.75413-4.14222v-3.35655a9.56331,9.56331,0,0,1-1.9862.65162q-1.30161.30812-2.7395.54891-1.43628.23685-2.70575.44216-1.26462.20743-1.95081.34371a28.00645,28.00645,0,0,0-3.01285.7897,8.43435,8.43435,0,0,0-2.397,1.19649,5.40734,5.40734,0,0,0-1.60711,1.8479,5.6146,5.6146,0,0,0-.58348,2.66956,5.19022,5.19022,0,0,0,1.64471,4.07509A6.95222,6.95222,0,0,0,286.11128,516.78067Z"/><path class="cls-1" d="M315.16793,520.72087V486.62049h5.42357v5.69641h.81432a10.94615,10.94615,0,0,1,4.00051-4.543q2.5072-1.55987,7.32184-1.56v6.03271q-5.89659,0-8.74689,2.54523-2.8471,2.53933-2.8473,8.57394v17.35506Z"/><path class="cls-1" d="M339.151,488.587l4.60945-1.96653V479.501h5.96624v7.11946h5.89879v4.74637h-5.89879v20.60792a4.76,4.76,0,0,0,.74387,3.04968,2.84508,2.84508,0,0,0,2.30561.88358h3.12v4.81283h-4.40808a9.21932,9.21932,0,0,1-3.66042-.64517,6.61386,6.61386,0,0,1-2.40651-1.69289,5.98352,5.98352,0,0,1-1.28713-2.51,12.30385,12.30385,0,0,1-.37353-3.08471V491.36686H339.151Z"/><path class="cls-1" d="M232.95362,236.52921a103.82158,103.82158,0,0,0,1.2496,15.988,49.44612,49.44612,0,0,0,3.78046,13.18228v4.06687h-45.1675a35.06852,35.06852,0,0,1-2.35046-9.71965,96.08952,96.08952,0,0,1-.76223-11.59868v-3.142h-4.08743a58.28506,58.28506,0,0,1-8.012,11.294,44.204,44.204,0,0,1-10.79118,8.62573,55.964,55.964,0,0,1-14.59426,5.63915,80.48076,80.48076,0,0,1-18.96556,2.0414q-14.12282,0-24.14021-3.76243A45.454,45.454,0,0,1,92.6331,258.95047a37.32738,37.32738,0,0,1-9.23921-15.20775,62.02312,62.02312,0,0,1-2.8332-19.12794q0-15.05,5.66617-24.46058a41.3198,41.3198,0,0,1,14.725-14.73631A70.06982,70.06982,0,0,1,121.492,177.584a212.76245,212.76245,0,0,1,23.19735-3.76452q11.754-1.26219,22.737-2.66852a77.19034,77.19034,0,0,0,18.80318-4.55192V154.23348a33.31168,33.31168,0,0,0-1.09623-8.7791,17.08311,17.08311,0,0,0-3.74881-7.05576,19.6164,19.6164,0,0,0-7.37612-4.861,32.44432,32.44432,0,0,0-11.91443-1.8744,28.11832,28.11832,0,0,0-11.9188,2.19708,19.31326,19.31326,0,0,0-7.34911,5.63684,21.2737,21.2737,0,0,0-3.77583,7.5295,30.89752,30.89752,0,0,0-1.10085,8.15176H91.22551a71.22592,71.22592,0,0,1,4.54292-18.65189,43.746,43.746,0,0,1,11.76545-16.62666q8.15416-7.36908,21.483-12.0701,13.32422-4.70646,33.71319-4.70969,22.89268,0,36.84852,5.48786,13.9333,5.49156,21.30262,13.4844a39.74447,39.74447,0,0,1,9.731,17.25584,67.9511,67.9511,0,0,1,2.34145,16.77333Zm-83.39219,5.01435a37.42436,37.42436,0,0,0,15.67247-3.13764,33.94148,33.94148,0,0,0,11.60768-8.45872,35.48034,35.48034,0,0,0,7.04213-12.23711,42.92565,42.92565,0,0,0,2.34583-14.11151V193.57219a29.28139,29.28139,0,0,1-6.88875,2.19246c-2.9323.62712-5.9459,1.25192-9.08584,1.88573q-4.703.94066-9.10824,1.561c-2.9099.41969-5.33242.83915-7.19112,1.25861q-12.55954,2.514-19.60167,7.68518-7.08532,5.17-7.06939,15.20543c0,5.64377,1.89035,10.08275,5.63916,13.322Q138.5878,241.54807,149.56143,241.54356Z"/><path class="cls-1" d="M265.43282,269.67834V52.35616h46.25934v79.17172h4.01952q8.0731-12.73556,19.73265-18.31835a58.34593,58.34593,0,0,1,25.59284-5.59619q15.23916,0,26.85585,6.06323a55.86023,55.86023,0,0,1,19.56126,16.76409,73.63273,73.63273,0,0,1,11.79708,25.9243,133.4,133.4,0,0,1,3.88879,33.21012,134.87366,134.87366,0,0,1-3.88879,33.53972,76.9135,76.9135,0,0,1-11.79708,26.22434,56.007,56.007,0,0,1-19.71,17.23321c-7.85426,4.14148-17.08007,6.2143-27.61855,6.2143q-16.782,0-28.26805-6.83009-11.48343-6.8279-19.55664-20.17913h-4.04216v23.90091Zm46.25934-80.10326q0,22.68306,8.364,36.48541c5.61212,9.2078,13.76849,13.81609,24.537,13.81609q16.13927,0,24.22589-13.81609,8.0731-13.81482,8.06167-36.48541,0-22.64567-8.06167-35.85138-8.06617-13.18908-24.22589-13.20029c-10.76855,0-18.92492,4.40757-24.537,13.20029Q311.68548,166.909,311.69216,189.57508Z"/><path class="cls-1" d="M557.37041,269.67834l-37.57056-59.91951h-4.04216l-19.85876,21.73108v38.18843H449.6352V52.35616h46.26373V174.363h4.01513l51.54187-62.70746h48.73938v4.03084l-52.1454,61.16473,57.12142,88.80107v4.02621Z"/><path class="cls-1" d="M789.2221,208.44626H605.3078V166.21409H789.2221Z"/></g></svg>