<svg xmlns="http://www.w3.org/2000/svg" viewBox="37.1 374.4 520.9 93.1" enable-background="new 37.1 374.4 520.9 93.1"><path d="M38 374.4h4.7c.5 0 .8.3.8.8v13.4L56.2 375c.4-.4.8-.6 1.3-.6h7c.5 0 .6.2.3.6l-12.5 14L65 411c.3.5.2.7-.4.7h-5.8c-.5 0-.9-.2-1.2-.7l-10.1-17.2-4 4v13.1c0 .5-.3.8-.8.8h-4.8c-.5 0-.8-.3-.8-.8v-35.7c.1-.5.4-.8.9-.8zM99 375.2c0-.5-.3-.8-.8-.8h-4.9c-.5 0-.8.3-.8.7v24.1c0 .3-.1 1.5-.2 1.7-.2.8-.5 1.7-1 2.4-.4.5-.7.8-1.2 1.1-.8.5-1.7.7-2.6.8h-3.1c-.9-.1-1.8-.3-2.6-.8-.4-.3-.8-.7-1.2-1.1-.5-.7-.8-1.6-1-2.4-.1-.3-.2-1.5-.2-1.7v-24.1c0-.5-.3-.7-.8-.7h-4.9c-.5 0-.8.3-.8.8v24.2c0 .2 0 1 .1 1.2.1 2.9 1.2 5.7 3.3 7.7 2.2 2.2 4.9 3.2 8 3.2h3.4c3.1 0 5.8-1 8-3.2 2.1-2 3.2-4.8 3.3-7.7 0-.2.1-1 .1-1.2l-.1-24.2zM490 375.2c0-.5-.3-.8-.8-.8h-4.9c-.5 0-.8.3-.8.7v24.1c0 .3-.1 1.5-.2 1.7-.2.8-.5 1.7-1 2.4-.4.5-.7.8-1.2 1.1-.8.5-1.7.7-2.6.8h-3.1c-.9-.1-1.8-.3-2.6-.8-.4-.3-.8-.7-1.2-1.1-.5-.7-.8-1.6-1-2.4-.1-.3-.2-1.5-.2-1.7v-24.1c0-.5-.3-.7-.8-.7h-4.9c-.5 0-.8.3-.8.8v24.2c0 .2 0 1 .1 1.2.1 2.9 1.2 5.7 3.3 7.7 2.2 2.2 4.9 3.2 8 3.2h3.4c3.1 0 5.8-1 8-3.2 2.1-2 3.2-4.8 3.3-7.7 0-.2.1-1 .1-1.2l-.1-24.2zM136.2 410.9c0 .5-.3.8-.8.8h-5c-.5 0-.9-.2-1.1-.7l-13.1-24.1v24c0 .5-.3.8-.8.8h-5c-.4 0-.7-.3-.7-.8v-35.7c0-.5.3-.8.8-.8h4.9c.5 0 .9.2 1.1.7l13.1 24v-23.9c0-.5.3-.8.8-.8h5c.5 0 .8.3.8.8v35.7zM359.4 377.2c1.8-1.8 4-2.8 6.5-2.8h7.3c3.5 0 5.8 1.5 7.7 3.8.7.9 1.2 2.1 1.7 3.3.2.6-.4.8-.6.8-.2.1-4.4.8-4.5.8-.6.2-1 .2-1.3-.5-.8-2-2.1-2-3.3-2h-6c-1.9.1-3.5 1.3-3.6 3.2-.1.7-.1 1.3 0 1.9.1 1.2.6 2.6 2.5 3 .7.2 8.6 1.6 9.8 1.9 2.4.6 4.3 1.9 5.4 3.4 1.2 1.5 2.2 3.6 2.2 6v2.1c0 2.5-1 4.8-2.9 6.6-1.9 1.9-4.2 2.8-6.7 2.8h-7.5c-4.1-.1-7.4-2.4-8.8-7.1-.2-.5 0-.9.6-.9 0 0 3.8-.6 4.5-.7.5-.1.8.1 1 .5.4 1.1 1.6 1.9 2.9 1.9.1.1 6.9 0 7 0 2.3-.2 3.5-1.5 3.5-3.1V400c0-1.5-.9-2.8-2.9-3.1-1.1-.2-9.6-1.8-9.7-1.8-2.2-.4-3.9-1.5-5.3-3.2-1.6-1.9-2.2-3.9-2.2-6.1v-2c0-2.2.8-4.7 2.7-6.6zM149 377.2c1.8-1.8 4-2.8 6.5-2.8h7.3c3.5 0 5.8 1.5 7.7 3.8.7.9 1.2 2.1 1.7 3.3.2.6-.4.8-.6.8-.2.1-4.4.8-4.5.8-.6.2-1 .2-1.3-.5-.8-2-2.1-2-3.3-2h-6c-1.9.1-3.5 1.3-3.6 3.2-.1.7-.1 1.3 0 1.9.1 1.2.6 2.6 2.5 3 .7.2 8.6 1.6 9.8 1.9 2.4.6 4.3 1.9 5.4 3.4 1.2 1.5 2.2 3.6 2.2 6v2.1c0 2.5-1 4.8-2.9 6.6-1.9 1.9-4.2 2.8-6.7 2.8h-7.5c-4.1-.1-7.4-2.4-8.8-7.1-.2-.5 0-.9.6-.9 0 0 3.8-.6 4.5-.7.5-.1.8.1 1 .5.4 1.1 1.6 1.9 2.9 1.9.1.1 6.9 0 7 0 2.3-.2 3.5-1.5 3.5-3.1V400c0-1.5-.9-2.8-2.9-3.1-1.1-.2-9.6-1.8-9.7-1.8-2.2-.4-3.9-1.5-5.3-3.2-1.6-1.9-2.2-3.9-2.2-6.1v-2c0-2.2.8-4.7 2.7-6.6zM205.6 380.2c0 .5-.3.8-.8.8h-9.2v29.9c0 .5-.3.8-.8.8h-5c-.5 0-.8-.3-.8-.8V381h-9.2c-.5 0-.8-.3-.8-.8v-5c0-.5.3-.8.8-.8h25c.5 0 .8.3.8.8v5zM240.8 410.9c0 .5-.3.8-.8.8h-4.9c-.5 0-.8-.3-.8-.8v-14.6h-13.6v14.6c0 .5-.3.8-.8.8H215c-.5 0-.8-.3-.8-.8v-35.7c0-.5.3-.8.8-.8h4.9c.5 0 .8.3.8.8v14.6h13.6v-14.6c0-.5.3-.8.8-.8h4.9c.5 0 .8.3.8.8v35.7zM347 410.9c0 .5-.3.8-.8.8h-4.9c-.5 0-.8-.3-.8-.8v-14.6h-13.6v14.6c0 .5-.3.8-.8.8h-4.9c-.5 0-.8-.3-.8-.8v-35.7c0-.5.3-.8.8-.8h4.9c.5 0 .8.3.8.8v14.6h13.6v-14.6c0-.5.3-.8.8-.8h4.9c.5 0 .8.3.8.8v35.7zM311.5 402.7c-.6 2.6-1.9 4.8-4.1 6.6-2 1.6-4.3 2.4-6.9 2.4h-3.8c-3.4.1-5.9-1.2-7.9-3.3-2.1-2.1-3.4-4.9-3.4-8.4v-14c0-3.6 1.4-6.2 3.5-8.4 2.2-2.3 4.7-3.3 7.8-3.2h4c2.6 0 4.8.8 6.8 2.4s3.5 3.8 4 6.6c.1.5-.2.9-.7.9l-4.7.8c-.5.1-.8-.1-1-.6-.6-2.2-2.4-3.6-4.9-3.6H297c-1.2 0-2.8.5-3.7 1.5-1 1.1-1.5 2.2-1.5 3.7V400c0 1.3.6 2.6 1.5 3.6.9.9 2.3 1.5 3.6 1.5h3.2c2.5 0 4.4-1.3 5-3.6.2-.5.4-.7 1-.6 0 0 4.4.8 4.7.8.6.1.8.4.7 1zM453.3 410.9c0 .5-.3.8-.8.8h-4.9c-.5 0-.8-.3-.8-.8v-14.6h-13.6v14.6c0 .5-.3.8-.8.8h-4.9c-.5 0-.8-.3-.8-.8v-35.7c0-.5.3-.8.8-.8h4.9c.5 0 .8.3.8.8v14.6h13.6v-14.6c0-.5.3-.8.8-.8h4.9c.5 0 .8.3.8.8v35.7zM417.7 402.7c-.6 2.6-1.9 4.8-4.1 6.6-2 1.6-4.3 2.4-6.9 2.4h-3.8c-3.4.1-5.9-1.2-7.9-3.3-2.1-2.1-3.5-4.9-3.5-8.4v-14c0-3.6 1.4-6.2 3.5-8.4 2.2-2.3 4.7-3.3 7.8-3.2h3.9c2.6 0 4.8.8 6.8 2.4 2 1.7 3.5 3.8 4 6.6.1.5-.2.9-.7.9l-4.7.8c-.5.1-.8-.1-1-.6-.6-2.2-2.4-3.6-4.9-3.6H403c-1.2 0-2.8.5-3.7 1.5-1 1.1-1.5 2.2-1.5 3.7V400c0 1.3.6 2.6 1.6 3.6.8.9 2.3 1.5 3.6 1.5h3.2c2.5 0 4.4-1.3 5-3.6.2-.5.4-.7 1-.6 0 0 4.4.8 4.7.8.7.1.9.4.8 1zM557.9 410.9c0 .5-.3.8-.8.8H534c-.5 0-.8-.3-.8-.8v-35.7c0-.5.3-.8.8-.8h23.1c.5 0 .8.3.8.8v5c0 .5-.3.8-.8.8h-17.5v8.9h15.6c.5 0 .8.3.8.8v4.9c0 .5-.3.8-.8.8h-15.6v8.9h17.5c.5 0 .8.3.8.8v4.8zM273.7 377.7c-2.2-2.2-4.8-3.3-7.9-3.3h-3.7c-3.1 0-5.7 1.1-7.9 3.3-2.2 2.2-3.3 4.8-3.3 7.9v14.9c0 3.1 1.1 5.7 3.3 7.9 2.2 2.2 4.8 3.3 7.9 3.3h3.7c3.1 0 5.7-1.1 7.9-3.3 2.2-2.2 3.3-4.8 3.3-7.9v-14.9c0-3.1-1.1-5.7-3.3-7.9zm-2.9 22.3c0 1.4-.5 2.7-1.5 3.7s-2.2 1.5-3.6 1.5h-3.4c-1.4 0-2.6-.5-3.6-1.5s-1.5-2.3-1.5-3.7v-14c0-1.4.5-2.6 1.5-3.7 1-1 2.2-1.6 3.6-1.6h3.4c1.4 0 2.6.5 3.6 1.6 1 1 1.5 2.2 1.5 3.7v14zM525.3 410.9c0 .5-.3.8-.8.8h-23.1c-.5 0-.8-.3-.8-.8v-35.7c0-.5.3-.8.8-.8h4.9c.5 0 .8.3.8.8v29.9h17.4c.5 0 .8.3.8.8v5zM38 430.2h4.7c.5 0 .8.3.8.8v13.4l12.7-13.7c.4-.4.8-.6 1.3-.6h7c.5 0 .6.2.3.6l-12.5 14 12.7 22c.3.5.2.7-.4.7h-5.8c-.5 0-.9-.2-1.2-.7l-10.1-17.2-4 4v13.1c0 .5-.3.8-.8.8h-4.8c-.5 0-.8-.3-.8-.8V431c.1-.5.4-.8.9-.8zM145 433c1.8-1.8 4-2.8 6.5-2.8h7.3c3.5 0 5.8 1.5 7.7 3.8.7.9 1.2 2.1 1.7 3.3.2.6-.4.8-.6.8-.2.1-4.4.8-4.5.8-.6.2-1 .2-1.3-.5-.8-2-2.1-2-3.3-2h-6c-1.9.1-3.5 1.3-3.6 3.2-.1.7-.1 1.3 0 1.9.1 1.2.6 2.6 2.5 3 .7.2 8.6 1.6 9.8 1.9 2.4.6 4.3 1.9 5.4 3.4 1.2 1.5 2.2 3.6 2.2 6v2.1c0 2.5-1 4.8-2.9 6.6-1.9 1.9-4.2 2.8-6.7 2.8h-7.6c-4.1-.1-7.4-2.4-8.8-7.1-.2-.5 0-.9.6-.9 0 0 3.8-.6 4.5-.7.5-.1.8.1 1 .5.4 1.1 1.6 1.9 2.9 1.9.1.1 6.9 0 7 0 2.3-.2 3.5-1.5 3.5-3.1v-2.1c0-1.5-.9-2.8-2.9-3.1-1.1-.2-9.6-1.8-9.7-1.8-2.2-.4-3.9-1.5-5.3-3.2-1.6-1.9-2.2-3.9-2.2-6.1v-2c.1-2.1.9-4.7 2.8-6.6zM110.2 433c1.8-1.8 4-2.8 6.5-2.8h7.3c3.5 0 5.8 1.5 7.7 3.8.7.9 1.2 2.1 1.7 3.3.2.6-.4.8-.6.8-.2.1-4.4.8-4.5.8-.6.2-1 .2-1.3-.5-.8-2-2.1-2-3.3-2h-6c-1.9.1-3.5 1.3-3.6 3.2-.1.7-.1 1.3 0 1.9.1 1.2.6 2.6 2.5 3 .7.2 8.6 1.6 9.8 1.9 2.4.6 4.3 1.9 5.4 3.4 1.2 1.5 2.2 3.6 2.2 6v2.1c0 2.5-1 4.8-2.9 6.6-1.9 1.9-4.2 2.8-6.7 2.8h-7.5c-4.1-.1-7.4-2.4-8.8-7.1-.2-.5 0-.9.6-.9 0 0 3.8-.6 4.5-.7.5-.1.8.1 1 .5.4 1.1 1.6 1.9 2.9 1.9.1.1 6.9 0 7 0 2.3-.2 3.5-1.5 3.5-3.1v-2.1c0-1.5-.9-2.8-2.9-3.1-1.1-.2-9.6-1.8-9.7-1.8-2.2-.4-3.9-1.5-5.3-3.2-1.6-1.9-2.2-3.9-2.2-6.1v-2c0-2.1.9-4.7 2.7-6.6zM203.3 466.7c0 .5-.3.8-.8.8h-23.1c-.5 0-.8-.3-.8-.8V431c0-.5.3-.8.8-.8h23.1c.5 0 .8.3.8.8v5c0 .5-.3.8-.8.8H185v8.9h15.6c.5 0 .8.3.8.8v4.9c0 .5-.3.8-.8.8H185v8.9h17.5c.5 0 .8.3.8.8v4.8zM238.8 466.7c0 .5-.3.8-.8.8h-23.1c-.5 0-.8-.3-.8-.8V431c0-.5.3-.8.8-.8h4.9c.5 0 .8.3.8.8v30H238c.5 0 .8.3.8.8v4.9zM90.2 453.2L86 439.7l-4.2 13.5h8.4zm10.8 13.3c.2.6-.1.9-.7.9h-5.1c-.5 0-.8-.2-.9-.7l-2.3-7.3H79.9l-2.3 7.4c-.1.4-.4.6-.7.6h-5.2c-.6 0-.8-.3-.6-.9L82.5 431c.2-.5.5-.7.9-.7h5.1c.5 0 .8.2.9.7l11.6 35.5z"/></svg>