<?xml version="1.0" encoding="UTF-8" standalone="no"?>
<svg xmlns:svg="http://www.w3.org/2000/svg" xmlns="http://www.w3.org/2000/svg" viewBox="0 0 62.94667 9.1" xml:space="preserve" version="1.1">
	<g transform="matrix(1.3333333,0,0,-1.3333333,0,9.2533333)" id="g10">
		<g transform="scale(0.1)" id="g12">
			<path style="fill:#f15029;fill-opacity:1;fill-rule:nonzero;stroke:none" d="M 21.543,3.15625 C 21.4414,2.63672 21.1289,2.42969 20.4961,2.42969 h -6.0664 c -0.6211,0 -0.9453,0.20703 -1.0469,0.72656 L 0.101563,48.1328 C 0.101563,48.3281 0,48.4453 0,48.543 c 0,0.625 0.421875,0.9492 1.15234,0.9492 h 7.63282 c 0.30859,0 0.625,-0.2149 1.04687,-0.7422 l 7.43747,-30.7344 0.4063,-2.2539 0.4336,2.2539 7.9336,30.7344 c 0.414,0.5273 0.7265,0.7422 1.0429,0.7422 h 7 c 0.6329,0 0.9454,-0.2149 1.0508,-0.7422 l 7.9336,-30.7344 0.4297,-2.2539 0.4023,2.2539 7.336,30.7344 c 0.1094,0.418 0.5234,0.7422 1.1562,0.7422 h 7.6289 c 0.7383,0 1.1524,-0.3242 1.1524,-0.9492 0,-0.0977 -0.1016,-0.2149 -0.1016,-0.4102 L 47.582,3.15625 C 47.3711,2.63672 47.0547,2.42969 46.5313,2.42969 h -5.8516 c -0.3125,0 -0.7344,0.20703 -1.0469,0.72656 L 30.6406,35.6445 21.543,3.15625" />
			<path style="fill:#f15029;fill-opacity:1;fill-rule:nonzero;stroke:none" d="m 101.98,33.4844 c 0,4.4922 -4.4956,8.6914 -9.4097,8.6914 -5.0234,0 -9.414,-4.2969 -9.414,-8.9063 0,-1.1406 0.1054,-1.5625 1.0468,-1.5625 h 16.7349 c 0.941,0 1.042,0.5196 1.042,1.7774 z m 8.372,-9.1016 H 84.2031 c -0.7304,0 -1.0468,-0.3125 -1.0468,-1.0351 v -4.1875 c 0,-5.1172 4.0781,-9.40629 9.414,-9.40629 2.5078,0 4.9649,0.56639 6.332,1.69919 2.7427,2.2852 3.2387,4.3946 3.8677,4.3946 0.21,0 0.418,-0.0977 0.628,-0.1914 l 6.012,-2.7774 c 0.414,-0.1953 0.625,-0.418 0.625,-0.7187 0,-0.7461 -1.258,-3.46098 -4.39,-6.37895 -3.141,-2.92969 -7.5317,-4.39453 -13.0747,-4.39453 -11.3984,0 -19.4062,7.3125 -19.4062,18.93358 v 10.6953 c 0,11.4336 8.9453,19.5196 19.4062,19.5196 10.4607,0 18.8207,-8.2579 18.8207,-17.7813 v -7.3242 c 0,-0.7227 -0.313,-1.0469 -1.039,-1.0469" />
			<path style="fill:#f15029;fill-opacity:1;fill-rule:nonzero;stroke:none" d="m 136.738,2.42969 h -7.32 c -0.723,0 -1.043,0.3125 -1.043,1.04687 V 48.4453 c 0,0.7227 0.32,1.0469 1.043,1.0469 h 7.32 c 0.735,0 1.051,-0.3242 1.051,-1.0469 V 3.47656 c 0,-0.73437 -0.316,-1.04687 -1.051,-1.04687 z m -3.656,55.42191 c -3.242,0 -5.746,2.4101 -5.746,5.75 0,3.2422 2.504,5.7617 5.746,5.7617 3.246,0 5.75,-2.5195 5.75,-5.7617 0,-3.2422 -2.504,-5.75 -5.75,-5.75" />
			<path style="fill:#f15029;fill-opacity:1;fill-rule:nonzero;stroke:none" d="m 182.07,1.49219 c -1.363,0 -1.89,0.10156 -1.89,1.03906 v 6.27734 c 0,0.73047 0.316,0.82813 0.84,1.04297 5.125,2.20704 8.574,3.44924 8.574,9.30864 v 3.1445 c 0,5.8516 -4.028,8.8476 -9.156,11.043 -0.52,0.207 -0.836,0.3125 -0.836,1.0586 v 6.4609 c 0,0.7422 0.316,0.8516 0.836,1.0547 5.128,2.1992 8.578,3.4492 8.578,9.3008 v 0.3593 c 0,5.125 -4.078,9.4141 -9.414,9.4141 -5.543,0 -9.414,-4.0898 -9.414,-9.4141 V 3.47656 c 0,-0.73437 -0.317,-1.04687 -1.047,-1.04687 h -7.321 c -0.726,0 -1.043,0.3125 -1.043,1.04687 V 38.8555 c 0,0.7226 -0.312,2.2968 -1.047,2.2968 h -2.613 c -0.73,0 -1.047,0.3125 -1.047,1.043 v 6.2735 c 0,0.7382 0.317,1.0429 1.047,1.0429 h 2.613 c 0.735,0 1.047,0.8086 1.047,1.543 v -0.5195 c 0,10.664 8.161,18.8281 19.453,18.8281 10.766,0 18.192,-7.4297 18.192,-18.8281 v -0.3516 c 0,-2.5078 -1.039,-5.4375 -3.242,-8.4648 -1.774,-2.5118 -3.867,-3.4493 -3.867,-4.1875 0,-0.625 2.675,-1.7813 4.453,-4.4961 2.199,-3.2422 3.242,-7.9102 3.242,-10.4297 V 20 c 0,-11.30078 -7.949,-18.50781 -16.938,-18.50781" />
			<path style="fill:#f15029;fill-opacity:1;fill-rule:nonzero;stroke:none" d="m 307.797,2.42969 h -7.328 c -0.723,0 -1.039,0.3125 -1.039,1.04687 V 31.707 c 0,5.1289 -4.078,9.4141 -9.414,9.4141 -5.231,0 -9.414,-4.2852 -9.414,-9.4141 V 3.47656 c 0,-0.73437 -0.313,-1.04687 -1.039,-1.04687 h -7.329 c -0.726,0 -1.046,0.3125 -1.046,1.04687 V 48.4453 c 0,0.7227 0.32,1.0469 1.046,1.0469 h 6.274 c 0.738,0 1.055,-0.3242 1.055,-1.0469 v -1.2578 c 0,-0.7344 0.304,-1.3281 0.726,-1.3281 1.359,0 3.535,3.6328 10.457,3.6328 10.563,0 18.094,-7.2149 18.094,-17.7852 V 3.47656 c 0,-0.73437 -0.309,-1.04687 -1.043,-1.04687" />
			<path style="fill:#f15029;fill-opacity:1;fill-rule:nonzero;stroke:none" d="m 335.41,37.1367 c 0,-4.2773 3.77,-5.332 11.406,-6.8945 11.192,-2.1875 16.641,-4.9102 16.641,-13.0742 0,-9.40628 -6.699,-15.78128 -17.266,-15.78128 h -3.144 c -10.352,0 -17.047,6.375 -17.047,10.55468 0,0.2188 0.211,0.5195 0.633,0.7422 l 5.484,2.4414 c 0.207,0.1094 0.422,0.2188 0.52,0.2188 0.312,0 0.527,-0.3125 0.84,-0.6368 2.507,-3.2539 5.546,-5.27341 10.156,-5.27341 h 1.394 c 4.817,0 9.114,2.72661 9.114,6.07421 0,4.4922 -4.61,5.0078 -13.282,6.7969 -9.941,1.9805 -14.648,5.0078 -14.648,12.8594 0,9.0937 6.797,15.3711 16.836,15.3711 h 3.144 c 10.352,0 17.051,-6.3829 17.051,-10.5625 0,-0.3125 -0.215,-0.5313 -0.625,-0.7266 l -5.488,-2.4609 c -0.215,-0.1055 -0.527,-0.2149 -0.625,-0.2149 -0.32,0 -0.469,0.293 -0.742,0.625 -2.278,2.9688 -5.657,5.2852 -10.157,5.2852 h -1.386 c -4.922,0 -8.809,-1.9922 -8.809,-5.3438" />
			<path style="fill:#f15029;fill-opacity:1;fill-rule:nonzero;stroke:none" d="m 244.652,33.6328 c 0,4.5117 -4.492,8.6797 -9.402,8.6797 -5.023,0 -9.414,-4.2852 -9.414,-8.8867 0,-1.1406 0.102,-1.5625 1.043,-1.5625 h 16.734 c 0.938,0 1.039,0.5273 1.039,1.7695 z m 8.371,-9.0937 h -26.144 c -0.731,0 -1.043,-0.3125 -1.043,-1.043 v -4.1797 c 0,-5.1289 4.074,-9.42577 9.414,-9.42577 2.504,0 4.961,0.59767 6.328,1.73827 2.735,2.2656 3.82,4.3867 4.453,4.3867 0.207,0 0.418,-0.1054 0.625,-0.2148 l 5.43,-2.7656 c 0.418,-0.2149 0.629,-0.4102 0.629,-0.7305 0,-0.7227 -1.262,-3.44923 -4.399,-6.37892 -3.136,-2.92969 -7.531,-4.39062 -13.066,-4.39062 -11.406,0 -19.406,7.32031 -19.406,18.94144 v 10.6836 c 0,11.4453 8.941,19.5312 19.406,19.5312 10.453,0 18.816,-8.2617 18.816,-17.7812 v -7.3125 c 0,-0.7461 -0.312,-1.0586 -1.043,-1.0586" />
			<path style="fill:#f15029;fill-opacity:1;fill-rule:nonzero;stroke:none" d="m 408.547,33.4844 c 0,4.4922 -4.504,8.6914 -9.406,8.6914 -5.02,0 -9.414,-4.2969 -9.414,-8.8867 0,-1.1602 0.097,-1.5821 1.035,-1.5821 H 407.5 c 0.938,0 1.047,0.5196 1.047,1.7774 z m 8.367,-9.1016 h -26.152 c -0.723,0 -1.035,-0.3125 -1.035,-1.0351 v -4.1875 c 0,-5.1172 4.074,-9.40629 9.414,-9.40629 2.5,0 4.961,0.56639 6.328,1.71879 2.734,2.2656 3.242,4.3945 3.867,4.3945 0.215,0 0.422,-0.1172 0.625,-0.2109 l 6.016,-2.7774 c 0.41,-0.1953 0.625,-0.418 0.625,-0.7187 0,-0.7461 -1.25,-3.46098 -4.395,-6.37895 -3.137,-2.92969 -7.539,-4.39453 -13.066,-4.39453 -11.407,0 -19.414,7.3125 -19.414,18.93358 v 10.6953 c 0,11.4336 8.945,19.5196 19.414,19.5196 10.449,0 18.82,-8.2579 18.82,-17.7813 v -7.3242 c 0,-0.7227 -0.324,-1.0469 -1.047,-1.0469" />
			<path style="fill:#f15029;fill-opacity:1;fill-rule:nonzero;stroke:none" d="m 444.395,31.6523 h 16.738 c 0.937,0 1.035,0.4258 1.035,1.5704 0,4.6093 -4.395,8.8945 -9.414,8.8945 -4.91,0 -9.414,-4.1875 -9.414,-8.6797 0,-1.2617 0.117,-1.7852 1.055,-1.7852 z m -10.457,-6.2734 v 7.3242 c 0,9.5157 8.367,17.7735 18.816,17.7735 10.469,0 19.414,-8.0743 19.414,-19.5078 V 20.2734 c 0,-11.62106 -8.008,-18.93356 -19.414,-18.93356 -5.547,0 -9.934,1.46094 -13.066,4.39063 -3.145,2.92187 -4.395,5.62503 -4.395,6.36723 0,0.3125 0.215,0.5273 0.625,0.7343 l 6.016,2.7657 c 0.195,0.0937 0.41,0.2031 0.625,0.2031 0.625,0 1.132,-2.1094 3.867,-4.3867 1.367,-1.1289 3.828,-1.71879 6.328,-1.71879 5.344,0 9.414,4.29689 9.414,9.40629 v 4.1875 c 0,0.7226 -0.313,1.0351 -1.035,1.0351 H 434.98 c -0.722,0 -1.042,0.336 -1.042,1.0547" />
		</g>
	</g>
</svg>
